{"glyphs":{"0":{"ha":989,"x_min":71,"x_max":919,"o":"m 494 -13 q 182 118 294 -13 q 71 514 71 249 q 182 910 71 780 q 494 1041 292 1041 q 807 910 696 1041 q 919 514 919 780 q 867 218 919 335 q 721 44 816 101 q 494 -13 626 -13 m 495 178 q 599 210 557 178 q 664 315 642 241 q 687 513 687 389 q 664 713 687 638 q 599 818 642 787 q 495 849 557 849 q 391 818 433 849 q 326 713 349 787 q 303 515 303 639 q 325 315 303 389 q 390 210 347 241 q 495 178 432 178 z "},"1":{"ha":635,"x_min":26,"x_max":527,"o":"m 371 1031 l 527 1031 l 527 0 l 290 0 l 290 752 l 26 564 l 26 785 l 371 1031 z "},"2":{"ha":797,"x_min":24,"x_max":756,"o":"m 756 189 l 756 0 l 37 0 l 37 124 l 347 483 q 443 616 415 563 q 471 719 471 669 q 425 823 471 790 q 274 856 378 856 q 143 844 209 856 q 24 813 77 832 l 24 1001 q 150 1030 74 1018 q 293 1041 226 1041 q 603 968 502 1041 q 704 744 704 896 q 668 584 704 661 q 547 410 633 506 l 351 189 l 756 189 z "},"3":{"ha":806,"x_min":35,"x_max":758,"o":"m 547 532 q 703 449 648 511 q 758 288 758 388 q 651 66 758 144 q 326 -13 544 -13 q 35 24 172 -13 l 35 196 q 174 167 100 178 q 315 157 247 157 q 484 193 430 157 q 538 301 538 230 q 487 405 538 370 q 322 440 437 440 l 151 440 l 151 612 l 281 612 q 445 645 394 612 q 497 744 497 679 q 306 871 497 871 q 178 860 244 871 q 56 830 112 849 l 56 1001 q 184 1030 109 1019 q 328 1041 258 1041 q 623 969 524 1041 q 723 762 723 897 q 676 617 723 678 q 547 532 629 556 z "},"4":{"ha":937,"x_min":27,"x_max":913,"o":"m 913 390 l 913 208 l 773 208 l 773 0 l 560 0 l 560 208 l 27 208 l 27 334 l 403 1028 l 631 1028 l 288 390 l 560 390 l 582 681 l 773 681 l 773 390 l 913 390 z "},"5":{"ha":814,"x_min":53,"x_max":776,"o":"m 319 625 q 584 578 483 616 q 731 474 685 540 q 776 308 776 407 q 668 69 776 152 q 344 -13 560 -13 q 53 28 192 -13 l 53 199 q 191 171 118 181 q 333 160 265 160 q 501 197 447 160 q 554 303 554 233 q 527 383 554 352 q 433 431 501 413 q 241 456 365 449 l 88 465 l 125 1028 l 733 1028 l 733 853 l 335 853 l 319 625 z "},"6":{"ha":921,"x_min":77,"x_max":879,"o":"m 533 619 q 715 585 637 619 q 836 482 792 551 q 879 307 879 412 q 834 137 879 209 q 704 26 789 65 q 502 -13 619 -13 q 277 40 372 -13 q 130 202 182 92 q 77 478 77 312 q 209 898 77 756 q 595 1041 342 1041 q 719 1033 663 1041 q 824 1007 775 1026 l 824 831 q 721 858 776 849 q 610 867 665 867 q 385 791 460 867 q 306 562 310 715 q 411 604 351 589 q 533 619 471 619 m 503 151 q 622 189 578 151 q 665 301 665 227 q 618 416 665 378 q 486 454 572 454 q 392 442 439 454 q 307 406 346 430 q 363 209 313 267 q 503 151 413 151 z "},"7":{"ha":758,"x_min":8,"x_max":718,"o":"m 8 1028 l 718 1028 l 718 904 l 368 0 l 126 0 l 467 839 l 8 839 l 8 1028 z "},"8":{"ha":989,"x_min":61,"x_max":926,"o":"m 729 544 q 881 436 835 499 q 926 285 926 374 q 879 131 926 199 q 736 25 832 64 q 497 -13 640 -13 q 250 20 347 -13 q 107 113 153 53 q 61 253 61 173 q 111 402 61 338 q 253 503 160 467 q 130 610 168 547 q 92 753 92 672 q 138 904 92 840 q 278 1005 185 969 q 510 1041 372 1041 q 719 1010 633 1041 q 850 921 806 979 q 895 783 895 863 q 729 544 895 621 m 505 883 q 361 850 408 883 q 315 763 315 817 q 335 694 315 722 q 409 643 355 667 q 568 594 463 619 l 571 594 q 662 666 634 627 q 690 757 690 706 q 643 850 690 817 q 505 883 597 883 m 499 145 q 655 177 603 145 q 706 270 706 210 q 684 340 706 312 q 608 391 662 368 q 453 435 553 413 q 405 447 437 439 q 313 377 343 419 q 282 284 282 334 q 335 181 282 217 q 499 145 389 145 z "},"9":{"ha":921,"x_min":42,"x_max":844,"o":"m 419 1041 q 644 988 549 1041 q 791 826 739 935 q 844 550 844 716 q 711 130 844 272 q 326 -13 579 -13 q 202 -6 258 -13 q 97 21 146 2 l 97 197 q 200 170 144 179 q 311 161 256 161 q 535 237 460 161 q 615 466 610 313 q 510 424 570 439 q 388 409 450 409 q 206 443 284 409 q 85 546 128 476 q 42 721 42 616 q 87 891 42 819 q 217 1002 132 963 q 419 1041 302 1041 m 256 726 q 302 611 256 649 q 435 574 349 574 q 528 586 482 574 q 614 622 575 598 q 558 819 608 761 q 418 876 508 876 q 299 839 343 876 q 256 726 256 801 z "},"\u0000":{"ha":0,"x_min":0,"x_max":0,"o":""},"\r":{"ha":374,"x_min":0,"x_max":0,"o":""}," ":{"ha":374,"x_min":0,"x_max":0,"o":""},"A":{"ha":1088,"x_min":14,"x_max":1074,"o":"m 841 0 l 749 274 l 337 274 l 245 0 l 14 0 l 373 1028 l 715 1028 l 1074 0 l 841 0 m 397 455 l 689 455 l 543 890 l 397 455 z "},"Á":{"ha":1088,"x_min":14,"x_max":1074,"o":"m 841 0 l 749 274 l 337 274 l 245 0 l 14 0 l 373 1028 l 715 1028 l 1074 0 l 841 0 m 397 455 l 689 455 l 543 890 l 397 455 m 437 1108 l 571 1318 l 816 1318 l 647 1108 l 437 1108 z "},"Ă":{"ha":1088,"x_min":14,"x_max":1074,"o":"m 841 0 l 749 274 l 337 274 l 245 0 l 14 0 l 373 1028 l 715 1028 l 1074 0 l 841 0 m 397 455 l 689 455 l 543 890 l 397 455 m 544 1110 q 343 1165 414 1110 q 259 1312 272 1219 l 400 1312 q 444 1244 410 1267 q 544 1222 478 1222 q 644 1245 610 1222 q 688 1312 678 1268 l 828 1312 q 745 1165 816 1219 q 544 1110 675 1110 z "},"Ắ":{"ha":1088,"x_min":14,"x_max":1074,"o":"m 841 0 l 749 274 l 337 274 l 245 0 l 14 0 l 373 1028 l 715 1028 l 1074 0 l 841 0 m 397 455 l 689 455 l 543 890 l 397 455 m 478 1273 l 566 1440 l 728 1440 l 610 1273 l 478 1273 m 544 1110 q 359 1158 424 1110 q 280 1291 294 1206 l 400 1291 q 442 1225 410 1247 q 544 1204 473 1204 q 622 1214 592 1204 q 667 1243 651 1224 q 692 1291 683 1261 l 808 1291 q 729 1158 794 1206 q 544 1110 664 1110 z "},"Ặ":{"ha":1088,"x_min":14,"x_max":1074,"o":"m 841 0 l 749 274 l 337 274 l 245 0 l 14 0 l 373 1028 l 715 1028 l 1074 0 l 841 0 m 397 455 l 689 455 l 543 890 l 397 455 m 544 -290 q 440 -263 474 -290 q 405 -190 405 -237 q 440 -116 405 -142 q 544 -89 474 -89 q 649 -116 615 -89 q 684 -190 684 -142 q 649 -263 684 -237 q 544 -290 615 -290 m 544 1110 q 343 1165 414 1110 q 259 1312 272 1219 l 400 1312 q 444 1244 410 1267 q 544 1222 478 1222 q 644 1245 610 1222 q 688 1312 678 1268 l 828 1312 q 745 1165 816 1219 q 544 1110 675 1110 z "},"Ằ":{"ha":1088,"x_min":14,"x_max":1074,"o":"m 841 0 l 749 274 l 337 274 l 245 0 l 14 0 l 373 1028 l 715 1028 l 1074 0 l 841 0 m 397 455 l 689 455 l 543 890 l 397 455 m 478 1273 l 359 1440 l 522 1440 l 610 1273 l 478 1273 m 544 1110 q 359 1158 424 1110 q 280 1291 294 1206 l 395 1291 q 420 1243 405 1261 q 466 1214 436 1224 q 544 1204 495 1204 q 646 1225 615 1204 q 688 1291 677 1247 l 808 1291 q 729 1158 794 1206 q 544 1110 664 1110 z "},"Ẳ":{"ha":1088,"x_min":14,"x_max":1074,"o":"m 841 0 l 749 274 l 337 274 l 245 0 l 14 0 l 373 1028 l 715 1028 l 1074 0 l 841 0 m 397 455 l 689 455 l 543 890 l 397 455 m 486 1273 q 507 1314 488 1299 q 563 1343 527 1328 q 597 1359 585 1352 q 608 1376 608 1367 q 528 1400 608 1400 q 388 1383 462 1400 l 388 1456 q 463 1469 421 1464 q 544 1474 506 1474 q 682 1452 637 1474 q 727 1390 727 1430 q 708 1346 727 1362 q 653 1313 688 1330 q 616 1293 628 1302 q 601 1273 603 1285 l 486 1273 m 543 1110 q 359 1158 424 1110 q 280 1291 294 1206 l 400 1291 q 441 1225 410 1247 q 543 1204 472 1204 q 622 1214 592 1204 q 667 1243 651 1224 q 692 1291 683 1261 l 808 1291 q 728 1158 794 1206 q 543 1110 663 1110 z "},"Ẵ":{"ha":1088,"x_min":14,"x_max":1074,"o":"m 841 0 l 749 274 l 337 274 l 245 0 l 14 0 l 373 1028 l 715 1028 l 1074 0 l 841 0 m 397 455 l 689 455 l 543 890 l 397 455 m 653 1326 q 595 1333 624 1326 q 530 1350 567 1339 q 473 1365 494 1360 q 432 1369 453 1369 q 361 1359 394 1369 q 280 1323 327 1349 l 280 1419 q 356 1453 321 1444 q 434 1463 391 1463 q 492 1457 464 1463 q 558 1439 519 1451 q 613 1424 591 1428 q 656 1419 634 1419 q 727 1429 693 1419 q 808 1466 760 1440 l 808 1369 q 732 1335 767 1344 q 653 1326 697 1326 m 543 1110 q 359 1158 424 1110 q 280 1291 294 1206 l 400 1291 q 441 1225 410 1247 q 543 1204 472 1204 q 646 1225 615 1204 q 688 1291 677 1247 l 808 1291 q 728 1158 794 1206 q 543 1110 663 1110 z "},"Â":{"ha":1088,"x_min":14,"x_max":1074,"o":"m 841 0 l 749 274 l 337 274 l 245 0 l 14 0 l 373 1028 l 715 1028 l 1074 0 l 841 0 m 397 455 l 689 455 l 543 890 l 397 455 m 842 1108 l 658 1108 l 544 1232 l 429 1108 l 245 1108 l 446 1318 l 642 1318 l 842 1108 z "},"Ấ":{"ha":1088,"x_min":14,"x_max":1074,"o":"m 841 0 l 749 274 l 337 274 l 245 0 l 14 0 l 373 1028 l 715 1028 l 1074 0 l 841 0 m 397 455 l 689 455 l 543 890 l 397 455 m 814 1433 l 976 1433 l 858 1262 l 726 1262 l 814 1433 m 446 1297 l 642 1297 l 842 1108 l 658 1108 l 544 1221 l 429 1108 l 245 1108 l 446 1297 z "},"Ậ":{"ha":1088,"x_min":14,"x_max":1074,"o":"m 841 0 l 749 274 l 337 274 l 245 0 l 14 0 l 373 1028 l 715 1028 l 1074 0 l 841 0 m 397 455 l 689 455 l 543 890 l 397 455 m 544 -290 q 440 -263 474 -290 q 405 -190 405 -237 q 440 -116 405 -142 q 544 -89 474 -89 q 649 -116 615 -89 q 684 -190 684 -142 q 649 -263 684 -237 q 544 -290 615 -290 m 842 1108 l 658 1108 l 544 1232 l 429 1108 l 245 1108 l 446 1318 l 642 1318 l 842 1108 z "},"Ầ":{"ha":1088,"x_min":14,"x_max":1074,"o":"m 841 0 l 749 274 l 337 274 l 245 0 l 14 0 l 373 1028 l 715 1028 l 1074 0 l 841 0 m 397 455 l 689 455 l 543 890 l 397 455 m 882 1262 l 749 1262 l 631 1433 l 794 1433 l 882 1262 m 446 1297 l 642 1297 l 842 1108 l 658 1108 l 544 1221 l 429 1108 l 245 1108 l 446 1297 z "},"Ẩ":{"ha":1088,"x_min":14,"x_max":1074,"o":"m 841 0 l 749 274 l 337 274 l 245 0 l 14 0 l 373 1028 l 715 1028 l 1074 0 l 841 0 m 397 455 l 689 455 l 543 890 l 397 455 m 783 1463 q 921 1441 876 1463 q 966 1378 966 1419 q 947 1335 966 1351 q 892 1302 927 1319 q 855 1282 867 1291 q 840 1262 842 1274 l 725 1262 q 746 1303 726 1288 q 801 1332 766 1317 q 835 1348 824 1341 q 847 1365 847 1356 q 767 1388 847 1388 q 628 1372 697 1388 l 628 1445 q 702 1458 660 1453 q 783 1463 744 1463 m 446 1297 l 642 1297 l 842 1108 l 658 1108 l 544 1221 l 429 1108 l 245 1108 l 446 1297 z "},"Ẫ":{"ha":1088,"x_min":14,"x_max":1074,"o":"m 841 0 l 749 274 l 337 274 l 245 0 l 14 0 l 373 1028 l 715 1028 l 1074 0 l 841 0 m 397 455 l 689 455 l 543 890 l 397 455 m 678 1419 q 758 1430 721 1419 q 842 1466 794 1440 l 842 1369 q 764 1335 802 1344 q 676 1326 725 1326 q 605 1333 639 1326 q 528 1350 572 1339 q 461 1365 485 1360 q 410 1369 436 1369 q 330 1359 367 1369 q 245 1323 293 1349 l 245 1419 q 325 1453 286 1444 q 412 1463 364 1463 q 481 1457 449 1463 q 560 1439 514 1451 q 625 1424 599 1428 q 678 1419 651 1419 m 446 1297 l 642 1297 l 842 1108 l 658 1108 l 544 1221 l 429 1108 l 245 1108 l 446 1297 z "},"Ȁ":{"ha":1088,"x_min":14,"x_max":1074,"o":"m 841 0 l 749 274 l 337 274 l 245 0 l 14 0 l 373 1028 l 715 1028 l 1074 0 l 841 0 m 397 455 l 689 455 l 543 890 l 397 455 m 316 1108 l 201 1318 l 381 1318 l 483 1108 l 316 1108 m 604 1108 l 490 1318 l 669 1318 l 772 1108 l 604 1108 z "},"Ä":{"ha":1088,"x_min":14,"x_max":1074,"o":"m 841 0 l 749 274 l 337 274 l 245 0 l 14 0 l 373 1028 l 715 1028 l 1074 0 l 841 0 m 397 455 l 689 455 l 543 890 l 397 455 m 357 1115 q 266 1142 297 1115 q 235 1216 235 1168 q 266 1290 235 1264 q 357 1316 296 1316 q 448 1290 417 1316 q 478 1216 478 1264 q 448 1142 478 1168 q 357 1115 417 1115 m 731 1115 q 640 1142 670 1115 q 609 1216 609 1168 q 640 1290 609 1264 q 731 1316 670 1316 q 822 1290 792 1316 q 852 1216 852 1264 q 822 1142 852 1168 q 731 1115 791 1115 z "},"Ạ":{"ha":1088,"x_min":14,"x_max":1074,"o":"m 841 0 l 749 274 l 337 274 l 245 0 l 14 0 l 373 1028 l 715 1028 l 1074 0 l 841 0 m 397 455 l 689 455 l 543 890 l 397 455 m 544 -290 q 440 -263 474 -290 q 405 -190 405 -237 q 440 -116 405 -142 q 544 -89 474 -89 q 649 -116 615 -89 q 684 -190 684 -142 q 649 -263 684 -237 q 544 -290 615 -290 z "},"À":{"ha":1088,"x_min":14,"x_max":1074,"o":"m 841 0 l 749 274 l 337 274 l 245 0 l 14 0 l 373 1028 l 715 1028 l 1074 0 l 841 0 m 397 455 l 689 455 l 543 890 l 397 455 m 439 1108 l 270 1318 l 515 1318 l 649 1108 l 439 1108 z "},"Ả":{"ha":1088,"x_min":14,"x_max":1074,"o":"m 841 0 l 749 274 l 337 274 l 245 0 l 14 0 l 373 1028 l 715 1028 l 1074 0 l 841 0 m 397 455 l 689 455 l 543 890 l 397 455 m 486 1108 q 508 1153 488 1137 q 563 1185 528 1169 q 597 1204 587 1197 q 608 1222 608 1211 q 528 1247 608 1247 q 388 1230 460 1247 l 388 1313 q 463 1326 420 1322 q 544 1331 505 1331 q 682 1307 638 1331 q 727 1238 727 1283 q 707 1189 727 1207 q 652 1152 688 1170 q 615 1130 627 1139 q 601 1108 603 1121 l 486 1108 z "},"Ȃ":{"ha":1088,"x_min":14,"x_max":1074,"o":"m 841 0 l 749 274 l 337 274 l 245 0 l 14 0 l 373 1028 l 715 1028 l 1074 0 l 841 0 m 397 455 l 689 455 l 543 890 l 397 455 m 259 1114 q 342 1261 272 1206 q 543 1315 413 1315 q 745 1261 674 1315 q 828 1114 816 1206 l 688 1114 q 643 1181 678 1158 q 543 1204 609 1204 q 443 1181 478 1204 q 400 1114 409 1158 l 259 1114 z "},"Ā":{"ha":1088,"x_min":14,"x_max":1074,"o":"m 841 0 l 749 274 l 337 274 l 245 0 l 14 0 l 373 1028 l 715 1028 l 1074 0 l 841 0 m 397 455 l 689 455 l 543 890 l 397 455 m 277 1147 l 277 1280 l 810 1280 l 810 1147 l 277 1147 z "},"Ą":{"ha":1088,"x_min":14,"x_max":1115,"o":"m 1015 -217 q 1115 -196 1058 -217 l 1115 -284 q 983 -307 1050 -307 q 832 -269 883 -307 q 781 -162 781 -231 q 808 -74 781 -114 q 893 0 834 -33 l 841 0 l 749 274 l 337 274 l 245 0 l 14 0 l 373 1028 l 715 1028 l 1074 0 q 949 -68 985 -34 q 913 -144 913 -103 q 939 -198 913 -179 q 1015 -217 964 -217 m 397 455 l 689 455 l 543 890 l 397 455 z "},"Å":{"ha":1088,"x_min":14,"x_max":1074,"o":"m 841 0 l 749 274 l 337 274 l 245 0 l 14 0 l 373 1028 l 715 1028 l 1074 0 l 841 0 m 397 455 l 689 455 l 543 890 l 397 455 m 544 1061 q 467 1080 501 1061 q 414 1132 433 1099 q 394 1206 394 1165 q 414 1281 394 1248 q 467 1333 433 1314 q 544 1351 501 1351 q 620 1333 586 1351 q 674 1281 654 1314 q 693 1206 693 1248 q 674 1132 693 1165 q 620 1080 654 1099 q 544 1061 586 1061 m 544 1138 q 591 1157 573 1138 q 609 1206 609 1175 q 591 1255 609 1237 q 544 1274 573 1274 q 497 1255 515 1274 q 478 1206 478 1237 q 497 1157 478 1175 q 544 1138 515 1138 z "},"Ǻ":{"ha":1088,"x_min":14,"x_max":1074,"o":"m 841 0 l 749 274 l 337 274 l 245 0 l 14 0 l 373 1028 l 715 1028 l 1074 0 l 841 0 m 397 455 l 689 455 l 543 890 l 397 455 m 674 1281 q 693 1206 693 1248 q 674 1132 693 1165 q 620 1080 654 1099 q 544 1061 586 1061 q 467 1080 501 1061 q 414 1132 433 1099 q 394 1206 394 1165 q 414 1281 394 1248 q 467 1333 433 1314 q 544 1351 501 1351 q 579 1348 560 1351 l 652 1435 l 812 1435 l 674 1281 m 544 1139 q 591 1157 573 1139 q 609 1206 609 1176 q 591 1255 609 1237 q 544 1274 573 1274 q 497 1255 515 1274 q 478 1206 478 1237 q 497 1157 478 1176 q 544 1139 515 1139 z "},"Ã":{"ha":1088,"x_min":14,"x_max":1074,"o":"m 841 0 l 749 274 l 337 274 l 245 0 l 14 0 l 373 1028 l 715 1028 l 1074 0 l 841 0 m 397 455 l 689 455 l 543 890 l 397 455 m 668 1125 q 604 1132 634 1125 q 533 1152 574 1139 q 468 1170 494 1165 q 415 1176 442 1176 q 339 1165 372 1176 q 271 1129 306 1154 l 271 1256 q 335 1293 300 1281 q 419 1306 371 1306 q 483 1299 453 1306 q 555 1278 513 1292 q 620 1260 594 1266 q 673 1253 645 1253 q 749 1265 716 1253 q 817 1300 783 1276 l 817 1174 q 752 1137 788 1149 q 668 1125 717 1125 z "},"Æ":{"ha":1483,"x_min":14,"x_max":1427,"o":"m 939 182 l 1427 182 l 1427 0 l 717 0 l 696 274 l 338 274 l 245 0 l 14 0 l 375 1028 l 1420 1028 l 1420 846 l 882 846 l 901 617 l 1349 617 l 1349 435 l 917 435 l 939 182 m 399 456 l 681 456 l 651 846 l 532 846 l 399 456 z "},"Ǽ":{"ha":1483,"x_min":14,"x_max":1427,"o":"m 939 182 l 1427 182 l 1427 0 l 717 0 l 696 274 l 338 274 l 245 0 l 14 0 l 375 1028 l 1420 1028 l 1420 846 l 882 846 l 901 617 l 1349 617 l 1349 435 l 917 435 l 939 182 m 399 456 l 681 456 l 651 846 l 532 846 l 399 456 m 650 1108 l 784 1318 l 1029 1318 l 860 1108 l 650 1108 z "},"B":{"ha":973,"x_min":100,"x_max":931,"o":"m 737 531 q 880 450 828 511 q 931 290 931 389 q 880 125 931 192 q 713 24 829 59 q 403 -12 596 -12 q 252 -6 336 -12 q 100 8 169 -1 l 100 1001 q 270 1030 176 1019 q 449 1040 363 1040 q 795 968 686 1040 q 903 752 903 897 q 859 611 903 671 q 737 531 815 552 m 476 874 q 332 860 405 874 l 332 610 l 491 610 q 637 643 593 610 q 681 742 681 675 q 661 817 681 789 q 597 860 642 846 q 476 874 552 874 m 466 155 q 615 170 560 155 q 692 217 669 186 q 715 298 715 249 q 668 406 715 372 q 515 440 622 440 l 332 440 l 332 162 q 466 155 392 155 z "},"C":{"ha":924,"x_min":64,"x_max":885,"o":"m 640 -13 q 64 512 64 -13 q 131 802 64 683 q 330 981 199 920 q 649 1041 460 1041 q 885 1016 772 1041 l 885 824 q 667 848 780 848 q 398 768 484 848 q 312 515 312 688 q 397 259 312 339 q 657 180 481 180 q 885 211 771 180 l 885 19 q 640 -13 773 -13 z "},"Ć":{"ha":924,"x_min":64,"x_max":885,"o":"m 640 -13 q 64 512 64 -13 q 131 802 64 683 q 330 981 199 920 q 649 1041 460 1041 q 885 1016 772 1041 l 885 824 q 667 848 780 848 q 398 768 484 848 q 312 515 312 688 q 397 259 312 339 q 657 180 481 180 q 885 211 771 180 l 885 19 q 640 -13 773 -13 m 447 1108 l 581 1318 l 826 1318 l 658 1108 l 447 1108 z "},"Č":{"ha":924,"x_min":64,"x_max":885,"o":"m 640 -13 q 64 512 64 -13 q 131 802 64 683 q 330 981 199 920 q 649 1041 460 1041 q 885 1016 772 1041 l 885 824 q 667 848 780 848 q 398 768 484 848 q 312 515 312 688 q 397 259 312 339 q 657 180 481 180 q 885 211 771 180 l 885 19 q 640 -13 773 -13 m 669 1318 l 853 1318 l 652 1108 l 456 1108 l 256 1318 l 440 1318 l 554 1194 l 669 1318 z "},"Ç":{"ha":924,"x_min":64,"x_max":885,"o":"m 667 848 q 398 768 484 848 q 312 515 312 688 q 397 259 312 339 q 657 180 481 180 q 885 211 771 180 l 885 19 q 640 -13 773 -13 q 599 -12 612 -13 l 599 -59 q 697 -98 664 -67 q 730 -180 730 -129 q 681 -274 730 -240 q 538 -307 631 -307 q 390 -283 458 -307 l 390 -198 q 527 -221 456 -221 q 591 -209 569 -221 q 612 -173 612 -198 q 527 -123 612 -123 l 490 -123 l 490 -3 q 64 512 64 60 q 131 802 64 683 q 330 981 199 920 q 649 1041 460 1041 q 885 1016 772 1041 l 885 824 q 667 848 780 848 z "},"Ḉ":{"ha":924,"x_min":64,"x_max":885,"o":"m 826 1318 l 658 1108 l 447 1108 l 581 1318 l 826 1318 m 667 848 q 398 768 484 848 q 312 515 312 688 q 397 259 312 339 q 657 180 481 180 q 885 211 771 180 l 885 19 q 640 -13 773 -13 q 599 -12 612 -13 l 599 -59 q 697 -98 664 -67 q 730 -180 730 -129 q 681 -274 730 -240 q 538 -307 631 -307 q 390 -283 458 -307 l 390 -198 q 527 -221 456 -221 q 591 -209 569 -221 q 612 -173 612 -198 q 527 -123 612 -123 l 490 -123 l 490 -3 q 64 512 64 60 q 131 802 64 683 q 330 981 199 920 q 649 1041 460 1041 q 885 1016 772 1041 l 885 824 q 667 848 780 848 z "},"Ĉ":{"ha":924,"x_min":64,"x_max":885,"o":"m 640 -13 q 64 512 64 -13 q 131 802 64 683 q 330 981 199 920 q 649 1041 460 1041 q 885 1016 772 1041 l 885 824 q 667 848 780 848 q 398 768 484 848 q 312 515 312 688 q 397 259 312 339 q 657 180 481 180 q 885 211 771 180 l 885 19 q 640 -13 773 -13 m 853 1108 l 669 1108 l 554 1232 l 440 1108 l 256 1108 l 456 1318 l 652 1318 l 853 1108 z "},"Ċ":{"ha":924,"x_min":64,"x_max":885,"o":"m 640 -13 q 64 512 64 -13 q 131 802 64 683 q 330 981 199 920 q 649 1041 460 1041 q 885 1016 772 1041 l 885 824 q 667 848 780 848 q 398 768 484 848 q 312 515 312 688 q 397 259 312 339 q 657 180 481 180 q 885 211 771 180 l 885 19 q 640 -13 773 -13 m 554 1115 q 449 1142 484 1115 q 415 1216 415 1169 q 449 1290 415 1263 q 554 1316 484 1316 q 659 1290 624 1316 q 694 1216 694 1263 q 659 1142 694 1169 q 554 1115 624 1115 z "},"D":{"ha":1120,"x_min":100,"x_max":1056,"o":"m 402 -10 q 100 8 247 -10 l 100 1002 q 271 1028 175 1019 q 454 1038 367 1038 q 905 909 754 1038 q 1056 514 1056 780 q 984 215 1056 330 q 768 45 913 99 q 402 -10 624 -10 m 464 180 q 662 214 585 180 q 776 322 739 249 q 814 515 814 396 q 729 770 814 690 q 466 850 644 850 q 338 839 409 850 l 338 185 q 464 180 383 180 z "},"Ǳ":{"ha":2006,"x_min":100,"x_max":1956,"o":"m 402 -10 q 100 8 247 -10 l 100 1002 q 271 1028 175 1019 q 454 1038 367 1038 q 905 909 754 1038 q 1056 514 1056 780 q 984 215 1056 330 q 768 45 913 99 q 402 -10 624 -10 m 464 180 q 662 214 585 180 q 776 322 739 249 q 814 515 814 396 q 729 770 814 690 q 466 850 644 850 q 338 839 409 850 l 338 185 q 464 180 383 180 m 1439 190 l 1956 190 l 1956 0 l 1133 0 l 1133 128 l 1643 838 l 1140 838 l 1140 1028 l 1949 1028 l 1949 899 l 1439 190 z "},"Ǆ":{"ha":2006,"x_min":100,"x_max":1956,"o":"m 402 -10 q 100 8 247 -10 l 100 1002 q 271 1028 175 1019 q 454 1038 367 1038 q 905 909 754 1038 q 1056 514 1056 780 q 984 215 1056 330 q 768 45 913 99 q 402 -10 624 -10 m 464 180 q 662 214 585 180 q 776 322 739 249 q 814 515 814 396 q 729 770 814 690 q 466 850 644 850 q 338 839 409 850 l 338 185 q 464 180 383 180 m 1439 190 l 1956 190 l 1956 0 l 1133 0 l 1133 128 l 1643 838 l 1140 838 l 1140 1028 l 1949 1028 l 1949 899 l 1439 190 m 1660 1318 l 1844 1318 l 1643 1108 l 1447 1108 l 1247 1318 l 1431 1318 l 1545 1194 l 1660 1318 z "},"Ð":{"ha":1120,"x_min":3,"x_max":1056,"o":"m 454 1038 q 905 909 754 1038 q 1056 514 1056 780 q 984 215 1056 330 q 768 45 913 99 q 402 -10 624 -10 q 100 8 247 -10 l 100 456 l 3 456 l 3 602 l 100 602 l 100 1002 q 271 1028 175 1019 q 454 1038 367 1038 m 464 180 q 662 214 585 180 q 776 322 739 249 q 814 515 814 396 q 729 770 814 690 q 466 850 644 850 q 338 839 409 850 l 338 602 l 542 602 l 542 456 l 338 456 l 338 185 q 464 180 383 180 z "},"Ď":{"ha":1120,"x_min":100,"x_max":1056,"o":"m 402 -10 q 100 8 247 -10 l 100 1002 q 271 1028 175 1019 q 454 1038 367 1038 q 905 909 754 1038 q 1056 514 1056 780 q 984 215 1056 330 q 768 45 913 99 q 402 -10 624 -10 m 464 180 q 662 214 585 180 q 776 322 739 249 q 814 515 814 396 q 729 770 814 690 q 466 850 644 850 q 338 839 409 850 l 338 185 q 464 180 383 180 m 608 1318 l 792 1318 l 591 1108 l 395 1108 l 194 1318 l 378 1318 l 493 1194 l 608 1318 z "},"Đ":{"ha":1120,"x_min":3,"x_max":1056,"o":"m 454 1038 q 905 909 754 1038 q 1056 514 1056 780 q 984 215 1056 330 q 768 45 913 99 q 402 -10 624 -10 q 100 8 247 -10 l 100 456 l 3 456 l 3 602 l 100 602 l 100 1002 q 271 1028 175 1019 q 454 1038 367 1038 m 464 180 q 662 214 585 180 q 776 322 739 249 q 814 515 814 396 q 729 770 814 690 q 466 850 644 850 q 338 839 409 850 l 338 602 l 542 602 l 542 456 l 338 456 l 338 185 q 464 180 383 180 z "},"Ḍ":{"ha":1120,"x_min":100,"x_max":1056,"o":"m 402 -10 q 100 8 247 -10 l 100 1002 q 271 1028 175 1019 q 454 1038 367 1038 q 905 909 754 1038 q 1056 514 1056 780 q 984 215 1056 330 q 768 45 913 99 q 402 -10 624 -10 m 464 180 q 662 214 585 180 q 776 322 739 249 q 814 515 814 396 q 729 770 814 690 q 466 850 644 850 q 338 839 409 850 l 338 185 q 464 180 383 180 m 503 -290 q 398 -263 433 -290 q 363 -190 363 -237 q 398 -116 363 -142 q 503 -89 433 -89 q 608 -116 573 -89 q 642 -190 642 -142 q 608 -263 642 -237 q 503 -290 573 -290 z "},"Ḏ":{"ha":1120,"x_min":100,"x_max":1056,"o":"m 402 -10 q 100 8 247 -10 l 100 1002 q 271 1028 175 1019 q 454 1038 367 1038 q 905 909 754 1038 q 1056 514 1056 780 q 984 215 1056 330 q 768 45 913 99 q 402 -10 624 -10 m 464 180 q 662 214 585 180 q 776 322 739 249 q 814 515 814 396 q 729 770 814 690 q 466 850 644 850 q 338 839 409 850 l 338 185 q 464 180 383 180 m 236 -251 l 236 -118 l 769 -118 l 769 -251 l 236 -251 z "},"ǲ":{"ha":1889,"x_min":100,"x_max":1847,"o":"m 402 -10 q 100 8 247 -10 l 100 1002 q 271 1028 175 1019 q 454 1038 367 1038 q 905 909 754 1038 q 1056 514 1056 780 q 984 215 1056 330 q 768 45 913 99 q 402 -10 624 -10 m 464 180 q 662 214 585 180 q 776 322 739 249 q 814 515 814 396 q 729 770 814 690 q 466 850 644 850 q 338 839 409 850 l 338 185 q 464 180 383 180 m 1474 183 l 1847 183 l 1847 0 l 1174 0 l 1174 149 l 1540 577 l 1181 577 l 1181 760 l 1840 760 l 1840 611 l 1474 183 z "},"ǅ":{"ha":1889,"x_min":100,"x_max":1847,"o":"m 402 -10 q 100 8 247 -10 l 100 1002 q 271 1028 175 1019 q 454 1038 367 1038 q 905 909 754 1038 q 1056 514 1056 780 q 984 215 1056 330 q 768 45 913 99 q 402 -10 624 -10 m 464 180 q 662 214 585 180 q 776 322 739 249 q 814 515 814 396 q 729 770 814 690 q 466 850 644 850 q 338 839 409 850 l 338 185 q 464 180 383 180 m 1474 183 l 1847 183 l 1847 0 l 1174 0 l 1174 149 l 1540 577 l 1181 577 l 1181 760 l 1840 760 l 1840 611 l 1474 183 m 1625 1096 l 1809 1096 l 1608 885 l 1413 885 l 1212 1096 l 1396 1096 l 1510 972 l 1625 1096 z "},"E":{"ha":934,"x_min":100,"x_max":878,"o":"m 335 182 l 878 182 l 878 0 l 100 0 l 100 1028 l 872 1028 l 872 846 l 335 846 l 335 617 l 800 617 l 800 435 l 335 435 l 335 182 z "},"É":{"ha":934,"x_min":100,"x_max":878,"o":"m 335 182 l 878 182 l 878 0 l 100 0 l 100 1028 l 872 1028 l 872 846 l 335 846 l 335 617 l 800 617 l 800 435 l 335 435 l 335 182 m 394 1108 l 528 1318 l 773 1318 l 604 1108 l 394 1108 z "},"Ĕ":{"ha":934,"x_min":100,"x_max":878,"o":"m 335 182 l 878 182 l 878 0 l 100 0 l 100 1028 l 872 1028 l 872 846 l 335 846 l 335 617 l 800 617 l 800 435 l 335 435 l 335 182 m 501 1110 q 300 1165 371 1110 q 216 1312 228 1219 l 357 1312 q 401 1244 367 1267 q 501 1222 435 1222 q 601 1245 567 1222 q 644 1312 635 1268 l 785 1312 q 702 1165 773 1219 q 501 1110 632 1110 z "},"Ě":{"ha":934,"x_min":100,"x_max":878,"o":"m 335 182 l 878 182 l 878 0 l 100 0 l 100 1028 l 872 1028 l 872 846 l 335 846 l 335 617 l 800 617 l 800 435 l 335 435 l 335 182 m 615 1318 l 799 1318 l 599 1108 l 403 1108 l 202 1318 l 386 1318 l 501 1194 l 615 1318 z "},"Ḝ":{"ha":934,"x_min":100,"x_max":878,"o":"m 501 1110 q 300 1165 371 1110 q 216 1312 228 1219 l 357 1312 q 401 1244 367 1267 q 501 1222 435 1222 q 601 1245 567 1222 q 644 1312 635 1268 l 785 1312 q 702 1165 773 1219 q 501 1110 632 1110 m 542 0 l 542 -59 q 641 -98 608 -67 q 674 -180 674 -129 q 624 -274 674 -240 q 481 -307 575 -307 q 334 -283 401 -307 l 334 -198 q 471 -221 400 -221 q 534 -209 513 -221 q 556 -173 556 -198 q 471 -123 556 -123 l 434 -123 l 434 0 l 100 0 l 100 1028 l 872 1028 l 872 846 l 335 846 l 335 617 l 800 617 l 800 435 l 335 435 l 335 182 l 878 182 l 878 0 l 542 0 z "},"Ê":{"ha":934,"x_min":100,"x_max":878,"o":"m 335 182 l 878 182 l 878 0 l 100 0 l 100 1028 l 872 1028 l 872 846 l 335 846 l 335 617 l 800 617 l 800 435 l 335 435 l 335 182 m 799 1108 l 615 1108 l 501 1232 l 386 1108 l 202 1108 l 403 1318 l 599 1318 l 799 1108 z "},"Ế":{"ha":934,"x_min":100,"x_max":933,"o":"m 335 182 l 878 182 l 878 0 l 100 0 l 100 1028 l 872 1028 l 872 846 l 335 846 l 335 617 l 800 617 l 800 435 l 335 435 l 335 182 m 771 1433 l 933 1433 l 815 1262 l 683 1262 l 771 1433 m 403 1297 l 599 1297 l 799 1108 l 615 1108 l 501 1221 l 386 1108 l 202 1108 l 403 1297 z "},"Ệ":{"ha":934,"x_min":100,"x_max":878,"o":"m 335 182 l 878 182 l 878 0 l 100 0 l 100 1028 l 872 1028 l 872 846 l 335 846 l 335 617 l 800 617 l 800 435 l 335 435 l 335 182 m 501 -290 q 397 -263 431 -290 q 362 -190 362 -237 q 397 -116 362 -142 q 501 -89 431 -89 q 606 -116 572 -89 q 641 -190 641 -142 q 606 -263 641 -237 q 501 -290 572 -290 m 799 1108 l 615 1108 l 501 1232 l 386 1108 l 202 1108 l 403 1318 l 599 1318 l 799 1108 z "},"Ề":{"ha":934,"x_min":100,"x_max":878,"o":"m 335 182 l 878 182 l 878 0 l 100 0 l 100 1028 l 872 1028 l 872 846 l 335 846 l 335 617 l 800 617 l 800 435 l 335 435 l 335 182 m 839 1262 l 706 1262 l 588 1433 l 751 1433 l 839 1262 m 403 1297 l 599 1297 l 799 1108 l 615 1108 l 501 1221 l 386 1108 l 202 1108 l 403 1297 z "},"Ể":{"ha":934,"x_min":100,"x_max":923,"o":"m 335 182 l 878 182 l 878 0 l 100 0 l 100 1028 l 872 1028 l 872 846 l 335 846 l 335 617 l 800 617 l 800 435 l 335 435 l 335 182 m 740 1463 q 878 1441 833 1463 q 923 1378 923 1419 q 903 1335 923 1351 q 849 1302 884 1319 q 812 1282 824 1291 q 797 1262 799 1274 l 682 1262 q 703 1303 683 1288 q 758 1332 723 1317 q 792 1348 781 1341 q 803 1365 803 1356 q 724 1388 803 1388 q 585 1372 654 1388 l 585 1445 q 659 1458 617 1453 q 740 1463 701 1463 m 403 1297 l 599 1297 l 799 1108 l 615 1108 l 501 1221 l 386 1108 l 202 1108 l 403 1297 z "},"Ễ":{"ha":934,"x_min":100,"x_max":878,"o":"m 335 182 l 878 182 l 878 0 l 100 0 l 100 1028 l 872 1028 l 872 846 l 335 846 l 335 617 l 800 617 l 800 435 l 335 435 l 335 182 m 635 1419 q 715 1430 678 1419 q 799 1466 751 1440 l 799 1369 q 720 1335 759 1344 q 633 1326 682 1326 q 562 1333 596 1326 q 485 1350 528 1339 q 418 1365 442 1360 q 367 1369 393 1369 q 287 1359 324 1369 q 202 1323 250 1349 l 202 1419 q 282 1453 243 1444 q 369 1463 321 1463 q 438 1457 406 1463 q 517 1439 471 1451 q 582 1424 556 1428 q 635 1419 608 1419 m 403 1297 l 599 1297 l 799 1108 l 615 1108 l 501 1221 l 386 1108 l 202 1108 l 403 1297 z "},"Ȅ":{"ha":934,"x_min":100,"x_max":878,"o":"m 335 182 l 878 182 l 878 0 l 100 0 l 100 1028 l 872 1028 l 872 846 l 335 846 l 335 617 l 800 617 l 800 435 l 335 435 l 335 182 m 273 1108 l 158 1318 l 338 1318 l 440 1108 l 273 1108 m 561 1108 l 447 1318 l 626 1318 l 728 1108 l 561 1108 z "},"Ë":{"ha":934,"x_min":100,"x_max":878,"o":"m 335 182 l 878 182 l 878 0 l 100 0 l 100 1028 l 872 1028 l 872 846 l 335 846 l 335 617 l 800 617 l 800 435 l 335 435 l 335 182 m 314 1115 q 223 1142 253 1115 q 192 1216 192 1168 q 223 1290 192 1264 q 314 1316 253 1316 q 405 1290 374 1316 q 435 1216 435 1264 q 405 1142 435 1168 q 314 1115 374 1115 m 688 1115 q 597 1142 627 1115 q 566 1216 566 1168 q 597 1290 566 1264 q 688 1316 627 1316 q 779 1290 749 1316 q 809 1216 809 1264 q 778 1142 809 1168 q 688 1115 748 1115 z "},"Ė":{"ha":934,"x_min":100,"x_max":878,"o":"m 335 182 l 878 182 l 878 0 l 100 0 l 100 1028 l 872 1028 l 872 846 l 335 846 l 335 617 l 800 617 l 800 435 l 335 435 l 335 182 m 501 1115 q 396 1142 431 1115 q 361 1216 361 1169 q 396 1290 361 1263 q 501 1316 431 1316 q 606 1290 571 1316 q 640 1216 640 1263 q 606 1142 640 1169 q 501 1115 571 1115 z "},"Ẹ":{"ha":934,"x_min":100,"x_max":878,"o":"m 335 182 l 878 182 l 878 0 l 100 0 l 100 1028 l 872 1028 l 872 846 l 335 846 l 335 617 l 800 617 l 800 435 l 335 435 l 335 182 m 501 -290 q 397 -263 431 -290 q 362 -190 362 -237 q 397 -116 362 -142 q 501 -89 431 -89 q 606 -116 572 -89 q 641 -190 641 -142 q 606 -263 641 -237 q 501 -290 572 -290 z "},"È":{"ha":934,"x_min":100,"x_max":878,"o":"m 335 182 l 878 182 l 878 0 l 100 0 l 100 1028 l 872 1028 l 872 846 l 335 846 l 335 617 l 800 617 l 800 435 l 335 435 l 335 182 m 396 1108 l 227 1318 l 472 1318 l 606 1108 l 396 1108 z "},"Ẻ":{"ha":934,"x_min":100,"x_max":878,"o":"m 335 182 l 878 182 l 878 0 l 100 0 l 100 1028 l 872 1028 l 872 846 l 335 846 l 335 617 l 800 617 l 800 435 l 335 435 l 335 182 m 443 1108 q 465 1153 444 1137 q 520 1185 485 1169 q 554 1204 544 1197 q 565 1222 565 1211 q 485 1247 565 1247 q 345 1230 417 1247 l 345 1313 q 419 1326 377 1322 q 501 1331 462 1331 q 639 1307 594 1331 q 684 1238 684 1283 q 664 1189 684 1207 q 609 1152 644 1170 q 572 1130 584 1139 q 558 1108 560 1121 l 443 1108 z "},"Ȇ":{"ha":934,"x_min":100,"x_max":878,"o":"m 335 182 l 878 182 l 878 0 l 100 0 l 100 1028 l 872 1028 l 872 846 l 335 846 l 335 617 l 800 617 l 800 435 l 335 435 l 335 182 m 216 1114 q 299 1261 228 1206 q 500 1315 370 1315 q 702 1261 631 1315 q 785 1114 773 1206 l 644 1114 q 600 1181 635 1158 q 500 1204 566 1204 q 400 1181 435 1204 q 357 1114 366 1158 l 216 1114 z "},"Ē":{"ha":934,"x_min":100,"x_max":878,"o":"m 335 182 l 878 182 l 878 0 l 100 0 l 100 1028 l 872 1028 l 872 846 l 335 846 l 335 617 l 800 617 l 800 435 l 335 435 l 335 182 m 234 1147 l 234 1280 l 767 1280 l 767 1147 l 234 1147 z "},"Ḗ":{"ha":934,"x_min":100,"x_max":878,"o":"m 335 182 l 878 182 l 878 0 l 100 0 l 100 1028 l 872 1028 l 872 846 l 335 846 l 335 617 l 800 617 l 800 435 l 335 435 l 335 182 m 382 1358 l 515 1519 l 788 1519 l 619 1358 l 382 1358 m 234 1147 l 234 1280 l 767 1280 l 767 1147 l 234 1147 z "},"Ḕ":{"ha":934,"x_min":100,"x_max":878,"o":"m 335 182 l 878 182 l 878 0 l 100 0 l 100 1028 l 872 1028 l 872 846 l 335 846 l 335 617 l 800 617 l 800 435 l 335 435 l 335 182 m 382 1358 l 213 1519 l 485 1519 l 619 1358 l 382 1358 m 234 1147 l 234 1280 l 767 1280 l 767 1147 l 234 1147 z "},"Ę":{"ha":934,"x_min":100,"x_max":878,"o":"m 815 0 q 690 -68 726 -34 q 653 -144 653 -103 q 679 -198 653 -179 q 756 -217 704 -217 q 856 -196 799 -217 l 856 -284 q 723 -307 790 -307 q 573 -269 624 -307 q 522 -162 522 -231 q 548 -74 522 -114 q 633 0 574 -33 l 100 0 l 100 1028 l 872 1028 l 872 846 l 335 846 l 335 617 l 800 617 l 800 435 l 335 435 l 335 182 l 878 182 l 878 0 l 815 0 z "},"Ẽ":{"ha":934,"x_min":100,"x_max":878,"o":"m 335 182 l 878 182 l 878 0 l 100 0 l 100 1028 l 872 1028 l 872 846 l 335 846 l 335 617 l 800 617 l 800 435 l 335 435 l 335 182 m 625 1125 q 561 1132 591 1125 q 490 1152 531 1139 q 425 1170 451 1165 q 372 1176 399 1176 q 295 1165 328 1176 q 228 1129 263 1154 l 228 1256 q 292 1293 257 1281 q 376 1306 328 1306 q 440 1299 410 1306 q 512 1278 470 1292 q 577 1260 551 1266 q 630 1253 602 1253 q 706 1265 673 1253 q 774 1300 740 1276 l 774 1174 q 709 1137 744 1149 q 625 1125 674 1125 z "},"F":{"ha":910,"x_min":100,"x_max":869,"o":"m 869 842 l 338 842 l 338 595 l 796 595 l 796 409 l 338 409 l 338 0 l 100 0 l 100 1028 l 869 1028 l 869 842 z "},"G":{"ha":1058,"x_min":63,"x_max":960,"o":"m 960 500 l 960 13 q 687 -12 816 -12 q 219 118 374 -12 q 64 510 64 248 q 222 906 63 771 q 685 1041 381 1041 q 928 1015 810 1041 l 928 823 q 703 848 819 848 q 481 812 567 847 q 352 701 394 776 q 310 507 310 626 q 399 261 310 342 q 672 180 488 180 q 739 182 706 180 l 739 500 l 960 500 z "},"Ǵ":{"ha":1058,"x_min":64,"x_max":960,"o":"m 960 500 l 960 13 q 687 -12 816 -12 q 219 118 374 -12 q 64 510 64 248 q 222 906 63 771 q 685 1041 381 1041 q 928 1015 810 1041 l 928 823 q 703 848 819 848 q 481 812 567 847 q 352 701 394 776 q 310 507 310 626 q 399 261 310 342 q 672 180 488 180 q 739 182 706 180 l 739 500 l 960 500 m 484 1108 l 618 1318 l 863 1318 l 694 1108 l 484 1108 z "},"Ğ":{"ha":1058,"x_min":64,"x_max":960,"o":"m 960 500 l 960 13 q 687 -12 816 -12 q 219 118 374 -12 q 64 510 64 248 q 222 906 63 771 q 685 1041 381 1041 q 928 1015 810 1041 l 928 823 q 703 848 819 848 q 481 812 567 847 q 352 701 394 776 q 310 507 310 626 q 399 261 310 342 q 672 180 488 180 q 739 182 706 180 l 739 500 l 960 500 m 592 1110 q 390 1165 461 1110 q 306 1312 319 1219 l 447 1312 q 491 1244 457 1267 q 592 1222 526 1222 q 691 1245 657 1222 q 735 1312 726 1268 l 876 1312 q 793 1165 863 1219 q 592 1110 722 1110 z "},"Ǧ":{"ha":1058,"x_min":64,"x_max":960,"o":"m 960 500 l 960 13 q 687 -12 816 -12 q 219 118 374 -12 q 64 510 64 248 q 222 906 63 771 q 685 1041 381 1041 q 928 1015 810 1041 l 928 823 q 703 848 819 848 q 481 812 567 847 q 352 701 394 776 q 310 507 310 626 q 399 261 310 342 q 672 180 488 180 q 739 182 706 180 l 739 500 l 960 500 m 706 1318 l 890 1318 l 689 1108 l 493 1108 l 292 1318 l 476 1318 l 591 1194 l 706 1318 z "},"Ĝ":{"ha":1058,"x_min":64,"x_max":960,"o":"m 960 500 l 960 13 q 687 -12 816 -12 q 219 118 374 -12 q 64 510 64 248 q 222 906 63 771 q 685 1041 381 1041 q 928 1015 810 1041 l 928 823 q 703 848 819 848 q 481 812 567 847 q 352 701 394 776 q 310 507 310 626 q 399 261 310 342 q 672 180 488 180 q 739 182 706 180 l 739 500 l 960 500 m 890 1108 l 706 1108 l 591 1232 l 476 1108 l 292 1108 l 493 1318 l 689 1318 l 890 1108 z "},"Ģ":{"ha":1058,"x_min":64,"x_max":960,"o":"m 960 500 l 960 13 q 687 -12 816 -12 q 219 118 374 -12 q 64 510 64 248 q 222 906 63 771 q 685 1041 381 1041 q 928 1015 810 1041 l 928 823 q 703 848 819 848 q 481 812 567 847 q 352 701 394 776 q 310 507 310 626 q 399 261 310 342 q 672 180 488 180 q 739 182 706 180 l 739 500 l 960 500 m 590 -89 q 721 -193 721 -89 q 706 -273 721 -231 q 665 -346 690 -315 l 524 -346 q 563 -244 555 -287 q 461 -167 461 -237 q 493 -109 461 -130 q 590 -89 525 -89 z "},"Ġ":{"ha":1058,"x_min":64,"x_max":960,"o":"m 960 500 l 960 13 q 687 -12 816 -12 q 219 118 374 -12 q 64 510 64 248 q 222 906 63 771 q 685 1041 381 1041 q 928 1015 810 1041 l 928 823 q 703 848 819 848 q 481 812 567 847 q 352 701 394 776 q 310 507 310 626 q 399 261 310 342 q 672 180 488 180 q 739 182 706 180 l 739 500 l 960 500 m 591 1115 q 486 1142 521 1115 q 451 1216 451 1169 q 486 1290 451 1263 q 591 1316 521 1316 q 696 1290 661 1316 q 731 1216 731 1263 q 696 1142 731 1169 q 591 1115 661 1115 z "},"Ḡ":{"ha":1058,"x_min":64,"x_max":960,"o":"m 960 500 l 960 13 q 687 -12 816 -12 q 219 118 374 -12 q 64 510 64 248 q 222 906 63 771 q 685 1041 381 1041 q 928 1015 810 1041 l 928 823 q 703 848 819 848 q 481 812 567 847 q 352 701 394 776 q 310 507 310 626 q 399 261 310 342 q 672 180 488 180 q 739 182 706 180 l 739 500 l 960 500 m 324 1147 l 324 1280 l 858 1280 l 858 1147 l 324 1147 z "},"H":{"ha":1132,"x_min":100,"x_max":1031,"o":"m 100 0 l 100 1028 l 338 1028 l 338 628 l 794 628 l 794 1028 l 1031 1028 l 1031 0 l 794 0 l 794 424 l 338 424 l 338 0 l 100 0 z "},"Ħ":{"ha":1132,"x_min":4,"x_max":1128,"o":"m 1128 901 l 1128 756 l 1031 756 l 1031 0 l 794 0 l 794 424 l 338 424 l 338 0 l 100 0 l 100 756 l 4 756 l 4 901 l 100 901 l 100 1028 l 338 1028 l 338 901 l 794 901 l 794 1028 l 1031 1028 l 1031 901 l 1128 901 m 794 628 l 794 756 l 338 756 l 338 628 l 794 628 z "},"Ḫ":{"ha":1132,"x_min":100,"x_max":1031,"o":"m 100 0 l 100 1028 l 338 1028 l 338 628 l 794 628 l 794 1028 l 1031 1028 l 1031 0 l 794 0 l 794 424 l 338 424 l 338 0 l 100 0 m 567 -303 q 364 -248 435 -303 q 282 -99 293 -192 l 423 -99 q 567 -192 440 -192 q 710 -99 694 -192 l 851 -99 q 769 -248 840 -192 q 567 -303 699 -303 z "},"Ĥ":{"ha":1132,"x_min":100,"x_max":1031,"o":"m 100 0 l 100 1028 l 338 1028 l 338 628 l 794 628 l 794 1028 l 1031 1028 l 1031 0 l 794 0 l 794 424 l 338 424 l 338 0 l 100 0 m 865 1108 l 681 1108 l 567 1232 l 452 1108 l 268 1108 l 469 1318 l 665 1318 l 865 1108 z "},"Ḥ":{"ha":1132,"x_min":100,"x_max":1031,"o":"m 100 0 l 100 1028 l 338 1028 l 338 628 l 794 628 l 794 1028 l 1031 1028 l 1031 0 l 794 0 l 794 424 l 338 424 l 338 0 l 100 0 m 567 -290 q 462 -263 497 -290 q 427 -190 427 -237 q 462 -116 427 -142 q 567 -89 497 -89 q 672 -116 637 -89 q 706 -190 706 -142 q 672 -263 706 -237 q 567 -290 637 -290 z "},"I":{"ha":438,"x_min":100,"x_max":338,"o":"m 100 0 l 100 1028 l 338 1028 l 338 0 l 100 0 z "},"Í":{"ha":438,"x_min":100,"x_max":491,"o":"m 100 0 l 100 1028 l 338 1028 l 338 0 l 100 0 m 112 1108 l 246 1318 l 491 1318 l 322 1108 l 112 1108 z "},"Ĭ":{"ha":438,"x_min":-66,"x_max":503,"o":"m 100 0 l 100 1028 l 338 1028 l 338 0 l 100 0 m 219 1110 q 18 1165 89 1110 q -66 1312 -53 1219 l 75 1312 q 119 1244 85 1267 q 219 1222 153 1222 q 319 1245 285 1222 q 363 1312 353 1268 l 503 1312 q 420 1165 491 1219 q 219 1110 350 1110 z "},"Î":{"ha":438,"x_min":-80,"x_max":517,"o":"m 100 0 l 100 1028 l 338 1028 l 338 0 l 100 0 m 517 1108 l 333 1108 l 219 1232 l 104 1108 l -80 1108 l 121 1318 l 317 1318 l 517 1108 z "},"Ȉ":{"ha":438,"x_min":-124,"x_max":447,"o":"m 100 0 l 100 1028 l 338 1028 l 338 0 l 100 0 m -9 1108 l -124 1318 l 56 1318 l 158 1108 l -9 1108 m 279 1108 l 165 1318 l 344 1318 l 447 1108 l 279 1108 z "},"Ï":{"ha":438,"x_min":-90,"x_max":527,"o":"m 100 0 l 100 1028 l 338 1028 l 338 0 l 100 0 m 32 1115 q -59 1142 -28 1115 q -90 1216 -90 1168 q -59 1290 -90 1264 q 32 1316 -29 1316 q 123 1290 92 1316 q 153 1216 153 1264 q 123 1142 153 1168 q 32 1115 92 1115 m 406 1115 q 315 1142 345 1115 q 284 1216 284 1168 q 315 1290 284 1264 q 406 1316 345 1316 q 497 1290 467 1316 q 527 1216 527 1264 q 497 1142 527 1168 q 406 1115 466 1115 z "},"Ḯ":{"ha":438,"x_min":-90,"x_max":527,"o":"m 100 0 l 100 1028 l 338 1028 l 338 0 l 100 0 m 100 1358 l 233 1519 l 506 1519 l 338 1358 l 100 1358 m 32 1115 q -59 1142 -28 1115 q -90 1216 -90 1168 q -59 1290 -90 1264 q 32 1316 -29 1316 q 123 1290 92 1316 q 153 1216 153 1264 q 123 1142 153 1168 q 32 1115 92 1115 m 406 1115 q 315 1142 345 1115 q 284 1216 284 1168 q 315 1290 284 1264 q 406 1316 345 1316 q 497 1290 467 1316 q 527 1216 527 1264 q 497 1142 527 1168 q 406 1115 466 1115 z "},"İ":{"ha":438,"x_min":79,"x_max":358,"o":"m 100 0 l 100 1028 l 338 1028 l 338 0 l 100 0 m 219 1115 q 114 1142 149 1115 q 79 1216 79 1169 q 114 1290 79 1263 q 219 1316 149 1316 q 324 1290 289 1316 q 358 1216 358 1263 q 324 1142 358 1169 q 219 1115 289 1115 z "},"Ị":{"ha":438,"x_min":78,"x_max":358,"o":"m 100 0 l 100 1028 l 338 1028 l 338 0 l 100 0 m 218 -290 q 113 -263 148 -290 q 78 -190 78 -237 q 113 -116 78 -142 q 218 -89 148 -89 q 323 -116 288 -89 q 358 -190 358 -142 q 323 -263 358 -237 q 218 -290 288 -290 z "},"Ì":{"ha":438,"x_min":-55,"x_max":338,"o":"m 100 0 l 100 1028 l 338 1028 l 338 0 l 100 0 m 114 1108 l -55 1318 l 190 1318 l 324 1108 l 114 1108 z "},"Ỉ":{"ha":438,"x_min":63,"x_max":402,"o":"m 100 0 l 100 1028 l 338 1028 l 338 0 l 100 0 m 161 1108 q 183 1153 163 1137 q 238 1185 203 1169 q 272 1204 262 1197 q 283 1222 283 1211 q 203 1247 283 1247 q 63 1230 135 1247 l 63 1313 q 138 1326 95 1322 q 219 1331 180 1331 q 357 1307 313 1331 q 402 1238 402 1283 q 382 1189 402 1207 q 327 1152 363 1170 q 290 1130 302 1139 q 276 1108 278 1121 l 161 1108 z "},"Ȋ":{"ha":438,"x_min":-66,"x_max":503,"o":"m 100 0 l 100 1028 l 338 1028 l 338 0 l 100 0 m -66 1114 q 17 1261 -53 1206 q 218 1315 88 1315 q 420 1261 349 1315 q 503 1114 491 1206 l 363 1114 q 318 1181 353 1158 q 218 1204 284 1204 q 118 1181 153 1204 q 75 1114 84 1158 l -66 1114 z "},"Ī":{"ha":438,"x_min":-48,"x_max":485,"o":"m 100 0 l 100 1028 l 338 1028 l 338 0 l 100 0 m -48 1147 l -48 1280 l 485 1280 l 485 1147 l -48 1147 z "},"Į":{"ha":438,"x_min":44,"x_max":378,"o":"m 278 -217 q 378 -196 322 -217 l 378 -284 q 246 -307 313 -307 q 95 -269 147 -307 q 44 -162 44 -231 q 71 -74 44 -114 q 156 0 97 -33 l 100 0 l 100 1028 l 338 1028 l 338 0 q 213 -68 249 -34 q 176 -144 176 -103 q 202 -198 176 -179 q 278 -217 227 -217 z "},"Ĩ":{"ha":438,"x_min":-54,"x_max":492,"o":"m 100 0 l 100 1028 l 338 1028 l 338 0 l 100 0 m 343 1125 q 279 1132 309 1125 q 208 1152 249 1139 q 143 1170 169 1165 q 90 1176 117 1176 q 14 1165 47 1176 q -54 1129 -19 1154 l -54 1256 q 10 1293 -25 1281 q 94 1306 46 1306 q 158 1299 128 1306 q 230 1278 188 1292 q 295 1260 269 1266 q 348 1253 320 1253 q 424 1265 391 1253 q 492 1300 458 1276 l 492 1174 q 427 1137 463 1149 q 343 1125 392 1125 z "},"J":{"ha":438,"x_min":-9,"x_max":338,"o":"m -9 -144 q 77 14 51 -67 q 102 207 102 94 l 102 1028 l 338 1028 l 338 208 q 290 -31 335 76 q 140 -244 245 -137 l -9 -144 z "},"Ĵ":{"ha":438,"x_min":-79,"x_max":518,"o":"m -9 -144 q 77 14 51 -67 q 102 207 102 94 l 102 1028 l 338 1028 l 338 208 q 290 -31 335 76 q 140 -244 245 -137 l -9 -144 m 518 1108 l 334 1108 l 219 1232 l 105 1108 l -79 1108 l 122 1318 l 317 1318 l 518 1108 z "},"K":{"ha":976,"x_min":100,"x_max":1003,"o":"m 744 0 l 442 424 l 338 424 l 338 0 l 100 0 l 100 1028 l 338 1028 l 338 628 l 442 628 l 721 1028 l 972 1028 l 625 531 l 1003 0 l 744 0 z "},"Ķ":{"ha":976,"x_min":100,"x_max":1003,"o":"m 744 0 l 442 424 l 338 424 l 338 0 l 100 0 l 100 1028 l 338 1028 l 338 628 l 442 628 l 721 1028 l 972 1028 l 625 531 l 1003 0 l 744 0 m 511 -89 q 642 -193 642 -89 q 626 -273 642 -231 q 586 -346 611 -315 l 444 -346 q 483 -244 476 -287 q 382 -167 382 -237 q 414 -109 382 -130 q 511 -89 446 -89 z "},"L":{"ha":852,"x_min":100,"x_max":844,"o":"m 100 0 l 100 1028 l 338 1028 l 338 190 l 844 190 l 844 0 l 100 0 z "},"Ǉ":{"ha":1290,"x_min":100,"x_max":1190,"o":"m 100 0 l 100 1028 l 338 1028 l 338 190 l 844 190 l 844 0 l 100 0 m 843 -144 q 929 14 903 -67 q 954 207 954 94 l 954 1028 l 1190 1028 l 1190 208 q 1142 -31 1188 76 q 992 -244 1097 -137 l 843 -144 z "},"Ĺ":{"ha":852,"x_min":100,"x_max":844,"o":"m 100 0 l 100 1028 l 338 1028 l 338 190 l 844 190 l 844 0 l 100 0 m 113 1108 l 247 1318 l 492 1318 l 323 1108 l 113 1108 z "},"Ľ":{"ha":852,"x_min":100,"x_max":844,"o":"m 100 0 l 100 1028 l 338 1028 l 338 190 l 844 190 l 844 0 l 100 0 m 547 792 q 562 942 558 867 q 566 1122 566 1017 l 719 1122 q 670 792 719 931 l 547 792 z "},"Ļ":{"ha":852,"x_min":100,"x_max":844,"o":"m 100 0 l 100 1028 l 338 1028 l 338 190 l 844 190 l 844 0 l 100 0 m 472 -89 q 602 -193 602 -89 q 587 -273 602 -231 q 547 -346 572 -315 l 405 -346 q 444 -244 436 -287 q 342 -167 342 -237 q 374 -109 342 -130 q 472 -89 406 -89 z "},"Ŀ":{"ha":852,"x_min":100,"x_max":844,"o":"m 100 0 l 100 1028 l 338 1028 l 338 190 l 844 190 l 844 0 l 100 0 m 638 494 q 496 610 496 494 q 531 695 496 666 q 638 725 566 725 q 744 695 709 725 q 780 610 780 666 q 638 494 780 494 z "},"Ḷ":{"ha":852,"x_min":100,"x_max":844,"o":"m 100 0 l 100 1028 l 338 1028 l 338 190 l 844 190 l 844 0 l 100 0 m 472 -290 q 367 -263 402 -290 q 333 -190 333 -237 q 367 -116 333 -142 q 472 -89 402 -89 q 577 -116 542 -89 q 612 -190 612 -142 q 577 -263 612 -237 q 472 -290 542 -290 z "},"ǈ":{"ha":1263,"x_min":100,"x_max":1196,"o":"m 100 0 l 100 1028 l 338 1028 l 338 190 l 844 190 l 844 0 l 100 0 m 831 -229 q 917 -71 892 -151 q 942 122 942 9 l 942 760 l 1174 760 l 1174 131 q 1128 -111 1174 -3 q 978 -327 1083 -219 l 831 -229 m 1053 872 q 947 901 982 872 q 911 987 911 931 q 947 1073 911 1044 q 1053 1103 982 1103 q 1160 1073 1125 1103 q 1196 987 1196 1044 q 1160 901 1196 931 q 1053 872 1125 872 z "},"Ḻ":{"ha":852,"x_min":100,"x_max":844,"o":"m 100 0 l 100 1028 l 338 1028 l 338 190 l 844 190 l 844 0 l 100 0 m 206 -251 l 206 -118 l 739 -118 l 739 -251 l 206 -251 z "},"Ł":{"ha":852,"x_min":-32,"x_max":844,"o":"m 338 190 l 844 190 l 844 0 l 100 0 l 100 426 l 35 390 l -32 519 l 100 592 l 100 1028 l 338 1028 l 338 724 l 534 833 l 601 703 l 338 558 l 338 190 z "},"M":{"ha":1377,"x_min":103,"x_max":1274,"o":"m 988 1028 l 1274 1028 l 1274 0 l 1053 0 l 1053 726 l 788 149 l 590 149 l 325 704 l 325 0 l 103 0 l 103 1028 l 390 1028 l 692 380 l 988 1028 z "},"Ṃ":{"ha":1377,"x_min":103,"x_max":1274,"o":"m 988 1028 l 1274 1028 l 1274 0 l 1053 0 l 1053 726 l 788 149 l 590 149 l 325 704 l 325 0 l 103 0 l 103 1028 l 390 1028 l 692 380 l 988 1028 m 703 -290 q 599 -263 633 -290 q 564 -190 564 -237 q 599 -116 564 -142 q 703 -89 633 -89 q 808 -116 774 -89 q 843 -190 843 -142 q 808 -263 843 -237 q 703 -290 774 -290 z "},"N":{"ha":1143,"x_min":100,"x_max":1043,"o":"m 819 1028 l 1043 1028 l 1043 0 l 804 0 l 324 692 l 324 0 l 100 0 l 100 1028 l 339 1028 l 819 336 l 819 1028 z "},"Ǌ":{"ha":1581,"x_min":100,"x_max":1481,"o":"m 819 1028 l 1043 1028 l 1043 0 l 804 0 l 324 692 l 324 0 l 100 0 l 100 1028 l 339 1028 l 819 336 l 819 1028 m 1134 -144 q 1220 14 1194 -67 q 1245 207 1245 94 l 1245 1028 l 1481 1028 l 1481 208 q 1433 -31 1478 76 q 1283 -244 1388 -137 l 1134 -144 z "},"Ń":{"ha":1143,"x_min":100,"x_max":1043,"o":"m 819 1028 l 1043 1028 l 1043 0 l 804 0 l 324 692 l 324 0 l 100 0 l 100 1028 l 339 1028 l 819 336 l 819 1028 m 465 1108 l 599 1318 l 844 1318 l 675 1108 l 465 1108 z "},"Ň":{"ha":1143,"x_min":100,"x_max":1043,"o":"m 819 1028 l 1043 1028 l 1043 0 l 804 0 l 324 692 l 324 0 l 100 0 l 100 1028 l 339 1028 l 819 336 l 819 1028 m 686 1318 l 870 1318 l 669 1108 l 474 1108 l 273 1318 l 457 1318 l 572 1194 l 686 1318 z "},"Ņ":{"ha":1143,"x_min":100,"x_max":1043,"o":"m 819 1028 l 1043 1028 l 1043 0 l 804 0 l 324 692 l 324 0 l 100 0 l 100 1028 l 339 1028 l 819 336 l 819 1028 m 571 -89 q 701 -193 701 -89 q 686 -273 701 -231 q 646 -346 671 -315 l 504 -346 q 543 -244 535 -287 q 442 -167 442 -237 q 474 -109 442 -130 q 571 -89 506 -89 z "},"Ṅ":{"ha":1143,"x_min":100,"x_max":1043,"o":"m 819 1028 l 1043 1028 l 1043 0 l 804 0 l 324 692 l 324 0 l 100 0 l 100 1028 l 339 1028 l 819 336 l 819 1028 m 572 1115 q 467 1142 501 1115 q 432 1216 432 1169 q 467 1290 432 1263 q 572 1316 501 1316 q 676 1290 642 1316 q 711 1216 711 1263 q 676 1142 711 1169 q 572 1115 642 1115 z "},"Ṇ":{"ha":1143,"x_min":100,"x_max":1043,"o":"m 819 1028 l 1043 1028 l 1043 0 l 804 0 l 324 692 l 324 0 l 100 0 l 100 1028 l 339 1028 l 819 336 l 819 1028 m 572 -290 q 467 -263 501 -290 q 432 -190 432 -237 q 467 -116 432 -142 q 572 -89 501 -89 q 676 -116 642 -89 q 711 -190 711 -142 q 676 -263 711 -237 q 572 -290 642 -290 z "},"Ŋ":{"ha":1143,"x_min":100,"x_max":1043,"o":"m 1043 1028 l 1043 151 q 1024 -29 1043 51 q 961 -181 1004 -109 q 847 -327 919 -253 l 700 -229 q 770 -120 744 -174 q 808 -4 797 -66 l 324 692 l 324 0 l 100 0 l 100 1028 l 339 1028 l 819 339 l 819 1028 l 1043 1028 z "},"ǋ":{"ha":1554,"x_min":100,"x_max":1487,"o":"m 819 1028 l 1043 1028 l 1043 0 l 804 0 l 324 692 l 324 0 l 100 0 l 100 1028 l 339 1028 l 819 336 l 819 1028 m 1122 -229 q 1208 -71 1183 -151 q 1233 122 1233 9 l 1233 760 l 1465 760 l 1465 131 q 1419 -111 1465 -3 q 1269 -327 1374 -219 l 1122 -229 m 1344 872 q 1238 901 1273 872 q 1202 987 1202 931 q 1238 1073 1202 1044 q 1344 1103 1273 1103 q 1451 1073 1416 1103 q 1487 987 1487 1044 q 1451 901 1487 931 q 1344 872 1416 872 z "},"Ṉ":{"ha":1143,"x_min":100,"x_max":1043,"o":"m 819 1028 l 1043 1028 l 1043 0 l 804 0 l 324 692 l 324 0 l 100 0 l 100 1028 l 339 1028 l 819 336 l 819 1028 m 305 -251 l 305 -118 l 838 -118 l 838 -251 l 305 -251 z "},"Ñ":{"ha":1143,"x_min":100,"x_max":1043,"o":"m 819 1028 l 1043 1028 l 1043 0 l 804 0 l 324 692 l 324 0 l 100 0 l 100 1028 l 339 1028 l 819 336 l 819 1028 m 696 1125 q 632 1132 662 1125 q 560 1152 602 1139 q 496 1170 522 1165 q 442 1176 470 1176 q 366 1165 399 1176 q 299 1129 333 1154 l 299 1256 q 363 1293 328 1281 q 447 1306 399 1306 q 511 1299 481 1306 q 583 1278 541 1292 q 648 1260 622 1266 q 701 1253 673 1253 q 777 1265 744 1253 q 844 1300 810 1276 l 844 1174 q 780 1137 815 1149 q 696 1125 745 1125 z "},"O":{"ha":1168,"x_min":64,"x_max":1104,"o":"m 584 -13 q 307 47 424 -13 q 127 225 190 106 q 64 514 64 343 q 127 803 64 685 q 307 981 190 922 q 584 1041 424 1041 q 861 981 744 1041 q 1041 802 978 921 q 1104 514 1104 684 q 1041 225 1104 344 q 861 47 978 107 q 584 -13 744 -13 m 584 175 q 790 257 719 175 q 862 509 862 339 q 790 769 862 685 q 584 853 718 853 q 378 771 451 853 q 306 519 306 690 q 377 258 306 340 q 584 175 449 175 z "},"Ó":{"ha":1168,"x_min":64,"x_max":1104,"o":"m 584 -13 q 307 47 424 -13 q 127 225 190 106 q 64 514 64 343 q 127 803 64 685 q 307 981 190 922 q 584 1041 424 1041 q 861 981 744 1041 q 1041 802 978 921 q 1104 514 1104 684 q 1041 225 1104 344 q 861 47 978 107 q 584 -13 744 -13 m 584 175 q 790 257 719 175 q 862 509 862 339 q 790 769 862 685 q 584 853 718 853 q 378 771 451 853 q 306 519 306 690 q 377 258 306 340 q 584 175 449 175 m 477 1108 l 611 1318 l 856 1318 l 688 1108 l 477 1108 z "},"Ŏ":{"ha":1168,"x_min":64,"x_max":1104,"o":"m 584 -13 q 307 47 424 -13 q 127 225 190 106 q 64 514 64 343 q 127 803 64 685 q 307 981 190 922 q 584 1041 424 1041 q 861 981 744 1041 q 1041 802 978 921 q 1104 514 1104 684 q 1041 225 1104 344 q 861 47 978 107 q 584 -13 744 -13 m 584 175 q 790 257 719 175 q 862 509 862 339 q 790 769 862 685 q 584 853 718 853 q 378 771 451 853 q 306 519 306 690 q 377 258 306 340 q 584 175 449 175 m 585 1110 q 383 1165 454 1110 q 299 1312 312 1219 l 440 1312 q 484 1244 450 1267 q 585 1222 519 1222 q 684 1245 650 1222 q 728 1312 719 1268 l 869 1312 q 786 1165 856 1219 q 585 1110 715 1110 z "},"Ô":{"ha":1168,"x_min":64,"x_max":1104,"o":"m 584 -13 q 307 47 424 -13 q 127 225 190 106 q 64 514 64 343 q 127 803 64 685 q 307 981 190 922 q 584 1041 424 1041 q 861 981 744 1041 q 1041 802 978 921 q 1104 514 1104 684 q 1041 225 1104 344 q 861 47 978 107 q 584 -13 744 -13 m 584 175 q 790 257 719 175 q 862 509 862 339 q 790 769 862 685 q 584 853 718 853 q 378 771 451 853 q 306 519 306 690 q 377 258 306 340 q 584 175 449 175 m 883 1108 l 699 1108 l 584 1232 l 469 1108 l 285 1108 l 486 1318 l 682 1318 l 883 1108 z "},"Ố":{"ha":1168,"x_min":64,"x_max":1104,"o":"m 584 -13 q 307 47 424 -13 q 127 225 190 106 q 64 514 64 343 q 127 803 64 685 q 307 981 190 922 q 584 1041 424 1041 q 861 981 744 1041 q 1041 802 978 921 q 1104 514 1104 684 q 1041 225 1104 344 q 861 47 978 107 q 584 -13 744 -13 m 584 175 q 790 257 719 175 q 862 509 862 339 q 790 769 862 685 q 584 853 718 853 q 378 771 451 853 q 306 519 306 690 q 377 258 306 340 q 584 175 449 175 m 854 1433 l 1017 1433 l 899 1262 l 766 1262 l 854 1433 m 486 1297 l 682 1297 l 883 1108 l 699 1108 l 584 1221 l 469 1108 l 285 1108 l 486 1297 z "},"Ộ":{"ha":1168,"x_min":64,"x_max":1104,"o":"m 584 -13 q 307 47 424 -13 q 127 225 190 106 q 64 514 64 343 q 127 803 64 685 q 307 981 190 922 q 584 1041 424 1041 q 861 981 744 1041 q 1041 802 978 921 q 1104 514 1104 684 q 1041 225 1104 344 q 861 47 978 107 q 584 -13 744 -13 m 584 175 q 790 257 719 175 q 862 509 862 339 q 790 769 862 685 q 584 853 718 853 q 378 771 451 853 q 306 519 306 690 q 377 258 306 340 q 584 175 449 175 m 584 -290 q 479 -263 514 -290 q 444 -190 444 -237 q 479 -116 444 -142 q 584 -89 514 -89 q 689 -116 654 -89 q 724 -190 724 -142 q 689 -263 724 -237 q 584 -290 654 -290 m 883 1108 l 699 1108 l 584 1232 l 469 1108 l 285 1108 l 486 1318 l 682 1318 l 883 1108 z "},"Ồ":{"ha":1168,"x_min":64,"x_max":1104,"o":"m 584 -13 q 307 47 424 -13 q 127 225 190 106 q 64 514 64 343 q 127 803 64 685 q 307 981 190 922 q 584 1041 424 1041 q 861 981 744 1041 q 1041 802 978 921 q 1104 514 1104 684 q 1041 225 1104 344 q 861 47 978 107 q 584 -13 744 -13 m 584 175 q 790 257 719 175 q 862 509 862 339 q 790 769 862 685 q 584 853 718 853 q 378 771 451 853 q 306 519 306 690 q 377 258 306 340 q 584 175 449 175 m 922 1262 l 790 1262 l 671 1433 l 834 1433 l 922 1262 m 486 1297 l 682 1297 l 883 1108 l 699 1108 l 584 1221 l 469 1108 l 285 1108 l 486 1297 z "},"Ổ":{"ha":1168,"x_min":64,"x_max":1104,"o":"m 584 -13 q 307 47 424 -13 q 127 225 190 106 q 64 514 64 343 q 127 803 64 685 q 307 981 190 922 q 584 1041 424 1041 q 861 981 744 1041 q 1041 802 978 921 q 1104 514 1104 684 q 1041 225 1104 344 q 861 47 978 107 q 584 -13 744 -13 m 584 175 q 790 257 719 175 q 862 509 862 339 q 790 769 862 685 q 584 853 718 853 q 378 771 451 853 q 306 519 306 690 q 377 258 306 340 q 584 175 449 175 m 824 1463 q 961 1441 916 1463 q 1006 1378 1006 1419 q 987 1335 1006 1351 q 932 1302 967 1319 q 895 1282 908 1291 q 881 1262 883 1274 l 765 1262 q 786 1303 767 1288 q 842 1332 806 1317 q 876 1348 865 1341 q 887 1365 887 1356 q 807 1388 887 1388 q 668 1372 738 1388 l 668 1445 q 742 1458 700 1453 q 824 1463 785 1463 m 486 1297 l 682 1297 l 883 1108 l 699 1108 l 584 1221 l 469 1108 l 285 1108 l 486 1297 z "},"Ỗ":{"ha":1168,"x_min":64,"x_max":1104,"o":"m 584 -13 q 307 47 424 -13 q 127 225 190 106 q 64 514 64 343 q 127 803 64 685 q 307 981 190 922 q 584 1041 424 1041 q 861 981 744 1041 q 1041 802 978 921 q 1104 514 1104 684 q 1041 225 1104 344 q 861 47 978 107 q 584 -13 744 -13 m 584 175 q 790 257 719 175 q 862 509 862 339 q 790 769 862 685 q 584 853 718 853 q 378 771 451 853 q 306 519 306 690 q 377 258 306 340 q 584 175 449 175 m 718 1419 q 798 1430 761 1419 q 883 1466 835 1440 l 883 1369 q 804 1335 842 1344 q 716 1326 765 1326 q 645 1333 679 1326 q 568 1350 612 1339 q 501 1365 526 1360 q 450 1369 476 1369 q 370 1359 408 1369 q 285 1323 333 1349 l 285 1419 q 365 1453 326 1444 q 452 1463 404 1463 q 522 1457 489 1463 q 600 1439 554 1451 q 665 1424 639 1428 q 718 1419 692 1419 m 486 1297 l 682 1297 l 883 1108 l 699 1108 l 584 1221 l 469 1108 l 285 1108 l 486 1297 z "},"Ȍ":{"ha":1168,"x_min":64,"x_max":1104,"o":"m 584 -13 q 307 47 424 -13 q 127 225 190 106 q 64 514 64 343 q 127 803 64 685 q 307 981 190 922 q 584 1041 424 1041 q 861 981 744 1041 q 1041 802 978 921 q 1104 514 1104 684 q 1041 225 1104 344 q 861 47 978 107 q 584 -13 744 -13 m 584 175 q 790 257 719 175 q 862 509 862 339 q 790 769 862 685 q 584 853 718 853 q 378 771 451 853 q 306 519 306 690 q 377 258 306 340 q 584 175 449 175 m 356 1108 l 241 1318 l 421 1318 l 524 1108 l 356 1108 m 644 1108 l 530 1318 l 709 1318 l 812 1108 l 644 1108 z "},"Ö":{"ha":1168,"x_min":64,"x_max":1104,"o":"m 584 -13 q 307 47 424 -13 q 127 225 190 106 q 64 514 64 343 q 127 803 64 685 q 307 981 190 922 q 584 1041 424 1041 q 861 981 744 1041 q 1041 802 978 921 q 1104 514 1104 684 q 1041 225 1104 344 q 861 47 978 107 q 584 -13 744 -13 m 584 175 q 790 257 719 175 q 862 509 862 339 q 790 769 862 685 q 584 853 718 853 q 378 771 451 853 q 306 519 306 690 q 377 258 306 340 q 584 175 449 175 m 397 1115 q 306 1142 337 1115 q 276 1216 276 1168 q 306 1290 276 1264 q 397 1316 336 1316 q 488 1290 458 1316 q 519 1216 519 1264 q 488 1142 519 1168 q 397 1115 458 1115 m 771 1115 q 680 1142 710 1115 q 649 1216 649 1168 q 680 1290 649 1264 q 771 1316 710 1316 q 862 1290 832 1316 q 892 1216 892 1264 q 862 1142 892 1168 q 771 1115 831 1115 z "},"Ȫ":{"ha":1168,"x_min":64,"x_max":1104,"o":"m 584 -13 q 307 47 424 -13 q 127 225 190 106 q 64 514 64 343 q 127 803 64 685 q 307 981 190 922 q 584 1041 424 1041 q 861 981 744 1041 q 1041 802 978 921 q 1104 514 1104 684 q 1041 225 1104 344 q 861 47 978 107 q 584 -13 744 -13 m 584 175 q 790 257 719 175 q 862 509 862 339 q 790 769 862 685 q 584 853 718 853 q 378 771 451 853 q 306 519 306 690 q 377 258 306 340 q 584 175 449 175 m 397 1115 q 306 1142 337 1115 q 276 1216 276 1168 q 306 1290 276 1264 q 397 1316 336 1316 q 488 1290 458 1316 q 519 1216 519 1264 q 488 1142 519 1168 q 397 1115 458 1115 m 771 1115 q 680 1142 710 1115 q 649 1216 649 1168 q 680 1290 649 1264 q 771 1316 710 1316 q 862 1290 832 1316 q 892 1216 892 1264 q 862 1142 892 1168 q 771 1115 831 1115 m 317 1388 l 317 1522 l 851 1522 l 851 1388 l 317 1388 z "},"Ȱ":{"ha":1168,"x_min":64,"x_max":1104,"o":"m 584 -13 q 307 47 424 -13 q 127 225 190 106 q 64 514 64 343 q 127 803 64 685 q 307 981 190 922 q 584 1041 424 1041 q 861 981 744 1041 q 1041 802 978 921 q 1104 514 1104 684 q 1041 225 1104 344 q 861 47 978 107 q 584 -13 744 -13 m 584 175 q 790 257 719 175 q 862 509 862 339 q 790 769 862 685 q 584 853 718 853 q 378 771 451 853 q 306 519 306 690 q 377 258 306 340 q 584 175 449 175 m 584 1115 q 479 1142 514 1115 q 444 1216 444 1169 q 479 1290 444 1263 q 584 1316 514 1316 q 689 1290 654 1316 q 724 1216 724 1263 q 689 1142 724 1169 q 584 1115 654 1115 m 317 1388 l 317 1522 l 851 1522 l 851 1388 l 317 1388 z "},"Ọ":{"ha":1168,"x_min":64,"x_max":1104,"o":"m 584 -13 q 307 47 424 -13 q 127 225 190 106 q 64 514 64 343 q 127 803 64 685 q 307 981 190 922 q 584 1041 424 1041 q 861 981 744 1041 q 1041 802 978 921 q 1104 514 1104 684 q 1041 225 1104 344 q 861 47 978 107 q 584 -13 744 -13 m 584 175 q 790 257 719 175 q 862 509 862 339 q 790 769 862 685 q 584 853 718 853 q 378 771 451 853 q 306 519 306 690 q 377 258 306 340 q 584 175 449 175 m 584 -290 q 479 -263 514 -290 q 444 -190 444 -237 q 479 -116 444 -142 q 584 -89 514 -89 q 689 -116 654 -89 q 724 -190 724 -142 q 689 -263 724 -237 q 584 -290 654 -290 z "},"Ò":{"ha":1168,"x_min":64,"x_max":1104,"o":"m 584 -13 q 307 47 424 -13 q 127 225 190 106 q 64 514 64 343 q 127 803 64 685 q 307 981 190 922 q 584 1041 424 1041 q 861 981 744 1041 q 1041 802 978 921 q 1104 514 1104 684 q 1041 225 1104 344 q 861 47 978 107 q 584 -13 744 -13 m 584 175 q 790 257 719 175 q 862 509 862 339 q 790 769 862 685 q 584 853 718 853 q 378 771 451 853 q 306 519 306 690 q 377 258 306 340 q 584 175 449 175 m 479 1108 l 310 1318 l 556 1318 l 689 1108 l 479 1108 z "},"Ỏ":{"ha":1168,"x_min":64,"x_max":1104,"o":"m 584 -13 q 307 47 424 -13 q 127 225 190 106 q 64 514 64 343 q 127 803 64 685 q 307 981 190 922 q 584 1041 424 1041 q 861 981 744 1041 q 1041 802 978 921 q 1104 514 1104 684 q 1041 225 1104 344 q 861 47 978 107 q 584 -13 744 -13 m 584 175 q 790 257 719 175 q 862 509 862 339 q 790 769 862 685 q 584 853 718 853 q 378 771 451 853 q 306 519 306 690 q 377 258 306 340 q 584 175 449 175 m 526 1108 q 548 1153 528 1137 q 603 1185 568 1169 q 638 1204 627 1197 q 648 1222 648 1211 q 568 1247 648 1247 q 428 1230 501 1247 l 428 1313 q 503 1326 460 1322 q 585 1331 545 1331 q 723 1307 678 1331 q 767 1238 767 1283 q 748 1189 767 1207 q 692 1152 728 1170 q 656 1130 667 1139 q 642 1108 644 1121 l 526 1108 z "},"Ơ":{"ha":1168,"x_min":64,"x_max":1113,"o":"m 946 924 q 1064 755 1023 858 q 1104 514 1104 651 q 1041 225 1104 343 q 861 47 978 106 q 584 -13 744 -13 q 307 47 424 -13 q 127 225 190 106 q 64 514 64 343 q 127 803 64 685 q 307 981 190 922 q 584 1041 424 1041 q 659 1038 620 1041 q 706 1033 699 1034 q 816 1026 782 1026 q 923 1052 888 1026 q 958 1135 958 1077 q 946 1233 958 1176 l 1098 1233 q 1109 1181 1106 1206 q 1113 1128 1113 1157 q 1069 989 1113 1041 q 946 924 1025 938 m 584 175 q 790 257 719 175 q 862 509 862 339 q 790 769 862 685 q 584 853 718 853 q 378 771 451 853 q 306 519 306 690 q 377 258 306 340 q 584 175 449 175 z "},"Ớ":{"ha":1168,"x_min":64,"x_max":1113,"o":"m 946 924 q 1064 755 1023 858 q 1104 514 1104 651 q 1041 225 1104 343 q 861 47 978 106 q 584 -13 744 -13 q 307 47 424 -13 q 127 225 190 106 q 64 514 64 343 q 127 803 64 685 q 307 981 190 922 q 584 1041 424 1041 q 659 1038 620 1041 q 706 1033 699 1034 q 816 1026 782 1026 q 923 1052 888 1026 q 958 1135 958 1077 q 946 1233 958 1176 l 1098 1233 q 1109 1181 1106 1206 q 1113 1128 1113 1157 q 1069 989 1113 1041 q 946 924 1025 938 m 584 175 q 790 257 719 175 q 862 509 862 339 q 790 769 862 685 q 584 853 718 853 q 378 771 451 853 q 306 519 306 690 q 377 258 306 340 q 584 175 449 175 m 477 1108 l 611 1318 l 856 1318 l 688 1108 l 477 1108 z "},"Ợ":{"ha":1168,"x_min":64,"x_max":1113,"o":"m 946 924 q 1064 755 1023 858 q 1104 514 1104 651 q 1041 225 1104 343 q 861 47 978 106 q 584 -13 744 -13 q 307 47 424 -13 q 127 225 190 106 q 64 514 64 343 q 127 803 64 685 q 307 981 190 922 q 584 1041 424 1041 q 659 1038 620 1041 q 706 1033 699 1034 q 816 1026 782 1026 q 923 1052 888 1026 q 958 1135 958 1077 q 946 1233 958 1176 l 1098 1233 q 1109 1181 1106 1206 q 1113 1128 1113 1157 q 1069 989 1113 1041 q 946 924 1025 938 m 584 175 q 790 257 719 175 q 862 509 862 339 q 790 769 862 685 q 584 853 718 853 q 378 771 451 853 q 306 519 306 690 q 377 258 306 340 q 584 175 449 175 m 584 -290 q 479 -263 514 -290 q 444 -190 444 -237 q 479 -116 444 -142 q 584 -89 514 -89 q 689 -116 654 -89 q 724 -190 724 -142 q 689 -263 724 -237 q 584 -290 654 -290 z "},"Ờ":{"ha":1168,"x_min":64,"x_max":1113,"o":"m 946 924 q 1064 755 1023 858 q 1104 514 1104 651 q 1041 225 1104 343 q 861 47 978 106 q 584 -13 744 -13 q 307 47 424 -13 q 127 225 190 106 q 64 514 64 343 q 127 803 64 685 q 307 981 190 922 q 584 1041 424 1041 q 659 1038 620 1041 q 706 1033 699 1034 q 816 1026 782 1026 q 923 1052 888 1026 q 958 1135 958 1077 q 946 1233 958 1176 l 1098 1233 q 1109 1181 1106 1206 q 1113 1128 1113 1157 q 1069 989 1113 1041 q 946 924 1025 938 m 584 175 q 790 257 719 175 q 862 509 862 339 q 790 769 862 685 q 584 853 718 853 q 378 771 451 853 q 306 519 306 690 q 377 258 306 340 q 584 175 449 175 m 479 1108 l 310 1318 l 556 1318 l 689 1108 l 479 1108 z "},"Ở":{"ha":1168,"x_min":64,"x_max":1113,"o":"m 946 924 q 1064 755 1023 858 q 1104 514 1104 651 q 1041 225 1104 343 q 861 47 978 106 q 584 -13 744 -13 q 307 47 424 -13 q 127 225 190 106 q 64 514 64 343 q 127 803 64 685 q 307 981 190 922 q 584 1041 424 1041 q 659 1038 620 1041 q 706 1033 699 1034 q 816 1026 782 1026 q 923 1052 888 1026 q 958 1135 958 1077 q 946 1233 958 1176 l 1098 1233 q 1109 1181 1106 1206 q 1113 1128 1113 1157 q 1069 989 1113 1041 q 946 924 1025 938 m 584 175 q 790 257 719 175 q 862 509 862 339 q 790 769 862 685 q 584 853 718 853 q 378 771 451 853 q 306 519 306 690 q 377 258 306 340 q 584 175 449 175 m 526 1108 q 548 1153 528 1137 q 603 1185 568 1169 q 638 1204 627 1197 q 648 1222 648 1211 q 568 1247 648 1247 q 428 1230 501 1247 l 428 1313 q 503 1326 460 1322 q 585 1331 545 1331 q 723 1307 678 1331 q 767 1238 767 1283 q 748 1189 767 1207 q 692 1152 728 1170 q 656 1130 667 1139 q 642 1108 644 1121 l 526 1108 z "},"Ỡ":{"ha":1168,"x_min":64,"x_max":1113,"o":"m 707 1125 q 643 1132 673 1125 q 572 1152 614 1139 q 509 1170 535 1165 q 456 1176 484 1176 q 381 1165 414 1176 q 314 1129 349 1154 l 314 1256 q 378 1293 343 1281 q 461 1306 413 1306 q 524 1299 494 1306 q 595 1278 553 1292 q 659 1260 634 1266 q 712 1253 684 1253 q 788 1265 755 1253 q 854 1300 820 1276 l 854 1174 q 790 1137 825 1149 q 707 1125 755 1125 m 946 924 q 1064 755 1023 858 q 1104 514 1104 651 q 1041 225 1104 343 q 861 47 978 106 q 584 -13 744 -13 q 307 47 424 -13 q 127 225 190 106 q 64 514 64 343 q 127 803 64 685 q 307 981 190 922 q 584 1041 424 1041 q 659 1038 620 1041 q 706 1033 699 1034 q 816 1026 782 1026 q 923 1052 888 1026 q 958 1135 958 1077 q 946 1233 958 1176 l 1098 1233 q 1109 1181 1106 1206 q 1113 1128 1113 1157 q 1069 989 1113 1041 q 946 924 1025 938 m 584 175 q 790 257 719 175 q 862 509 862 339 q 790 769 862 685 q 584 853 718 853 q 378 771 451 853 q 306 519 306 690 q 377 258 306 340 q 584 175 449 175 z "},"Ő":{"ha":1168,"x_min":64,"x_max":1104,"o":"m 584 -13 q 307 47 424 -13 q 127 225 190 106 q 64 514 64 343 q 127 803 64 685 q 307 981 190 922 q 584 1041 424 1041 q 861 981 744 1041 q 1041 802 978 921 q 1104 514 1104 684 q 1041 225 1104 344 q 861 47 978 107 q 584 -13 744 -13 m 584 175 q 790 257 719 175 q 862 509 862 339 q 790 769 862 685 q 584 853 718 853 q 378 771 451 853 q 306 519 306 690 q 377 258 306 340 q 584 175 449 175 m 356 1108 l 459 1318 l 638 1318 l 524 1108 l 356 1108 m 644 1108 l 747 1318 l 927 1318 l 812 1108 l 644 1108 z "},"Ȏ":{"ha":1168,"x_min":64,"x_max":1104,"o":"m 584 -13 q 307 47 424 -13 q 127 225 190 106 q 64 514 64 343 q 127 803 64 685 q 307 981 190 922 q 584 1041 424 1041 q 861 981 744 1041 q 1041 802 978 921 q 1104 514 1104 684 q 1041 225 1104 344 q 861 47 978 107 q 584 -13 744 -13 m 584 175 q 790 257 719 175 q 862 509 862 339 q 790 769 862 685 q 584 853 718 853 q 378 771 451 853 q 306 519 306 690 q 377 258 306 340 q 584 175 449 175 m 299 1114 q 383 1261 312 1206 q 583 1315 453 1315 q 785 1261 714 1315 q 869 1114 856 1206 l 728 1114 q 684 1181 718 1158 q 583 1204 649 1204 q 484 1181 518 1204 q 440 1114 449 1158 l 299 1114 z "},"Ō":{"ha":1168,"x_min":64,"x_max":1104,"o":"m 584 -13 q 307 47 424 -13 q 127 225 190 106 q 64 514 64 343 q 127 803 64 685 q 307 981 190 922 q 584 1041 424 1041 q 861 981 744 1041 q 1041 802 978 921 q 1104 514 1104 684 q 1041 225 1104 344 q 861 47 978 107 q 584 -13 744 -13 m 584 175 q 790 257 719 175 q 862 509 862 339 q 790 769 862 685 q 584 853 718 853 q 378 771 451 853 q 306 519 306 690 q 377 258 306 340 q 584 175 449 175 m 317 1147 l 317 1280 l 851 1280 l 851 1147 l 317 1147 z "},"Ṓ":{"ha":1168,"x_min":64,"x_max":1104,"o":"m 584 -13 q 307 47 424 -13 q 127 225 190 106 q 64 514 64 343 q 127 803 64 685 q 307 981 190 922 q 584 1041 424 1041 q 861 981 744 1041 q 1041 802 978 921 q 1104 514 1104 684 q 1041 225 1104 344 q 861 47 978 107 q 584 -13 744 -13 m 584 175 q 790 257 719 175 q 862 509 862 339 q 790 769 862 685 q 584 853 718 853 q 378 771 451 853 q 306 519 306 690 q 377 258 306 340 q 584 175 449 175 m 465 1358 l 599 1519 l 872 1519 l 703 1358 l 465 1358 m 317 1147 l 317 1280 l 851 1280 l 851 1147 l 317 1147 z "},"Ṑ":{"ha":1168,"x_min":64,"x_max":1104,"o":"m 584 -13 q 307 47 424 -13 q 127 225 190 106 q 64 514 64 343 q 127 803 64 685 q 307 981 190 922 q 584 1041 424 1041 q 861 981 744 1041 q 1041 802 978 921 q 1104 514 1104 684 q 1041 225 1104 344 q 861 47 978 107 q 584 -13 744 -13 m 584 175 q 790 257 719 175 q 862 509 862 339 q 790 769 862 685 q 584 853 718 853 q 378 771 451 853 q 306 519 306 690 q 377 258 306 340 q 584 175 449 175 m 465 1358 l 297 1519 l 569 1519 l 703 1358 l 465 1358 m 317 1147 l 317 1280 l 851 1280 l 851 1147 l 317 1147 z "},"Ǫ":{"ha":1168,"x_min":64,"x_max":1104,"o":"m 756 8 q 608 -60 651 -22 q 565 -144 565 -99 q 590 -198 565 -179 q 667 -217 615 -217 q 767 -196 710 -217 l 767 -284 q 635 -307 702 -307 q 484 -269 535 -307 q 433 -162 433 -231 q 527 -11 433 -68 q 280 62 383 -1 q 120 239 176 124 q 64 514 64 353 q 127 803 64 685 q 307 981 190 922 q 584 1041 424 1041 q 861 981 744 1041 q 1041 803 978 922 q 1104 514 1104 685 q 1059 265 1104 369 q 935 97 1013 160 q 756 8 857 34 m 306 519 q 377 258 306 340 q 584 175 449 175 q 790 257 719 175 q 862 509 862 339 q 790 769 862 685 q 584 853 718 853 q 378 771 451 853 q 306 519 306 690 z "},"Ø":{"ha":1168,"x_min":64,"x_max":1104,"o":"m 980 890 q 1072 728 1040 823 q 1104 514 1104 634 q 1041 225 1104 344 q 861 47 978 107 q 584 -13 744 -13 q 281 61 405 -13 l 201 -33 l 110 45 l 188 138 q 95 299 127 205 q 64 514 64 394 q 127 803 64 685 q 307 981 190 922 q 584 1041 424 1041 q 887 967 763 1041 l 967 1061 l 1058 983 l 980 890 m 306 519 q 340 319 306 397 l 751 806 q 584 853 686 853 q 378 771 451 853 q 306 519 306 690 m 584 175 q 790 257 719 175 q 862 509 862 339 q 827 708 862 631 l 416 222 q 584 175 481 175 z "},"Ǿ":{"ha":1168,"x_min":64,"x_max":1104,"o":"m 980 890 q 1072 728 1040 823 q 1104 514 1104 634 q 1041 225 1104 344 q 861 47 978 107 q 584 -13 744 -13 q 281 61 405 -13 l 201 -33 l 110 45 l 188 138 q 95 299 127 205 q 64 514 64 394 q 127 803 64 685 q 307 981 190 922 q 584 1041 424 1041 q 887 967 763 1041 l 967 1061 l 1058 983 l 980 890 m 306 519 q 340 319 306 397 l 751 806 q 584 853 686 853 q 378 771 451 853 q 306 519 306 690 m 584 175 q 790 257 719 175 q 862 509 862 339 q 827 708 862 631 l 416 222 q 584 175 481 175 m 474 1108 l 608 1318 l 853 1318 l 685 1108 l 474 1108 z "},"Õ":{"ha":1168,"x_min":64,"x_max":1104,"o":"m 584 -13 q 307 47 424 -13 q 127 225 190 106 q 64 514 64 343 q 127 803 64 685 q 307 981 190 922 q 584 1041 424 1041 q 861 981 744 1041 q 1041 802 978 921 q 1104 514 1104 684 q 1041 225 1104 344 q 861 47 978 107 q 584 -13 744 -13 m 584 175 q 790 257 719 175 q 862 509 862 339 q 790 769 862 685 q 584 853 718 853 q 378 771 451 853 q 306 519 306 690 q 377 258 306 340 q 584 175 449 175 m 708 1125 q 644 1132 674 1125 q 573 1152 615 1139 q 509 1170 535 1165 q 455 1176 483 1176 q 379 1165 412 1176 q 311 1129 346 1154 l 311 1256 q 376 1293 340 1281 q 460 1306 411 1306 q 524 1299 494 1306 q 595 1278 553 1292 q 660 1260 635 1266 q 713 1253 685 1253 q 790 1265 756 1253 q 857 1300 823 1276 l 857 1174 q 793 1137 828 1149 q 708 1125 758 1125 z "},"Ṍ":{"ha":1168,"x_min":64,"x_max":1104,"o":"m 584 -13 q 307 47 424 -13 q 127 225 190 106 q 64 514 64 343 q 127 803 64 685 q 307 981 190 922 q 584 1041 424 1041 q 861 981 744 1041 q 1041 802 978 921 q 1104 514 1104 684 q 1041 225 1104 344 q 861 47 978 107 q 584 -13 744 -13 m 584 175 q 790 257 719 175 q 862 509 862 339 q 790 769 862 685 q 584 853 718 853 q 378 771 451 853 q 306 519 306 690 q 377 258 306 340 q 584 175 449 175 m 465 1358 l 599 1519 l 872 1519 l 703 1358 l 465 1358 m 708 1125 q 644 1132 674 1125 q 573 1152 615 1139 q 509 1170 535 1165 q 455 1176 483 1176 q 379 1165 412 1176 q 311 1129 346 1154 l 311 1256 q 376 1293 340 1281 q 460 1306 411 1306 q 524 1299 494 1306 q 595 1278 553 1292 q 660 1260 635 1266 q 713 1253 685 1253 q 790 1265 756 1253 q 857 1300 823 1276 l 857 1174 q 793 1137 828 1149 q 708 1125 758 1125 z "},"Ṏ":{"ha":1168,"x_min":64,"x_max":1104,"o":"m 584 -13 q 307 47 424 -13 q 127 225 190 106 q 64 514 64 343 q 127 803 64 685 q 307 981 190 922 q 584 1041 424 1041 q 861 981 744 1041 q 1041 802 978 921 q 1104 514 1104 684 q 1041 225 1104 344 q 861 47 978 107 q 584 -13 744 -13 m 584 175 q 790 257 719 175 q 862 509 862 339 q 790 769 862 685 q 584 853 718 853 q 378 771 451 853 q 306 519 306 690 q 377 258 306 340 q 584 175 449 175 m 708 1125 q 644 1132 674 1125 q 573 1152 615 1139 q 509 1170 535 1165 q 455 1176 483 1176 q 379 1165 412 1176 q 311 1129 346 1154 l 311 1256 q 376 1293 340 1281 q 460 1306 411 1306 q 524 1299 494 1306 q 595 1278 553 1292 q 660 1260 635 1266 q 713 1253 685 1253 q 790 1265 756 1253 q 857 1300 823 1276 l 857 1174 q 793 1137 828 1149 q 708 1125 758 1125 m 397 1357 q 306 1383 337 1357 q 276 1458 276 1410 q 306 1532 276 1506 q 397 1558 336 1558 q 488 1532 458 1558 q 519 1458 519 1506 q 488 1383 519 1410 q 397 1357 458 1357 m 771 1357 q 680 1383 710 1357 q 649 1458 649 1410 q 680 1532 649 1506 q 771 1558 710 1558 q 862 1532 832 1558 q 892 1458 892 1506 q 862 1383 892 1410 q 771 1357 831 1357 z "},"Ȭ":{"ha":1168,"x_min":64,"x_max":1104,"o":"m 584 -13 q 307 47 424 -13 q 127 225 190 106 q 64 514 64 343 q 127 803 64 685 q 307 981 190 922 q 584 1041 424 1041 q 861 981 744 1041 q 1041 802 978 921 q 1104 514 1104 684 q 1041 225 1104 344 q 861 47 978 107 q 584 -13 744 -13 m 584 175 q 790 257 719 175 q 862 509 862 339 q 790 769 862 685 q 584 853 718 853 q 378 771 451 853 q 306 519 306 690 q 377 258 306 340 q 584 175 449 175 m 708 1125 q 644 1132 674 1125 q 573 1152 615 1139 q 509 1170 535 1165 q 455 1176 483 1176 q 379 1165 412 1176 q 311 1129 346 1154 l 311 1256 q 376 1293 340 1281 q 460 1306 411 1306 q 524 1299 494 1306 q 595 1278 553 1292 q 660 1260 635 1266 q 713 1253 685 1253 q 790 1265 756 1253 q 857 1300 823 1276 l 857 1174 q 793 1137 828 1149 q 708 1125 758 1125 m 317 1388 l 317 1522 l 851 1522 l 851 1388 l 317 1388 z "},"Œ":{"ha":1577,"x_min":64,"x_max":1522,"o":"m 1522 182 l 1522 0 l 935 0 q 816 -4 897 0 q 703 -8 737 -8 q 343 46 484 -8 q 133 215 203 100 q 64 514 64 331 q 222 909 64 781 q 693 1038 380 1038 q 813 1033 741 1038 q 863 1030 824 1032 q 933 1028 901 1028 l 1515 1028 l 1515 846 l 1003 846 l 1003 617 l 1444 617 l 1444 435 l 1003 435 l 1003 182 l 1522 182 m 769 842 q 644 847 721 847 q 388 767 471 847 q 305 513 305 688 q 389 260 305 340 q 646 181 472 181 q 769 185 726 181 l 769 842 z "},"P":{"ha":967,"x_min":100,"x_max":910,"o":"m 100 1009 q 429 1040 264 1040 q 791 950 672 1040 q 910 669 910 860 q 793 391 910 485 q 444 297 676 297 q 401 298 426 297 q 365 299 377 299 l 338 301 l 338 0 l 100 0 l 100 1009 m 447 468 q 580 489 528 468 q 656 553 631 509 q 681 668 681 597 q 625 822 681 774 q 451 870 569 870 q 338 861 389 870 l 338 475 q 447 468 383 468 z "},"Þ":{"ha":974,"x_min":100,"x_max":910,"o":"m 100 1028 l 338 1028 l 338 894 q 433 899 390 899 q 792 809 674 899 q 910 528 910 719 q 794 250 910 344 q 446 156 677 156 q 401 157 426 156 q 363 158 376 158 q 338 160 347 160 l 338 0 l 100 0 l 100 1028 m 447 327 q 580 348 528 327 q 656 412 631 368 q 681 527 681 456 q 625 681 681 633 q 451 729 569 729 q 338 720 389 729 l 338 333 q 447 327 387 327 z "},"Q":{"ha":1168,"x_min":64,"x_max":1104,"o":"m 1104 514 q 1013 181 1104 310 q 744 17 922 51 q 1093 -44 892 -21 l 1057 -225 q 459 -73 677 -172 q 153 167 242 26 q 64 506 64 308 q 127 800 64 681 q 307 981 190 920 q 584 1041 424 1041 q 861 981 744 1041 q 1041 803 978 922 q 1104 514 1104 685 m 306 519 q 377 257 306 340 q 584 175 447 175 q 790 257 719 175 q 862 509 862 339 q 790 769 862 685 q 584 853 718 853 q 378 771 451 853 q 306 519 306 690 z "},"R":{"ha":1009,"x_min":100,"x_max":995,"o":"m 734 0 l 460 376 l 449 376 q 333 380 410 376 l 333 0 l 100 0 l 100 1002 q 267 1030 176 1019 q 441 1040 358 1040 q 788 960 672 1040 q 903 710 903 879 q 849 525 904 600 q 690 413 794 451 l 995 0 l 734 0 m 333 553 q 456 547 393 547 q 628 585 573 547 q 683 709 683 624 q 630 833 683 794 q 463 872 576 872 q 333 860 399 872 l 333 553 z "},"Ŕ":{"ha":1009,"x_min":100,"x_max":995,"o":"m 734 0 l 460 376 l 449 376 q 333 380 410 376 l 333 0 l 100 0 l 100 1002 q 267 1030 176 1019 q 441 1040 358 1040 q 788 960 672 1040 q 903 710 903 879 q 849 525 904 600 q 690 413 794 451 l 995 0 l 734 0 m 333 553 q 456 547 393 547 q 628 585 573 547 q 683 709 683 624 q 630 833 683 794 q 463 872 576 872 q 333 860 399 872 l 333 553 m 392 1108 l 526 1318 l 772 1318 l 603 1108 l 392 1108 z "},"Ř":{"ha":1009,"x_min":100,"x_max":995,"o":"m 734 0 l 460 376 l 449 376 q 333 380 410 376 l 333 0 l 100 0 l 100 1002 q 267 1030 176 1019 q 441 1040 358 1040 q 788 960 672 1040 q 903 710 903 879 q 849 525 904 600 q 690 413 794 451 l 995 0 l 734 0 m 333 553 q 456 547 393 547 q 628 585 573 547 q 683 709 683 624 q 630 833 683 794 q 463 872 576 872 q 333 860 399 872 l 333 553 m 614 1318 l 798 1318 l 597 1108 l 401 1108 l 201 1318 l 385 1318 l 499 1194 l 614 1318 z "},"Ŗ":{"ha":1009,"x_min":100,"x_max":995,"o":"m 734 0 l 460 376 l 449 376 q 333 380 410 376 l 333 0 l 100 0 l 100 1002 q 267 1030 176 1019 q 441 1040 358 1040 q 788 960 672 1040 q 903 710 903 879 q 849 525 904 600 q 690 413 794 451 l 995 0 l 734 0 m 333 553 q 456 547 393 547 q 628 585 573 547 q 683 709 683 624 q 630 833 683 794 q 463 872 576 872 q 333 860 399 872 l 333 553 m 524 -89 q 655 -193 655 -89 q 640 -273 655 -231 q 599 -346 624 -315 l 458 -346 q 497 -244 489 -287 q 395 -167 395 -237 q 427 -109 395 -130 q 524 -89 459 -89 z "},"Ȑ":{"ha":1009,"x_min":100,"x_max":995,"o":"m 734 0 l 460 376 l 449 376 q 333 380 410 376 l 333 0 l 100 0 l 100 1002 q 267 1030 176 1019 q 441 1040 358 1040 q 788 960 672 1040 q 903 710 903 879 q 849 525 904 600 q 690 413 794 451 l 995 0 l 734 0 m 333 553 q 456 547 393 547 q 628 585 573 547 q 683 709 683 624 q 630 833 683 794 q 463 872 576 872 q 333 860 399 872 l 333 553 m 272 1108 l 156 1318 l 336 1318 l 439 1108 l 272 1108 m 560 1108 l 445 1318 l 624 1318 l 727 1108 l 560 1108 z "},"Ṛ":{"ha":1009,"x_min":100,"x_max":995,"o":"m 734 0 l 460 376 l 449 376 q 333 380 410 376 l 333 0 l 100 0 l 100 1002 q 267 1030 176 1019 q 441 1040 358 1040 q 788 960 672 1040 q 903 710 903 879 q 849 525 904 600 q 690 413 794 451 l 995 0 l 734 0 m 333 553 q 456 547 393 547 q 628 585 573 547 q 683 709 683 624 q 630 833 683 794 q 463 872 576 872 q 333 860 399 872 l 333 553 m 525 -290 q 420 -263 455 -290 q 385 -190 385 -237 q 420 -116 385 -142 q 525 -89 455 -89 q 630 -116 595 -89 q 665 -190 665 -142 q 630 -263 665 -237 q 525 -290 595 -290 z "},"Ȓ":{"ha":1009,"x_min":100,"x_max":995,"o":"m 734 0 l 460 376 l 449 376 q 333 380 410 376 l 333 0 l 100 0 l 100 1002 q 267 1030 176 1019 q 441 1040 358 1040 q 788 960 672 1040 q 903 710 903 879 q 849 525 904 600 q 690 413 794 451 l 995 0 l 734 0 m 333 553 q 456 547 393 547 q 628 585 573 547 q 683 709 683 624 q 630 833 683 794 q 463 872 576 872 q 333 860 399 872 l 333 553 m 215 1114 q 298 1261 227 1206 q 499 1315 369 1315 q 700 1261 629 1315 q 784 1114 772 1206 l 643 1114 q 599 1181 633 1158 q 499 1204 565 1204 q 399 1181 433 1204 q 356 1114 365 1158 l 215 1114 z "},"Ṟ":{"ha":1009,"x_min":100,"x_max":995,"o":"m 734 0 l 460 376 l 449 376 q 333 380 410 376 l 333 0 l 100 0 l 100 1002 q 267 1030 176 1019 q 441 1040 358 1040 q 788 960 672 1040 q 903 710 903 879 q 849 525 904 600 q 690 413 794 451 l 995 0 l 734 0 m 333 553 q 456 547 393 547 q 628 585 573 547 q 683 709 683 624 q 630 833 683 794 q 463 872 576 872 q 333 860 399 872 l 333 553 m 258 -251 l 258 -118 l 792 -118 l 792 -251 l 258 -251 z "},"S":{"ha":856,"x_min":46,"x_max":810,"o":"m 378 -13 q 70 32 213 -13 l 70 221 q 222 185 137 198 q 380 172 308 172 q 531 202 485 172 q 576 292 576 233 q 563 346 576 324 q 516 383 549 367 q 423 413 483 399 l 342 430 q 117 536 189 463 q 46 728 46 608 q 160 960 46 878 q 497 1041 274 1041 q 636 1033 569 1041 q 757 1010 703 1024 l 757 821 q 638 846 705 837 q 505 856 571 856 q 332 825 384 856 q 280 738 280 794 q 292 686 280 706 q 333 650 304 665 q 414 623 362 635 l 495 606 q 736 497 661 569 q 810 305 810 424 q 759 135 810 206 q 610 25 707 63 q 378 -13 513 -13 z "},"Ś":{"ha":856,"x_min":46,"x_max":810,"o":"m 378 -13 q 70 32 213 -13 l 70 221 q 222 185 137 198 q 380 172 308 172 q 531 202 485 172 q 576 292 576 233 q 563 346 576 324 q 516 383 549 367 q 423 413 483 399 l 342 430 q 117 536 189 463 q 46 728 46 608 q 160 960 46 878 q 497 1041 274 1041 q 636 1033 569 1041 q 757 1010 703 1024 l 757 821 q 638 846 705 837 q 505 856 571 856 q 332 825 384 856 q 280 738 280 794 q 292 686 280 706 q 333 650 304 665 q 414 623 362 635 l 495 606 q 736 497 661 569 q 810 305 810 424 q 759 135 810 206 q 610 25 707 63 q 378 -13 513 -13 m 330 1108 l 464 1318 l 709 1318 l 540 1108 l 330 1108 z "},"Ṥ":{"ha":856,"x_min":46,"x_max":810,"o":"m 378 -13 q 70 32 213 -13 l 70 221 q 222 185 137 198 q 380 172 308 172 q 531 202 485 172 q 576 292 576 233 q 563 346 576 324 q 516 383 549 367 q 423 413 483 399 l 342 430 q 117 536 189 463 q 46 728 46 608 q 160 960 46 878 q 497 1041 274 1041 q 636 1033 569 1041 q 757 1010 703 1024 l 757 821 q 638 846 705 837 q 505 856 571 856 q 332 825 384 856 q 280 738 280 794 q 292 686 280 706 q 333 650 304 665 q 414 623 362 635 l 495 606 q 736 497 661 569 q 810 305 810 424 q 759 135 810 206 q 610 25 707 63 q 378 -13 513 -13 m 283 1290 q 198 1312 226 1290 q 169 1373 169 1334 q 198 1434 169 1412 q 283 1456 226 1456 q 369 1434 340 1456 q 398 1373 398 1412 q 369 1312 398 1334 q 283 1290 340 1290 m 330 1108 l 464 1318 l 709 1318 l 540 1108 l 330 1108 z "},"Š":{"ha":856,"x_min":46,"x_max":810,"o":"m 378 -13 q 70 32 213 -13 l 70 221 q 222 185 137 198 q 380 172 308 172 q 531 202 485 172 q 576 292 576 233 q 563 346 576 324 q 516 383 549 367 q 423 413 483 399 l 342 430 q 117 536 189 463 q 46 728 46 608 q 160 960 46 878 q 497 1041 274 1041 q 636 1033 569 1041 q 757 1010 703 1024 l 757 821 q 638 846 705 837 q 505 856 571 856 q 332 825 384 856 q 280 738 280 794 q 292 686 280 706 q 333 650 304 665 q 414 623 362 635 l 495 606 q 736 497 661 569 q 810 305 810 424 q 759 135 810 206 q 610 25 707 63 q 378 -13 513 -13 m 551 1318 l 735 1318 l 535 1108 l 339 1108 l 138 1318 l 322 1318 l 437 1194 l 551 1318 z "},"Ṧ":{"ha":856,"x_min":46,"x_max":810,"o":"m 378 -13 q 70 32 213 -13 l 70 221 q 222 185 137 198 q 380 172 308 172 q 531 202 485 172 q 576 292 576 233 q 563 346 576 324 q 516 383 549 367 q 423 413 483 399 l 342 430 q 117 536 189 463 q 46 728 46 608 q 160 960 46 878 q 497 1041 274 1041 q 636 1033 569 1041 q 757 1010 703 1024 l 757 821 q 638 846 705 837 q 505 856 571 856 q 332 825 384 856 q 280 738 280 794 q 292 686 280 706 q 333 650 304 665 q 414 623 362 635 l 495 606 q 736 497 661 569 q 810 305 810 424 q 759 135 810 206 q 610 25 707 63 q 378 -13 513 -13 m 437 1338 q 351 1359 380 1338 q 322 1420 322 1381 q 351 1481 322 1458 q 437 1503 380 1503 q 523 1481 494 1503 q 551 1420 551 1458 q 523 1359 551 1381 q 437 1338 494 1338 m 551 1318 l 735 1318 l 535 1108 l 339 1108 l 138 1318 l 322 1318 l 437 1194 l 551 1318 z "},"Ş":{"ha":856,"x_min":46,"x_max":810,"o":"m 810 305 q 771 153 810 219 q 657 47 732 88 q 478 -7 582 6 l 478 -59 q 576 -98 543 -67 q 609 -180 609 -129 q 560 -274 609 -240 q 417 -307 510 -307 q 269 -283 337 -307 l 269 -198 q 406 -221 335 -221 q 470 -209 449 -221 q 491 -173 491 -198 q 406 -123 491 -123 l 369 -123 l 369 -13 q 70 32 209 -12 l 70 221 q 222 185 137 198 q 380 172 308 172 q 531 202 485 172 q 576 292 576 233 q 563 346 576 324 q 516 383 549 367 q 423 413 483 399 l 342 430 q 117 536 189 463 q 46 728 46 608 q 160 960 46 878 q 497 1041 274 1041 q 636 1033 569 1041 q 757 1010 703 1024 l 757 821 q 638 846 705 837 q 505 856 571 856 q 332 825 384 856 q 280 738 280 794 q 292 686 280 706 q 333 650 304 665 q 414 623 362 635 l 495 606 q 736 497 661 569 q 810 305 810 424 z "},"Ŝ":{"ha":856,"x_min":46,"x_max":810,"o":"m 378 -13 q 70 32 213 -13 l 70 221 q 222 185 137 198 q 380 172 308 172 q 531 202 485 172 q 576 292 576 233 q 563 346 576 324 q 516 383 549 367 q 423 413 483 399 l 342 430 q 117 536 189 463 q 46 728 46 608 q 160 960 46 878 q 497 1041 274 1041 q 636 1033 569 1041 q 757 1010 703 1024 l 757 821 q 638 846 705 837 q 505 856 571 856 q 332 825 384 856 q 280 738 280 794 q 292 686 280 706 q 333 650 304 665 q 414 623 362 635 l 495 606 q 736 497 661 569 q 810 305 810 424 q 759 135 810 206 q 610 25 707 63 q 378 -13 513 -13 m 735 1108 l 551 1108 l 437 1232 l 322 1108 l 138 1108 l 339 1318 l 535 1318 l 735 1108 z "},"Ș":{"ha":856,"x_min":46,"x_max":810,"o":"m 378 -13 q 70 32 213 -13 l 70 221 q 222 185 137 198 q 380 172 308 172 q 531 202 485 172 q 576 292 576 233 q 563 346 576 324 q 516 383 549 367 q 423 413 483 399 l 342 430 q 117 536 189 463 q 46 728 46 608 q 160 960 46 878 q 497 1041 274 1041 q 636 1033 569 1041 q 757 1010 703 1024 l 757 821 q 638 846 705 837 q 505 856 571 856 q 332 825 384 856 q 280 738 280 794 q 292 686 280 706 q 333 650 304 665 q 414 623 362 635 l 495 606 q 736 497 661 569 q 810 305 810 424 q 759 135 810 206 q 610 25 707 63 q 378 -13 513 -13 m 436 -89 q 567 -193 567 -89 q 551 -273 567 -231 q 511 -346 536 -315 l 369 -346 q 408 -244 401 -287 q 307 -167 307 -237 q 339 -109 307 -130 q 436 -89 371 -89 z "},"Ṡ":{"ha":856,"x_min":46,"x_max":810,"o":"m 378 -13 q 70 32 213 -13 l 70 221 q 222 185 137 198 q 380 172 308 172 q 531 202 485 172 q 576 292 576 233 q 563 346 576 324 q 516 383 549 367 q 423 413 483 399 l 342 430 q 117 536 189 463 q 46 728 46 608 q 160 960 46 878 q 497 1041 274 1041 q 636 1033 569 1041 q 757 1010 703 1024 l 757 821 q 638 846 705 837 q 505 856 571 856 q 332 825 384 856 q 280 738 280 794 q 292 686 280 706 q 333 650 304 665 q 414 623 362 635 l 495 606 q 736 497 661 569 q 810 305 810 424 q 759 135 810 206 q 610 25 707 63 q 378 -13 513 -13 m 437 1115 q 332 1142 367 1115 q 297 1216 297 1169 q 332 1290 297 1263 q 437 1316 367 1316 q 542 1290 507 1316 q 576 1216 576 1263 q 542 1142 576 1169 q 437 1115 507 1115 z "},"Ṣ":{"ha":856,"x_min":46,"x_max":810,"o":"m 378 -13 q 70 32 213 -13 l 70 221 q 222 185 137 198 q 380 172 308 172 q 531 202 485 172 q 576 292 576 233 q 563 346 576 324 q 516 383 549 367 q 423 413 483 399 l 342 430 q 117 536 189 463 q 46 728 46 608 q 160 960 46 878 q 497 1041 274 1041 q 636 1033 569 1041 q 757 1010 703 1024 l 757 821 q 638 846 705 837 q 505 856 571 856 q 332 825 384 856 q 280 738 280 794 q 292 686 280 706 q 333 650 304 665 q 414 623 362 635 l 495 606 q 736 497 661 569 q 810 305 810 424 q 759 135 810 206 q 610 25 707 63 q 378 -13 513 -13 m 437 -290 q 332 -263 367 -290 q 297 -190 297 -237 q 332 -116 297 -142 q 437 -89 367 -89 q 542 -116 507 -89 q 576 -190 576 -142 q 542 -263 576 -237 q 437 -290 507 -290 z "},"Ṩ":{"ha":856,"x_min":46,"x_max":810,"o":"m 378 -13 q 70 32 213 -13 l 70 221 q 222 185 137 198 q 380 172 308 172 q 531 202 485 172 q 576 292 576 233 q 563 346 576 324 q 516 383 549 367 q 423 413 483 399 l 342 430 q 117 536 189 463 q 46 728 46 608 q 160 960 46 878 q 497 1041 274 1041 q 636 1033 569 1041 q 757 1010 703 1024 l 757 821 q 638 846 705 837 q 505 856 571 856 q 332 825 384 856 q 280 738 280 794 q 292 686 280 706 q 333 650 304 665 q 414 623 362 635 l 495 606 q 736 497 661 569 q 810 305 810 424 q 759 135 810 206 q 610 25 707 63 q 378 -13 513 -13 m 437 -290 q 332 -263 367 -290 q 297 -190 297 -237 q 332 -116 297 -142 q 437 -89 367 -89 q 542 -116 507 -89 q 576 -190 576 -142 q 542 -263 576 -237 q 437 -290 507 -290 m 437 1115 q 332 1142 367 1115 q 297 1216 297 1169 q 332 1290 297 1263 q 437 1316 367 1316 q 542 1290 507 1316 q 576 1216 576 1263 q 542 1142 576 1169 q 437 1115 507 1115 z "},"ẞ":{"ha":1346,"x_min":100,"x_max":1300,"o":"m 995 606 q 1228 496 1156 569 q 1300 305 1300 424 q 1250 135 1300 206 q 1105 25 1200 63 q 878 -13 1010 -13 q 727 -2 802 -13 q 586 29 653 9 l 586 218 q 732 185 650 197 q 876 172 813 172 q 1025 202 980 172 q 1069 292 1069 233 q 1056 346 1069 324 q 1012 384 1043 368 q 926 413 981 399 l 849 430 q 632 536 701 464 q 563 728 563 608 q 585 850 563 796 q 533 855 562 855 q 386 803 434 855 q 338 647 338 751 l 338 0 l 100 0 l 100 618 q 207 932 100 824 q 533 1041 315 1041 q 750 1001 656 1041 q 1002 1041 851 1041 q 1134 1033 1070 1041 q 1249 1012 1198 1026 l 1249 823 q 1134 847 1198 838 q 1013 856 1071 856 q 844 825 895 856 q 794 738 794 794 q 805 685 794 706 q 843 650 817 665 q 918 623 870 635 l 995 606 z "},"Ə":{"ha":1153,"x_min":57,"x_max":1089,"o":"m 447 1041 q 929 910 769 1041 q 1089 504 1089 780 q 1028 222 1089 338 q 852 47 967 106 q 581 -13 738 -13 q 301 46 419 -13 q 120 223 184 106 q 57 510 57 340 l 57 585 l 851 585 q 725 792 829 730 q 431 854 622 854 q 277 846 356 854 q 128 822 197 838 l 128 1010 q 447 1041 274 1041 m 583 165 q 771 223 704 165 q 853 418 838 282 l 301 418 q 385 224 316 283 q 583 165 453 165 z "},"T":{"ha":950,"x_min":13,"x_max":938,"o":"m 356 0 l 356 838 l 13 838 l 13 1028 l 938 1028 l 938 838 l 594 838 l 594 0 l 356 0 z "},"Ŧ":{"ha":950,"x_min":13,"x_max":938,"o":"m 938 838 l 594 838 l 594 580 l 817 580 l 817 434 l 594 434 l 594 0 l 356 0 l 356 434 l 133 434 l 133 580 l 356 580 l 356 838 l 13 838 l 13 1028 l 938 1028 l 938 838 z "},"Ť":{"ha":950,"x_min":13,"x_max":938,"o":"m 356 0 l 356 838 l 13 838 l 13 1028 l 938 1028 l 938 838 l 594 838 l 594 0 l 356 0 m 590 1318 l 774 1318 l 573 1108 l 377 1108 l 176 1318 l 360 1318 l 475 1194 l 590 1318 z "},"Ţ":{"ha":950,"x_min":13,"x_max":938,"o":"m 516 0 l 516 -59 q 614 -98 581 -67 q 647 -180 647 -129 q 598 -274 647 -240 q 455 -307 549 -307 q 308 -283 375 -307 l 308 -198 q 444 -221 374 -221 q 508 -209 487 -221 q 529 -173 529 -198 q 444 -123 529 -123 l 408 -123 l 408 0 l 356 0 l 356 838 l 13 838 l 13 1028 l 938 1028 l 938 838 l 594 838 l 594 0 l 516 0 z "},"Ț":{"ha":950,"x_min":13,"x_max":938,"o":"m 356 0 l 356 838 l 13 838 l 13 1028 l 938 1028 l 938 838 l 594 838 l 594 0 l 356 0 m 474 -89 q 605 -193 605 -89 q 590 -273 605 -231 q 549 -346 574 -315 l 408 -346 q 447 -244 439 -287 q 345 -167 345 -237 q 377 -109 345 -130 q 474 -89 409 -89 z "},"Ṭ":{"ha":950,"x_min":13,"x_max":938,"o":"m 356 0 l 356 838 l 13 838 l 13 1028 l 938 1028 l 938 838 l 594 838 l 594 0 l 356 0 m 475 -290 q 370 -263 405 -290 q 335 -190 335 -237 q 370 -116 335 -142 q 475 -89 405 -89 q 580 -116 545 -89 q 615 -190 615 -142 q 580 -263 615 -237 q 475 -290 545 -290 z "},"Ṯ":{"ha":950,"x_min":13,"x_max":938,"o":"m 356 0 l 356 838 l 13 838 l 13 1028 l 938 1028 l 938 838 l 594 838 l 594 0 l 356 0 m 208 -251 l 208 -118 l 742 -118 l 742 -251 l 208 -251 z "},"U":{"ha":1108,"x_min":96,"x_max":1013,"o":"m 556 -13 q 207 100 317 -13 q 96 441 96 213 l 96 1028 l 333 1028 l 333 419 q 388 236 333 294 q 556 178 442 178 q 725 236 671 178 q 780 419 780 294 l 780 1028 l 1013 1028 l 1013 441 q 903 100 1013 214 q 556 -13 792 -13 z "},"Ú":{"ha":1108,"x_min":96,"x_max":1013,"o":"m 556 -13 q 207 100 317 -13 q 96 441 96 213 l 96 1028 l 333 1028 l 333 419 q 388 236 333 294 q 556 178 442 178 q 725 236 671 178 q 780 419 780 294 l 780 1028 l 1013 1028 l 1013 441 q 903 100 1013 214 q 556 -13 792 -13 m 449 1108 l 583 1318 l 828 1318 l 660 1108 l 449 1108 z "},"Ŭ":{"ha":1108,"x_min":96,"x_max":1013,"o":"m 556 -13 q 207 100 317 -13 q 96 441 96 213 l 96 1028 l 333 1028 l 333 419 q 388 236 333 294 q 556 178 442 178 q 725 236 671 178 q 780 419 780 294 l 780 1028 l 1013 1028 l 1013 441 q 903 100 1013 214 q 556 -13 792 -13 m 557 1110 q 355 1165 426 1110 q 272 1312 284 1219 l 413 1312 q 457 1244 422 1267 q 557 1222 491 1222 q 657 1245 622 1222 q 700 1312 691 1268 l 841 1312 q 758 1165 828 1219 q 557 1110 688 1110 z "},"Û":{"ha":1108,"x_min":96,"x_max":1013,"o":"m 556 -13 q 207 100 317 -13 q 96 441 96 213 l 96 1028 l 333 1028 l 333 419 q 388 236 333 294 q 556 178 442 178 q 725 236 671 178 q 780 419 780 294 l 780 1028 l 1013 1028 l 1013 441 q 903 100 1013 214 q 556 -13 792 -13 m 855 1108 l 671 1108 l 556 1232 l 442 1108 l 258 1108 l 458 1318 l 654 1318 l 855 1108 z "},"Ȕ":{"ha":1108,"x_min":96,"x_max":1013,"o":"m 556 -13 q 207 100 317 -13 q 96 441 96 213 l 96 1028 l 333 1028 l 333 419 q 388 236 333 294 q 556 178 442 178 q 725 236 671 178 q 780 419 780 294 l 780 1028 l 1013 1028 l 1013 441 q 903 100 1013 214 q 556 -13 792 -13 m 328 1108 l 213 1318 l 393 1318 l 496 1108 l 328 1108 m 617 1108 l 502 1318 l 681 1318 l 784 1108 l 617 1108 z "},"Ü":{"ha":1108,"x_min":96,"x_max":1013,"o":"m 556 -13 q 207 100 317 -13 q 96 441 96 213 l 96 1028 l 333 1028 l 333 419 q 388 236 333 294 q 556 178 442 178 q 725 236 671 178 q 780 419 780 294 l 780 1028 l 1013 1028 l 1013 441 q 903 100 1013 214 q 556 -13 792 -13 m 369 1115 q 278 1142 309 1115 q 248 1216 248 1168 q 278 1290 248 1264 q 369 1316 308 1316 q 460 1290 430 1316 q 491 1216 491 1264 q 460 1142 491 1168 q 369 1115 430 1115 m 743 1115 q 652 1142 683 1115 q 622 1216 622 1168 q 652 1290 622 1264 q 743 1316 683 1316 q 834 1290 804 1316 q 865 1216 865 1264 q 834 1142 865 1168 q 743 1115 803 1115 z "},"Ụ":{"ha":1108,"x_min":96,"x_max":1013,"o":"m 556 -13 q 207 100 317 -13 q 96 441 96 213 l 96 1028 l 333 1028 l 333 419 q 388 236 333 294 q 556 178 442 178 q 725 236 671 178 q 780 419 780 294 l 780 1028 l 1013 1028 l 1013 441 q 903 100 1013 214 q 556 -13 792 -13 m 556 -290 q 451 -263 486 -290 q 417 -190 417 -237 q 451 -116 417 -142 q 556 -89 486 -89 q 661 -116 626 -89 q 696 -190 696 -142 q 661 -263 696 -237 q 556 -290 626 -290 z "},"Ù":{"ha":1108,"x_min":96,"x_max":1013,"o":"m 556 -13 q 207 100 317 -13 q 96 441 96 213 l 96 1028 l 333 1028 l 333 419 q 388 236 333 294 q 556 178 442 178 q 725 236 671 178 q 780 419 780 294 l 780 1028 l 1013 1028 l 1013 441 q 903 100 1013 214 q 556 -13 792 -13 m 451 1108 l 283 1318 l 528 1318 l 661 1108 l 451 1108 z "},"Ủ":{"ha":1108,"x_min":96,"x_max":1013,"o":"m 556 -13 q 207 100 317 -13 q 96 441 96 213 l 96 1028 l 333 1028 l 333 419 q 388 236 333 294 q 556 178 442 178 q 725 236 671 178 q 780 419 780 294 l 780 1028 l 1013 1028 l 1013 441 q 903 100 1013 214 q 556 -13 792 -13 m 499 1108 q 520 1153 500 1137 q 576 1185 540 1169 q 610 1204 599 1197 q 620 1222 620 1211 q 540 1247 620 1247 q 401 1230 473 1247 l 401 1313 q 475 1326 433 1322 q 557 1331 517 1331 q 695 1307 650 1331 q 740 1238 740 1283 q 720 1189 740 1207 q 665 1152 700 1170 q 628 1130 640 1139 q 614 1108 616 1121 l 499 1108 z "},"Ư":{"ha":1110,"x_min":96,"x_max":1149,"o":"m 556 -13 q 207 100 317 -13 q 96 441 96 213 l 96 1028 l 333 1028 l 333 419 q 388 236 333 294 q 556 178 442 178 q 725 236 671 178 q 780 419 780 294 l 780 1028 l 853 1028 q 960 1052 925 1028 q 994 1135 994 1077 q 983 1233 994 1180 l 1135 1233 q 1146 1181 1143 1205 q 1149 1128 1149 1156 q 1114 1002 1149 1051 q 1013 935 1078 953 l 1013 441 q 903 100 1013 214 q 556 -13 792 -13 z "},"Ứ":{"ha":1110,"x_min":96,"x_max":1149,"o":"m 556 -13 q 207 100 317 -13 q 96 441 96 213 l 96 1028 l 333 1028 l 333 419 q 388 236 333 294 q 556 178 442 178 q 725 236 671 178 q 780 419 780 294 l 780 1028 l 853 1028 q 960 1052 925 1028 q 994 1135 994 1077 q 983 1233 994 1180 l 1135 1233 q 1146 1181 1143 1205 q 1149 1128 1149 1156 q 1114 1002 1149 1051 q 1013 935 1078 953 l 1013 441 q 903 100 1013 214 q 556 -13 792 -13 m 448 1108 l 582 1318 l 827 1318 l 658 1108 l 448 1108 z "},"Ự":{"ha":1110,"x_min":96,"x_max":1149,"o":"m 556 -13 q 207 100 317 -13 q 96 441 96 213 l 96 1028 l 333 1028 l 333 419 q 388 236 333 294 q 556 178 442 178 q 725 236 671 178 q 780 419 780 294 l 780 1028 l 853 1028 q 960 1052 925 1028 q 994 1135 994 1077 q 983 1233 994 1180 l 1135 1233 q 1146 1181 1143 1205 q 1149 1128 1149 1156 q 1114 1002 1149 1051 q 1013 935 1078 953 l 1013 441 q 903 100 1013 214 q 556 -13 792 -13 m 555 -290 q 450 -263 485 -290 q 415 -190 415 -237 q 450 -116 415 -142 q 555 -89 485 -89 q 660 -116 625 -89 q 694 -190 694 -142 q 660 -263 694 -237 q 555 -290 625 -290 z "},"Ừ":{"ha":1110,"x_min":96,"x_max":1149,"o":"m 556 -13 q 207 100 317 -13 q 96 441 96 213 l 96 1028 l 333 1028 l 333 419 q 388 236 333 294 q 556 178 442 178 q 725 236 671 178 q 780 419 780 294 l 780 1028 l 853 1028 q 960 1052 925 1028 q 994 1135 994 1077 q 983 1233 994 1180 l 1135 1233 q 1146 1181 1143 1205 q 1149 1128 1149 1156 q 1114 1002 1149 1051 q 1013 935 1078 953 l 1013 441 q 903 100 1013 214 q 556 -13 792 -13 m 450 1108 l 281 1318 l 526 1318 l 660 1108 l 450 1108 z "},"Ử":{"ha":1110,"x_min":96,"x_max":1149,"o":"m 556 -13 q 207 100 317 -13 q 96 441 96 213 l 96 1028 l 333 1028 l 333 419 q 388 236 333 294 q 556 178 442 178 q 725 236 671 178 q 780 419 780 294 l 780 1028 l 853 1028 q 960 1052 925 1028 q 994 1135 994 1077 q 983 1233 994 1180 l 1135 1233 q 1146 1181 1143 1205 q 1149 1128 1149 1156 q 1114 1002 1149 1051 q 1013 935 1078 953 l 1013 441 q 903 100 1013 214 q 556 -13 792 -13 m 497 1108 q 519 1153 499 1137 q 574 1185 539 1169 q 608 1204 598 1197 q 619 1222 619 1211 q 539 1247 619 1247 q 399 1230 472 1247 l 399 1313 q 474 1326 431 1322 q 556 1331 516 1331 q 693 1307 649 1331 q 738 1238 738 1283 q 718 1189 738 1207 q 663 1152 699 1170 q 626 1130 638 1139 q 613 1108 615 1121 l 497 1108 z "},"Ữ":{"ha":1110,"x_min":96,"x_max":1149,"o":"m 556 -13 q 207 100 317 -13 q 96 441 96 213 l 96 1028 l 333 1028 l 333 419 q 388 236 333 294 q 556 178 442 178 q 725 236 671 178 q 780 419 780 294 l 780 1028 l 853 1028 q 960 1052 925 1028 q 994 1135 994 1077 q 983 1233 994 1180 l 1135 1233 q 1146 1181 1143 1205 q 1149 1128 1149 1156 q 1114 1002 1149 1051 q 1013 935 1078 953 l 1013 441 q 903 100 1013 214 q 556 -13 792 -13 m 679 1125 q 615 1132 645 1125 q 544 1152 585 1139 q 480 1170 506 1165 q 426 1176 453 1176 q 350 1165 383 1176 q 282 1129 317 1154 l 282 1256 q 347 1293 311 1281 q 431 1306 382 1306 q 494 1299 465 1306 q 566 1278 524 1292 q 631 1260 606 1266 q 684 1253 656 1253 q 760 1265 727 1253 q 828 1300 794 1276 l 828 1174 q 764 1137 799 1149 q 679 1125 728 1125 z "},"Ű":{"ha":1108,"x_min":96,"x_max":1013,"o":"m 556 -13 q 207 100 317 -13 q 96 441 96 213 l 96 1028 l 333 1028 l 333 419 q 388 236 333 294 q 556 178 442 178 q 725 236 671 178 q 780 419 780 294 l 780 1028 l 1013 1028 l 1013 441 q 903 100 1013 214 q 556 -13 792 -13 m 328 1108 l 431 1318 l 610 1318 l 496 1108 l 328 1108 m 617 1108 l 719 1318 l 899 1318 l 784 1108 l 617 1108 z "},"Ȗ":{"ha":1108,"x_min":96,"x_max":1013,"o":"m 556 -13 q 207 100 317 -13 q 96 441 96 213 l 96 1028 l 333 1028 l 333 419 q 388 236 333 294 q 556 178 442 178 q 725 236 671 178 q 780 419 780 294 l 780 1028 l 1013 1028 l 1013 441 q 903 100 1013 214 q 556 -13 792 -13 m 272 1114 q 355 1261 284 1206 q 556 1315 426 1315 q 757 1261 686 1315 q 841 1114 828 1206 l 700 1114 q 656 1181 690 1158 q 556 1204 622 1204 q 456 1181 490 1204 q 413 1114 422 1158 l 272 1114 z "},"Ū":{"ha":1108,"x_min":96,"x_max":1013,"o":"m 556 -13 q 207 100 317 -13 q 96 441 96 213 l 96 1028 l 333 1028 l 333 419 q 388 236 333 294 q 556 178 442 178 q 725 236 671 178 q 780 419 780 294 l 780 1028 l 1013 1028 l 1013 441 q 903 100 1013 214 q 556 -13 792 -13 m 290 1147 l 290 1280 l 823 1280 l 823 1147 l 290 1147 z "},"Ṻ":{"ha":1108,"x_min":96,"x_max":1013,"o":"m 556 -13 q 207 100 317 -13 q 96 441 96 213 l 96 1028 l 333 1028 l 333 419 q 388 236 333 294 q 556 178 442 178 q 725 236 671 178 q 780 419 780 294 l 780 1028 l 1013 1028 l 1013 441 q 903 100 1013 214 q 556 -13 792 -13 m 290 1147 l 290 1280 l 823 1280 l 823 1147 l 290 1147 m 369 1357 q 278 1383 309 1357 q 248 1458 248 1410 q 278 1532 248 1506 q 369 1558 308 1558 q 460 1532 430 1558 q 491 1458 491 1506 q 460 1383 491 1410 q 369 1357 430 1357 m 743 1357 q 652 1383 683 1357 q 622 1458 622 1410 q 652 1532 622 1506 q 743 1558 683 1558 q 834 1532 804 1558 q 865 1458 865 1506 q 834 1383 865 1410 q 743 1357 803 1357 z "},"Ų":{"ha":1108,"x_min":96,"x_max":1013,"o":"m 1013 1028 l 1013 441 q 949 160 1013 267 q 749 12 885 53 q 593 -60 637 -23 q 549 -144 549 -98 q 651 -216 549 -216 q 751 -196 694 -216 l 751 -283 q 619 -306 689 -306 q 468 -268 519 -306 q 417 -160 417 -229 q 510 -12 417 -69 q 196 111 296 -1 q 96 441 96 224 l 96 1028 l 333 1028 l 333 419 q 388 236 333 294 q 556 178 442 178 q 725 236 671 178 q 780 419 780 294 l 780 1028 l 1013 1028 z "},"Ů":{"ha":1108,"x_min":96,"x_max":1013,"o":"m 556 -13 q 207 100 317 -13 q 96 441 96 213 l 96 1028 l 333 1028 l 333 419 q 388 236 333 294 q 556 178 442 178 q 725 236 671 178 q 780 419 780 294 l 780 1028 l 1013 1028 l 1013 441 q 903 100 1013 214 q 556 -13 792 -13 m 556 1099 q 480 1118 514 1099 q 426 1170 446 1137 q 407 1244 407 1203 q 426 1319 407 1286 q 480 1371 446 1352 q 556 1390 514 1390 q 633 1371 599 1390 q 686 1319 667 1352 q 706 1244 706 1286 q 686 1170 706 1203 q 633 1118 667 1137 q 556 1099 599 1099 m 556 1176 q 603 1195 585 1176 q 622 1244 622 1213 q 603 1293 622 1275 q 556 1312 585 1312 q 509 1293 527 1312 q 491 1244 491 1275 q 509 1195 491 1213 q 556 1176 527 1176 z "},"Ũ":{"ha":1108,"x_min":96,"x_max":1013,"o":"m 556 -13 q 207 100 317 -13 q 96 441 96 213 l 96 1028 l 333 1028 l 333 419 q 388 236 333 294 q 556 178 442 178 q 725 236 671 178 q 780 419 780 294 l 780 1028 l 1013 1028 l 1013 441 q 903 100 1013 214 q 556 -13 792 -13 m 681 1125 q 617 1132 647 1125 q 545 1152 587 1139 q 481 1170 507 1165 q 427 1176 455 1176 q 351 1165 384 1176 q 283 1129 318 1154 l 283 1256 q 348 1293 313 1281 q 432 1306 383 1306 q 496 1299 466 1306 q 567 1278 526 1292 q 632 1260 607 1266 q 685 1253 658 1253 q 762 1265 728 1253 q 829 1300 795 1276 l 829 1174 q 765 1137 800 1149 q 681 1125 730 1125 z "},"Ṹ":{"ha":1108,"x_min":96,"x_max":1013,"o":"m 556 -13 q 207 100 317 -13 q 96 441 96 213 l 96 1028 l 333 1028 l 333 419 q 388 236 333 294 q 556 178 442 178 q 725 236 671 178 q 780 419 780 294 l 780 1028 l 1013 1028 l 1013 441 q 903 100 1013 214 q 556 -13 792 -13 m 438 1358 l 571 1519 l 844 1519 l 675 1358 l 438 1358 m 681 1125 q 617 1132 647 1125 q 545 1152 587 1139 q 481 1170 507 1165 q 427 1176 455 1176 q 351 1165 384 1176 q 283 1129 318 1154 l 283 1256 q 348 1293 313 1281 q 432 1306 383 1306 q 496 1299 466 1306 q 567 1278 526 1292 q 632 1260 607 1266 q 685 1253 658 1253 q 762 1265 728 1253 q 829 1300 795 1276 l 829 1174 q 765 1137 800 1149 q 681 1125 730 1125 z "},"V":{"ha":1069,"x_min":5,"x_max":1065,"o":"m 832 1028 l 1065 1028 l 708 0 l 363 0 l 5 1028 l 255 1028 l 541 179 l 832 1028 z "},"W":{"ha":1702,"x_min":25,"x_max":1676,"o":"m 1451 1028 l 1676 1028 l 1382 0 l 1080 0 l 854 787 l 622 0 l 320 0 l 25 1028 l 265 1028 l 488 213 l 726 1028 l 988 1028 l 1222 201 l 1451 1028 z "},"Ẃ":{"ha":1702,"x_min":25,"x_max":1676,"o":"m 1451 1028 l 1676 1028 l 1382 0 l 1080 0 l 854 787 l 622 0 l 320 0 l 25 1028 l 265 1028 l 488 213 l 726 1028 l 988 1028 l 1222 201 l 1451 1028 m 744 1108 l 878 1318 l 1124 1318 l 955 1108 l 744 1108 z "},"Ŵ":{"ha":1702,"x_min":25,"x_max":1676,"o":"m 1451 1028 l 1676 1028 l 1382 0 l 1080 0 l 854 787 l 622 0 l 320 0 l 25 1028 l 265 1028 l 488 213 l 726 1028 l 988 1028 l 1222 201 l 1451 1028 m 1150 1108 l 966 1108 l 851 1232 l 737 1108 l 553 1108 l 753 1318 l 949 1318 l 1150 1108 z "},"Ẅ":{"ha":1702,"x_min":25,"x_max":1676,"o":"m 1451 1028 l 1676 1028 l 1382 0 l 1080 0 l 854 787 l 622 0 l 320 0 l 25 1028 l 265 1028 l 488 213 l 726 1028 l 988 1028 l 1222 201 l 1451 1028 m 665 1115 q 574 1142 604 1115 q 543 1216 543 1168 q 573 1290 543 1264 q 665 1316 603 1316 q 756 1290 725 1316 q 786 1216 786 1264 q 756 1142 786 1168 q 665 1115 725 1115 m 1038 1115 q 947 1142 978 1115 q 917 1216 917 1168 q 947 1290 917 1264 q 1038 1316 978 1316 q 1130 1290 1099 1316 q 1160 1216 1160 1264 q 1129 1142 1160 1168 q 1038 1115 1099 1115 z "},"Ẁ":{"ha":1702,"x_min":25,"x_max":1676,"o":"m 1451 1028 l 1676 1028 l 1382 0 l 1080 0 l 854 787 l 622 0 l 320 0 l 25 1028 l 265 1028 l 488 213 l 726 1028 l 988 1028 l 1222 201 l 1451 1028 m 747 1108 l 578 1318 l 823 1318 l 956 1108 l 747 1108 z "},"X":{"ha":1007,"x_min":-24,"x_max":1031,"o":"m 641 535 l 1031 0 l 766 0 l 500 372 l 234 0 l -24 0 l 363 532 l 1 1028 l 265 1028 l 504 696 l 742 1028 l 999 1028 l 641 535 z "},"Y":{"ha":950,"x_min":-34,"x_max":974,"o":"m 974 1028 l 595 436 l 595 0 l 358 0 l 358 434 l -34 1028 l 219 1028 l 481 626 l 739 1028 l 974 1028 z "},"Ý":{"ha":950,"x_min":-34,"x_max":974,"o":"m 974 1028 l 595 436 l 595 0 l 358 0 l 358 434 l -34 1028 l 219 1028 l 481 626 l 739 1028 l 974 1028 m 367 1108 l 501 1318 l 747 1318 l 578 1108 l 367 1108 z "},"Ŷ":{"ha":950,"x_min":-34,"x_max":974,"o":"m 974 1028 l 595 436 l 595 0 l 358 0 l 358 434 l -34 1028 l 219 1028 l 481 626 l 739 1028 l 974 1028 m 773 1108 l 589 1108 l 474 1232 l 360 1108 l 176 1108 l 376 1318 l 572 1318 l 773 1108 z "},"Ÿ":{"ha":950,"x_min":-34,"x_max":974,"o":"m 974 1028 l 595 436 l 595 0 l 358 0 l 358 434 l -34 1028 l 219 1028 l 481 626 l 739 1028 l 974 1028 m 288 1115 q 197 1142 227 1115 q 166 1216 166 1168 q 196 1290 166 1264 q 288 1316 226 1316 q 378 1290 348 1316 q 409 1216 409 1264 q 378 1142 409 1168 q 288 1115 348 1115 m 661 1115 q 570 1142 601 1115 q 540 1216 540 1168 q 570 1290 540 1264 q 661 1316 601 1316 q 752 1290 722 1316 q 783 1216 783 1264 q 752 1142 783 1168 q 661 1115 722 1115 z "},"Ẏ":{"ha":950,"x_min":-34,"x_max":974,"o":"m 974 1028 l 595 436 l 595 0 l 358 0 l 358 434 l -34 1028 l 219 1028 l 481 626 l 739 1028 l 974 1028 m 474 1115 q 369 1142 404 1115 q 335 1216 335 1169 q 369 1290 335 1263 q 474 1316 404 1316 q 579 1290 544 1316 q 614 1216 614 1263 q 579 1142 614 1169 q 474 1115 544 1115 z "},"Ỵ":{"ha":950,"x_min":-34,"x_max":974,"o":"m 974 1028 l 595 436 l 595 0 l 358 0 l 358 434 l -34 1028 l 219 1028 l 481 626 l 739 1028 l 974 1028 m 474 -290 q 369 -263 404 -290 q 335 -190 335 -237 q 369 -116 335 -142 q 474 -89 404 -89 q 579 -116 544 -89 q 614 -190 614 -142 q 579 -263 614 -237 q 474 -290 544 -290 z "},"Ỳ":{"ha":950,"x_min":-34,"x_max":974,"o":"m 974 1028 l 595 436 l 595 0 l 358 0 l 358 434 l -34 1028 l 219 1028 l 481 626 l 739 1028 l 974 1028 m 369 1108 l 201 1318 l 446 1318 l 579 1108 l 369 1108 z "},"Ỷ":{"ha":950,"x_min":-34,"x_max":974,"o":"m 974 1028 l 595 436 l 595 0 l 358 0 l 358 434 l -34 1028 l 219 1028 l 481 626 l 739 1028 l 974 1028 m 417 1108 q 438 1153 418 1137 q 494 1185 458 1169 q 528 1204 517 1197 q 538 1222 538 1211 q 458 1247 538 1247 q 319 1230 391 1247 l 319 1313 q 393 1326 351 1322 q 475 1331 435 1331 q 613 1307 568 1331 q 658 1238 658 1283 q 638 1189 658 1207 q 583 1152 618 1170 q 546 1130 558 1139 q 532 1108 534 1121 l 417 1108 z "},"Ȳ":{"ha":950,"x_min":-34,"x_max":974,"o":"m 974 1028 l 595 436 l 595 0 l 358 0 l 358 434 l -34 1028 l 219 1028 l 481 626 l 739 1028 l 974 1028 m 208 1147 l 208 1280 l 741 1280 l 741 1147 l 208 1147 z "},"Ỹ":{"ha":950,"x_min":-34,"x_max":974,"o":"m 974 1028 l 595 436 l 595 0 l 358 0 l 358 434 l -34 1028 l 219 1028 l 481 626 l 739 1028 l 974 1028 m 599 1125 q 535 1132 565 1125 q 463 1152 505 1139 q 399 1170 425 1165 q 345 1176 373 1176 q 269 1165 302 1176 q 201 1129 236 1154 l 201 1256 q 266 1293 231 1281 q 350 1306 301 1306 q 414 1299 384 1306 q 485 1278 444 1292 q 550 1260 525 1266 q 603 1253 576 1253 q 680 1265 647 1253 q 747 1300 713 1276 l 747 1174 q 683 1137 718 1149 q 599 1125 648 1125 z "},"Z":{"ha":923,"x_min":49,"x_max":873,"o":"m 356 190 l 873 190 l 873 0 l 49 0 l 49 128 l 560 838 l 57 838 l 57 1028 l 866 1028 l 866 899 l 356 190 z "},"Ź":{"ha":923,"x_min":49,"x_max":873,"o":"m 356 190 l 873 190 l 873 0 l 49 0 l 49 128 l 560 838 l 57 838 l 57 1028 l 866 1028 l 866 899 l 356 190 m 355 1108 l 489 1318 l 734 1318 l 565 1108 l 355 1108 z "},"Ž":{"ha":923,"x_min":49,"x_max":873,"o":"m 356 190 l 873 190 l 873 0 l 49 0 l 49 128 l 560 838 l 57 838 l 57 1028 l 866 1028 l 866 899 l 356 190 m 576 1318 l 760 1318 l 560 1108 l 364 1108 l 163 1318 l 347 1318 l 462 1194 l 576 1318 z "},"Ż":{"ha":923,"x_min":49,"x_max":873,"o":"m 356 190 l 873 190 l 873 0 l 49 0 l 49 128 l 560 838 l 57 838 l 57 1028 l 866 1028 l 866 899 l 356 190 m 462 1115 q 357 1142 392 1115 q 322 1216 322 1169 q 357 1290 322 1263 q 462 1316 392 1316 q 567 1290 532 1316 q 601 1216 601 1263 q 567 1142 601 1169 q 462 1115 532 1115 z "},"Ẓ":{"ha":923,"x_min":49,"x_max":873,"o":"m 356 190 l 873 190 l 873 0 l 49 0 l 49 128 l 560 838 l 57 838 l 57 1028 l 866 1028 l 866 899 l 356 190 m 461 -290 q 356 -263 391 -290 q 322 -190 322 -237 q 356 -116 322 -142 q 461 -89 391 -89 q 566 -116 531 -89 q 601 -190 601 -142 q 566 -263 601 -237 q 461 -290 531 -290 z "},"a":{"ha":832,"x_min":49,"x_max":749,"o":"m 374 772 q 590 740 508 772 q 710 637 671 709 q 749 441 749 565 l 749 0 l 557 0 l 541 73 l 531 73 q 438 8 493 29 q 315 -14 382 -14 q 171 14 231 -14 q 80 92 111 42 q 49 207 49 142 q 130 375 49 315 q 384 445 211 434 l 522 456 l 522 458 q 504 544 522 513 q 445 588 485 575 q 335 601 404 601 q 226 593 285 601 q 115 569 166 585 l 115 738 q 242 763 173 754 q 374 772 312 772 m 388 141 q 459 153 424 141 q 522 190 494 165 l 522 329 l 406 320 q 309 292 338 315 q 279 227 279 269 q 307 164 279 186 q 388 141 334 141 z "},"á":{"ha":832,"x_min":49,"x_max":749,"o":"m 374 772 q 590 740 508 772 q 710 637 671 709 q 749 441 749 565 l 749 0 l 557 0 l 541 73 l 531 73 q 438 8 493 29 q 315 -14 382 -14 q 171 14 231 -14 q 80 92 111 42 q 49 207 49 142 q 130 375 49 315 q 384 445 211 434 l 522 456 l 522 458 q 504 544 522 513 q 445 588 485 575 q 335 601 404 601 q 226 593 285 601 q 115 569 166 585 l 115 738 q 242 763 173 754 q 374 772 312 772 m 388 141 q 459 153 424 141 q 522 190 494 165 l 522 329 l 406 320 q 309 292 338 315 q 279 227 279 269 q 307 164 279 186 q 388 141 334 141 m 304 856 l 471 1122 l 723 1122 l 522 856 l 304 856 z "},"ă":{"ha":832,"x_min":49,"x_max":749,"o":"m 374 772 q 590 740 508 772 q 710 637 671 709 q 749 441 749 565 l 749 0 l 557 0 l 541 73 l 531 73 q 438 8 493 29 q 315 -14 382 -14 q 171 14 231 -14 q 80 92 111 42 q 49 207 49 142 q 130 375 49 315 q 384 445 211 434 l 522 456 l 522 458 q 504 544 522 513 q 445 588 485 575 q 335 601 404 601 q 226 593 285 601 q 115 569 166 585 l 115 738 q 242 763 173 754 q 374 772 312 772 m 388 141 q 459 153 424 141 q 522 190 494 165 l 522 329 l 406 320 q 309 292 338 315 q 279 227 279 269 q 307 164 279 186 q 388 141 334 141 m 414 862 q 219 926 289 862 q 143 1107 149 990 l 283 1107 q 320 1010 288 1042 q 414 977 352 977 q 507 1010 475 977 q 544 1107 538 1042 l 683 1107 q 608 926 677 990 q 414 862 538 862 z "},"ắ":{"ha":832,"x_min":49,"x_max":749,"o":"m 374 772 q 590 740 508 772 q 710 637 671 709 q 749 441 749 565 l 749 0 l 557 0 l 541 73 l 531 73 q 438 8 493 29 q 315 -14 382 -14 q 171 14 231 -14 q 80 92 111 42 q 49 207 49 142 q 130 375 49 315 q 384 445 211 434 l 522 456 l 522 458 q 504 544 522 513 q 445 588 485 575 q 335 601 404 601 q 226 593 285 601 q 115 569 166 585 l 115 738 q 242 763 173 754 q 374 772 312 772 m 388 141 q 459 153 424 141 q 522 190 494 165 l 522 329 l 406 320 q 309 292 338 315 q 279 227 279 269 q 307 164 279 186 q 388 141 334 141 m 330 1109 l 464 1297 l 662 1297 l 493 1109 l 330 1109 m 414 865 q 215 924 285 865 q 133 1083 144 983 l 274 1083 q 414 976 292 976 q 553 1083 535 976 l 694 1083 q 612 924 682 983 q 414 865 542 865 z "},"ặ":{"ha":832,"x_min":49,"x_max":749,"o":"m 374 772 q 590 740 508 772 q 710 637 671 709 q 749 441 749 565 l 749 0 l 557 0 l 541 73 l 531 73 q 438 8 493 29 q 315 -14 382 -14 q 171 14 231 -14 q 80 92 111 42 q 49 207 49 142 q 130 375 49 315 q 384 445 211 434 l 522 456 l 522 458 q 504 544 522 513 q 445 588 485 575 q 335 601 404 601 q 226 593 285 601 q 115 569 166 585 l 115 738 q 242 763 173 754 q 374 772 312 772 m 388 141 q 459 153 424 141 q 522 190 494 165 l 522 329 l 406 320 q 309 292 338 315 q 279 227 279 269 q 307 164 279 186 q 388 141 334 141 m 417 -307 q 325 -278 356 -307 q 293 -199 293 -249 q 325 -118 293 -147 q 417 -89 356 -89 q 509 -118 477 -89 q 540 -199 540 -147 q 509 -278 540 -249 q 417 -307 477 -307 m 414 862 q 219 926 289 862 q 143 1107 149 990 l 283 1107 q 320 1010 288 1042 q 414 977 352 977 q 507 1010 475 977 q 544 1107 538 1042 l 683 1107 q 608 926 677 990 q 414 862 538 862 z "},"ằ":{"ha":832,"x_min":49,"x_max":749,"o":"m 374 772 q 590 740 508 772 q 710 637 671 709 q 749 441 749 565 l 749 0 l 557 0 l 541 73 l 531 73 q 438 8 493 29 q 315 -14 382 -14 q 171 14 231 -14 q 80 92 111 42 q 49 207 49 142 q 130 375 49 315 q 384 445 211 434 l 522 456 l 522 458 q 504 544 522 513 q 445 588 485 575 q 335 601 404 601 q 226 593 285 601 q 115 569 166 585 l 115 738 q 242 763 173 754 q 374 772 312 772 m 388 141 q 459 153 424 141 q 522 190 494 165 l 522 329 l 406 320 q 309 292 338 315 q 279 227 279 269 q 307 164 279 186 q 388 141 334 141 m 333 1109 l 165 1297 l 363 1297 l 497 1109 l 333 1109 m 414 865 q 215 924 285 865 q 133 1083 144 983 l 274 1083 q 414 976 292 976 q 553 1083 535 976 l 694 1083 q 612 924 682 983 q 414 865 542 865 z "},"ẳ":{"ha":832,"x_min":49,"x_max":749,"o":"m 374 772 q 590 740 508 772 q 710 637 671 709 q 749 441 749 565 l 749 0 l 557 0 l 541 73 l 531 73 q 438 8 493 29 q 315 -14 382 -14 q 171 14 231 -14 q 80 92 111 42 q 49 207 49 142 q 130 375 49 315 q 384 445 211 434 l 522 456 l 522 458 q 504 544 522 513 q 445 588 485 575 q 335 601 404 601 q 226 593 285 601 q 115 569 166 585 l 115 738 q 242 763 173 754 q 374 772 312 772 m 388 141 q 459 153 424 141 q 522 190 494 165 l 522 329 l 406 320 q 309 292 338 315 q 279 227 279 269 q 307 164 279 186 q 388 141 334 141 m 356 1109 q 377 1150 357 1135 q 432 1179 397 1165 q 466 1195 455 1188 q 477 1213 477 1203 q 397 1236 477 1236 q 258 1219 331 1236 l 258 1292 q 333 1305 290 1300 q 414 1310 375 1310 q 551 1288 506 1310 q 597 1226 597 1266 q 577 1182 597 1198 q 522 1149 558 1166 q 485 1130 498 1138 q 471 1109 473 1121 l 356 1109 m 414 865 q 215 924 285 865 q 133 1083 144 983 l 274 1083 q 414 976 292 976 q 553 1083 535 976 l 694 1083 q 612 924 682 983 q 414 865 542 865 z "},"ẵ":{"ha":832,"x_min":49,"x_max":749,"o":"m 374 772 q 590 740 508 772 q 710 637 671 709 q 749 441 749 565 l 749 0 l 557 0 l 541 73 l 531 73 q 438 8 493 29 q 315 -14 382 -14 q 171 14 231 -14 q 80 92 111 42 q 49 207 49 142 q 130 375 49 315 q 384 445 211 434 l 522 456 l 522 458 q 504 544 522 513 q 445 588 485 575 q 335 601 404 601 q 226 593 285 601 q 115 569 166 585 l 115 738 q 242 763 173 754 q 374 772 312 772 m 388 141 q 459 153 424 141 q 522 190 494 165 l 522 329 l 406 320 q 309 292 338 315 q 279 227 279 269 q 307 164 279 186 q 388 141 334 141 m 542 1125 q 476 1131 507 1125 q 401 1149 446 1137 q 334 1166 360 1160 q 279 1172 308 1172 q 200 1161 235 1172 q 128 1129 165 1151 l 128 1240 q 196 1274 159 1263 q 284 1285 233 1285 q 351 1278 320 1285 q 425 1260 383 1272 q 492 1243 466 1249 q 547 1238 519 1238 q 626 1248 592 1238 q 698 1280 661 1258 l 698 1169 q 631 1135 667 1146 q 542 1125 594 1125 m 414 865 q 215 924 285 865 q 133 1083 144 983 l 274 1083 q 414 976 292 976 q 553 1083 535 976 l 694 1083 q 612 924 682 983 q 414 865 542 865 z "},"â":{"ha":832,"x_min":49,"x_max":749,"o":"m 374 772 q 590 740 508 772 q 710 637 671 709 q 749 441 749 565 l 749 0 l 557 0 l 541 73 l 531 73 q 438 8 493 29 q 315 -14 382 -14 q 171 14 231 -14 q 80 92 111 42 q 49 207 49 142 q 130 375 49 315 q 384 445 211 434 l 522 456 l 522 458 q 504 544 522 513 q 445 588 485 575 q 335 601 404 601 q 226 593 285 601 q 115 569 166 585 l 115 738 q 242 763 173 754 q 374 772 312 772 m 388 141 q 459 153 424 141 q 522 190 494 165 l 522 329 l 406 320 q 309 292 338 315 q 279 227 279 269 q 307 164 279 186 q 388 141 334 141 m 683 856 l 514 856 l 413 1015 l 313 856 l 143 856 l 321 1122 l 506 1122 l 683 856 z "},"ấ":{"ha":832,"x_min":49,"x_max":908,"o":"m 374 772 q 590 740 508 772 q 710 637 671 709 q 749 441 749 565 l 749 0 l 557 0 l 541 73 l 531 73 q 438 8 493 29 q 315 -14 382 -14 q 171 14 231 -14 q 80 92 111 42 q 49 207 49 142 q 130 375 49 315 q 384 445 211 434 l 522 456 l 522 458 q 504 544 522 513 q 445 588 485 575 q 335 601 404 601 q 226 593 285 601 q 115 569 166 585 l 115 738 q 242 763 173 754 q 374 772 312 772 m 388 141 q 459 153 424 141 q 522 190 494 165 l 522 329 l 406 320 q 309 292 338 315 q 279 227 279 269 q 307 164 279 186 q 388 141 334 141 m 709 1297 l 908 1297 l 739 1109 l 576 1109 l 709 1297 m 321 1122 l 506 1122 l 683 856 l 514 856 l 413 1015 l 313 856 l 143 856 l 321 1122 z "},"ậ":{"ha":832,"x_min":49,"x_max":749,"o":"m 374 772 q 590 740 508 772 q 710 637 671 709 q 749 441 749 565 l 749 0 l 557 0 l 541 73 l 531 73 q 438 8 493 29 q 315 -14 382 -14 q 171 14 231 -14 q 80 92 111 42 q 49 207 49 142 q 130 375 49 315 q 384 445 211 434 l 522 456 l 522 458 q 504 544 522 513 q 445 588 485 575 q 335 601 404 601 q 226 593 285 601 q 115 569 166 585 l 115 738 q 242 763 173 754 q 374 772 312 772 m 388 141 q 459 153 424 141 q 522 190 494 165 l 522 329 l 406 320 q 309 292 338 315 q 279 227 279 269 q 307 164 279 186 q 388 141 334 141 m 417 -307 q 325 -278 356 -307 q 293 -199 293 -249 q 325 -118 293 -147 q 417 -89 356 -89 q 509 -118 477 -89 q 540 -199 540 -147 q 509 -278 540 -249 q 417 -307 477 -307 m 683 856 l 514 856 l 413 1015 l 313 856 l 143 856 l 321 1122 l 506 1122 l 683 856 z "},"ầ":{"ha":832,"x_min":49,"x_max":762,"o":"m 374 772 q 590 740 508 772 q 710 637 671 709 q 749 441 749 565 l 749 0 l 557 0 l 541 73 l 531 73 q 438 8 493 29 q 315 -14 382 -14 q 171 14 231 -14 q 80 92 111 42 q 49 207 49 142 q 130 375 49 315 q 384 445 211 434 l 522 456 l 522 458 q 504 544 522 513 q 445 588 485 575 q 335 601 404 601 q 226 593 285 601 q 115 569 166 585 l 115 738 q 242 763 173 754 q 374 772 312 772 m 388 141 q 459 153 424 141 q 522 190 494 165 l 522 329 l 406 320 q 309 292 338 315 q 279 227 279 269 q 307 164 279 186 q 388 141 334 141 m 762 1109 l 598 1109 l 430 1297 l 628 1297 l 762 1109 m 321 1122 l 506 1122 l 683 856 l 514 856 l 413 1015 l 313 856 l 143 856 l 321 1122 z "},"ẩ":{"ha":832,"x_min":49,"x_max":794,"o":"m 374 772 q 590 740 508 772 q 710 637 671 709 q 749 441 749 565 l 749 0 l 557 0 l 541 73 l 531 73 q 438 8 493 29 q 315 -14 382 -14 q 171 14 231 -14 q 80 92 111 42 q 49 207 49 142 q 130 375 49 315 q 384 445 211 434 l 522 456 l 522 458 q 504 544 522 513 q 445 588 485 575 q 335 601 404 601 q 226 593 285 601 q 115 569 166 585 l 115 738 q 242 763 173 754 q 374 772 312 772 m 388 141 q 459 153 424 141 q 522 190 494 165 l 522 329 l 406 320 q 309 292 338 315 q 279 227 279 269 q 307 164 279 186 q 388 141 334 141 m 627 1310 q 753 1289 713 1310 q 794 1226 794 1269 q 778 1190 794 1203 q 734 1162 763 1176 q 695 1138 708 1149 q 678 1109 681 1126 l 574 1109 q 595 1156 576 1140 q 647 1185 615 1172 q 674 1199 665 1194 q 682 1213 682 1205 q 665 1231 682 1225 q 610 1238 648 1238 q 483 1222 542 1238 l 483 1292 q 550 1305 510 1300 q 627 1310 591 1310 m 321 1122 l 506 1122 l 683 856 l 514 856 l 413 1015 l 313 856 l 143 856 l 321 1122 z "},"ẫ":{"ha":832,"x_min":49,"x_max":749,"o":"m 374 772 q 590 740 508 772 q 710 637 671 709 q 749 441 749 565 l 749 0 l 557 0 l 541 73 l 531 73 q 438 8 493 29 q 315 -14 382 -14 q 171 14 231 -14 q 80 92 111 42 q 49 207 49 142 q 130 375 49 315 q 384 445 211 434 l 522 456 l 522 458 q 504 544 522 513 q 445 588 485 575 q 335 601 404 601 q 226 593 285 601 q 115 569 166 585 l 115 738 q 242 763 173 754 q 374 772 312 772 m 388 141 q 459 153 424 141 q 522 190 494 165 l 522 329 l 406 320 q 309 292 338 315 q 279 227 279 269 q 307 164 279 186 q 388 141 334 141 m 535 1125 q 473 1131 502 1125 q 402 1149 444 1137 q 338 1166 363 1160 q 286 1172 313 1172 q 211 1161 244 1172 q 144 1129 178 1151 l 144 1240 q 208 1274 173 1263 q 291 1285 243 1285 q 354 1278 324 1285 q 424 1260 384 1272 q 489 1243 464 1249 q 540 1238 513 1238 q 616 1248 583 1238 q 683 1280 649 1258 l 683 1169 q 618 1135 653 1146 q 535 1125 583 1125 m 708 858 l 526 858 l 413 997 l 301 858 l 119 858 l 315 1085 l 511 1085 l 708 858 z "},"ȁ":{"ha":832,"x_min":49,"x_max":749,"o":"m 374 772 q 590 740 508 772 q 710 637 671 709 q 749 441 749 565 l 749 0 l 557 0 l 541 73 l 531 73 q 438 8 493 29 q 315 -14 382 -14 q 171 14 231 -14 q 80 92 111 42 q 49 207 49 142 q 130 375 49 315 q 384 445 211 434 l 522 456 l 522 458 q 504 544 522 513 q 445 588 485 575 q 335 601 404 601 q 226 593 285 601 q 115 569 166 585 l 115 738 q 242 763 173 754 q 374 772 312 772 m 388 141 q 459 153 424 141 q 522 190 494 165 l 522 329 l 406 320 q 309 292 338 315 q 279 227 279 269 q 307 164 279 186 q 388 141 334 141 m 185 856 l 65 1122 l 246 1122 l 353 856 l 185 856 m 474 856 l 354 1122 l 534 1122 l 641 856 l 474 856 z "},"ä":{"ha":832,"x_min":49,"x_max":749,"o":"m 374 772 q 590 740 508 772 q 710 637 671 709 q 749 441 749 565 l 749 0 l 557 0 l 541 73 l 531 73 q 438 8 493 29 q 315 -14 382 -14 q 171 14 231 -14 q 80 92 111 42 q 49 207 49 142 q 130 375 49 315 q 384 445 211 434 l 522 456 l 522 458 q 504 544 522 513 q 445 588 485 575 q 335 601 404 601 q 226 593 285 601 q 115 569 166 585 l 115 738 q 242 763 173 754 q 374 772 312 772 m 388 141 q 459 153 424 141 q 522 190 494 165 l 522 329 l 406 320 q 309 292 338 315 q 279 227 279 269 q 307 164 279 186 q 388 141 334 141 m 235 873 q 142 902 174 873 q 111 985 111 932 q 142 1069 111 1040 q 235 1099 174 1099 q 327 1069 296 1099 q 358 985 358 1040 q 327 902 358 932 q 235 873 296 873 m 592 873 q 499 902 531 873 q 468 985 468 932 q 499 1069 468 1040 q 592 1099 531 1099 q 684 1069 653 1099 q 715 985 715 1040 q 684 902 715 932 q 592 873 653 873 z "},"ạ":{"ha":832,"x_min":49,"x_max":749,"o":"m 374 772 q 590 740 508 772 q 710 637 671 709 q 749 441 749 565 l 749 0 l 557 0 l 541 73 l 531 73 q 438 8 493 29 q 315 -14 382 -14 q 171 14 231 -14 q 80 92 111 42 q 49 207 49 142 q 130 375 49 315 q 384 445 211 434 l 522 456 l 522 458 q 504 544 522 513 q 445 588 485 575 q 335 601 404 601 q 226 593 285 601 q 115 569 166 585 l 115 738 q 242 763 173 754 q 374 772 312 772 m 388 141 q 459 153 424 141 q 522 190 494 165 l 522 329 l 406 320 q 309 292 338 315 q 279 227 279 269 q 307 164 279 186 q 388 141 334 141 m 417 -307 q 325 -278 356 -307 q 293 -199 293 -249 q 325 -118 293 -147 q 417 -89 356 -89 q 509 -118 477 -89 q 540 -199 540 -147 q 509 -278 540 -249 q 417 -307 477 -307 z "},"à":{"ha":832,"x_min":49,"x_max":749,"o":"m 374 772 q 590 740 508 772 q 710 637 671 709 q 749 441 749 565 l 749 0 l 557 0 l 541 73 l 531 73 q 438 8 493 29 q 315 -14 382 -14 q 171 14 231 -14 q 80 92 111 42 q 49 207 49 142 q 130 375 49 315 q 384 445 211 434 l 522 456 l 522 458 q 504 544 522 513 q 445 588 485 575 q 335 601 404 601 q 226 593 285 601 q 115 569 166 585 l 115 738 q 242 763 173 754 q 374 772 312 772 m 388 141 q 459 153 424 141 q 522 190 494 165 l 522 329 l 406 320 q 309 292 338 315 q 279 227 279 269 q 307 164 279 186 q 388 141 334 141 m 304 856 l 103 1122 l 356 1122 l 522 856 l 304 856 z "},"ả":{"ha":832,"x_min":49,"x_max":749,"o":"m 374 772 q 590 740 508 772 q 710 637 671 709 q 749 441 749 565 l 749 0 l 557 0 l 541 73 l 531 73 q 438 8 493 29 q 315 -14 382 -14 q 171 14 231 -14 q 80 92 111 42 q 49 207 49 142 q 130 375 49 315 q 384 445 211 434 l 522 456 l 522 458 q 504 544 522 513 q 445 588 485 575 q 335 601 404 601 q 226 593 285 601 q 115 569 166 585 l 115 738 q 242 763 173 754 q 374 772 312 772 m 388 141 q 459 153 424 141 q 522 190 494 165 l 522 329 l 406 320 q 309 292 338 315 q 279 227 279 269 q 307 164 279 186 q 388 141 334 141 m 356 856 q 368 904 357 884 q 392 937 378 924 q 428 965 406 949 q 457 988 448 978 q 467 1010 467 998 q 450 1036 467 1028 q 394 1044 433 1044 q 274 1027 335 1044 l 274 1113 q 339 1126 301 1122 q 410 1131 377 1131 q 543 1105 500 1131 q 585 1024 585 1078 q 577 983 585 1000 q 557 954 569 965 q 525 928 545 943 q 486 895 499 910 q 471 856 473 880 l 356 856 z "},"ȃ":{"ha":832,"x_min":49,"x_max":749,"o":"m 374 772 q 590 740 508 772 q 710 637 671 709 q 749 441 749 565 l 749 0 l 557 0 l 541 73 l 531 73 q 438 8 493 29 q 315 -14 382 -14 q 171 14 231 -14 q 80 92 111 42 q 49 207 49 142 q 130 375 49 315 q 384 445 211 434 l 522 456 l 522 458 q 504 544 522 513 q 445 588 485 575 q 335 601 404 601 q 226 593 285 601 q 115 569 166 585 l 115 738 q 242 763 173 754 q 374 772 312 772 m 388 141 q 459 153 424 141 q 522 190 494 165 l 522 329 l 406 320 q 309 292 338 315 q 279 227 279 269 q 307 164 279 186 q 388 141 334 141 m 143 876 q 218 1057 149 993 q 413 1121 288 1121 q 607 1057 538 1121 q 683 876 677 992 l 544 876 q 506 973 538 940 q 413 1006 474 1006 q 319 973 351 1006 q 283 876 288 940 l 143 876 z "},"ā":{"ha":832,"x_min":49,"x_max":749,"o":"m 374 772 q 590 740 508 772 q 710 637 671 709 q 749 441 749 565 l 749 0 l 557 0 l 541 73 l 531 73 q 438 8 493 29 q 315 -14 382 -14 q 171 14 231 -14 q 80 92 111 42 q 49 207 49 142 q 130 375 49 315 q 384 445 211 434 l 522 456 l 522 458 q 504 544 522 513 q 445 588 485 575 q 335 601 404 601 q 226 593 285 601 q 115 569 166 585 l 115 738 q 242 763 173 754 q 374 772 312 772 m 388 141 q 459 153 424 141 q 522 190 494 165 l 522 329 l 406 320 q 309 292 338 315 q 279 227 279 269 q 307 164 279 186 q 388 141 334 141 m 156 920 l 156 1053 l 670 1053 l 670 920 l 156 920 z "},"ą":{"ha":832,"x_min":49,"x_max":779,"o":"m 690 -217 q 779 -195 733 -217 l 779 -283 q 657 -307 723 -307 q 518 -268 566 -307 q 469 -162 469 -230 q 494 -73 469 -114 q 574 0 519 -33 l 557 0 l 541 73 l 531 73 q 438 8 493 29 q 315 -14 382 -14 q 171 14 231 -14 q 80 92 111 42 q 49 207 49 142 q 130 375 49 315 q 384 445 211 434 l 522 456 l 522 458 q 504 544 522 513 q 445 588 485 575 q 335 601 404 601 q 226 593 285 601 q 115 569 166 585 l 115 738 q 242 763 173 754 q 374 772 312 772 q 590 740 508 772 q 710 637 671 709 q 749 441 749 565 l 749 0 q 634 -68 667 -33 q 601 -147 601 -103 q 624 -198 601 -179 q 690 -217 647 -217 m 388 141 q 459 153 424 141 q 522 190 494 165 l 522 329 l 406 320 q 309 292 338 315 q 279 227 279 269 q 307 164 279 186 q 388 141 334 141 z "},"å":{"ha":832,"x_min":49,"x_max":749,"o":"m 374 772 q 590 740 508 772 q 710 637 671 709 q 749 441 749 565 l 749 0 l 557 0 l 541 73 l 531 73 q 438 8 493 29 q 315 -14 382 -14 q 171 14 231 -14 q 80 92 111 42 q 49 207 49 142 q 130 375 49 315 q 384 445 211 434 l 522 456 l 522 458 q 504 544 522 513 q 445 588 485 575 q 335 601 404 601 q 226 593 285 601 q 115 569 166 585 l 115 738 q 242 763 173 754 q 374 772 312 772 m 388 141 q 459 153 424 141 q 522 190 494 165 l 522 329 l 406 320 q 309 292 338 315 q 279 227 279 269 q 307 164 279 186 q 388 141 334 141 m 413 853 q 337 872 371 853 q 283 923 303 890 q 264 998 264 956 q 283 1073 264 1040 q 337 1124 303 1106 q 413 1143 371 1143 q 490 1124 456 1143 q 543 1073 524 1106 q 563 998 563 1040 q 543 923 563 956 q 490 872 524 890 q 413 853 456 853 m 413 931 q 460 949 442 931 q 478 998 478 967 q 460 1047 478 1028 q 413 1065 442 1065 q 366 1047 384 1065 q 348 998 348 1028 q 366 949 348 967 q 413 931 384 931 z "},"ǻ":{"ha":832,"x_min":49,"x_max":749,"o":"m 374 772 q 590 740 508 772 q 710 637 671 709 q 749 441 749 565 l 749 0 l 557 0 l 541 73 l 531 73 q 438 8 493 29 q 315 -14 382 -14 q 171 14 231 -14 q 80 92 111 42 q 49 207 49 142 q 130 375 49 315 q 384 445 211 434 l 522 456 l 522 458 q 504 544 522 513 q 445 588 485 575 q 335 601 404 601 q 226 593 285 601 q 115 569 166 585 l 115 738 q 242 763 173 754 q 374 772 312 772 m 388 141 q 459 153 424 141 q 522 190 494 165 l 522 329 l 406 320 q 309 292 338 315 q 279 227 279 269 q 307 164 279 186 q 388 141 334 141 m 542 1074 q 563 998 563 1040 q 543 923 563 956 q 490 872 524 890 q 413 853 456 853 q 337 872 371 853 q 283 923 303 890 q 264 998 264 956 q 283 1073 264 1040 q 337 1124 303 1106 q 413 1143 371 1143 q 447 1140 429 1143 l 522 1236 l 682 1236 l 542 1074 m 413 931 q 460 949 442 931 q 478 998 478 967 q 460 1047 478 1028 q 413 1065 442 1065 q 366 1047 384 1065 q 348 998 348 1028 q 366 949 348 967 q 413 931 384 931 z "},"ã":{"ha":832,"x_min":49,"x_max":749,"o":"m 374 772 q 590 740 508 772 q 710 637 671 709 q 749 441 749 565 l 749 0 l 557 0 l 541 73 l 531 73 q 438 8 493 29 q 315 -14 382 -14 q 171 14 231 -14 q 80 92 111 42 q 49 207 49 142 q 130 375 49 315 q 384 445 211 434 l 522 456 l 522 458 q 504 544 522 513 q 445 588 485 575 q 335 601 404 601 q 226 593 285 601 q 115 569 166 585 l 115 738 q 242 763 173 754 q 374 772 312 772 m 388 141 q 459 153 424 141 q 522 190 494 165 l 522 329 l 406 320 q 309 292 338 315 q 279 227 279 269 q 307 164 279 186 q 388 141 334 141 m 526 892 q 468 900 496 892 q 402 926 440 909 q 342 949 365 942 q 295 956 319 956 q 223 942 255 956 q 156 897 190 928 l 156 1037 q 220 1078 185 1065 q 300 1091 255 1091 q 358 1082 331 1091 q 424 1057 386 1074 q 484 1034 462 1041 q 531 1026 507 1026 q 604 1040 572 1026 q 670 1085 636 1054 l 670 946 q 607 905 642 918 q 526 892 572 892 z "},"æ":{"ha":1286,"x_min":49,"x_max":1242,"o":"m 1242 315 l 749 315 q 777 221 753 256 q 853 170 801 186 q 994 155 905 155 q 1197 178 1088 155 l 1197 11 q 960 -15 1078 -15 q 751 13 838 -15 q 611 97 665 40 q 334 -14 498 -14 q 177 14 241 -14 q 81 91 113 42 q 49 208 49 141 q 133 381 49 319 q 391 444 217 444 l 523 444 l 523 458 q 504 544 523 513 q 444 588 485 575 q 334 601 403 601 q 226 593 285 601 q 115 569 167 585 l 115 738 q 239 763 174 755 q 365 772 304 772 q 541 749 470 772 q 653 677 612 726 q 761 748 699 724 q 902 772 824 772 q 1086 726 1010 772 q 1202 590 1163 680 q 1242 372 1242 501 l 1242 315 m 889 628 q 786 585 821 628 q 749 444 751 542 l 1027 444 q 990 585 1024 542 q 889 628 956 628 m 390 141 q 473 156 435 141 q 547 208 511 172 q 526 318 531 256 l 412 318 q 279 226 279 318 q 307 163 279 185 q 390 141 335 141 z "},"ǽ":{"ha":1286,"x_min":49,"x_max":1242,"o":"m 1242 315 l 749 315 q 777 221 753 256 q 853 170 801 186 q 994 155 905 155 q 1197 178 1088 155 l 1197 11 q 960 -15 1078 -15 q 751 13 838 -15 q 611 97 665 40 q 334 -14 498 -14 q 177 14 241 -14 q 81 91 113 42 q 49 208 49 141 q 133 381 49 319 q 391 444 217 444 l 523 444 l 523 458 q 504 544 523 513 q 444 588 485 575 q 334 601 403 601 q 226 593 285 601 q 115 569 167 585 l 115 738 q 239 763 174 755 q 365 772 304 772 q 541 749 470 772 q 653 677 612 726 q 761 748 699 724 q 902 772 824 772 q 1086 726 1010 772 q 1202 590 1163 680 q 1242 372 1242 501 l 1242 315 m 889 628 q 786 585 821 628 q 749 444 751 542 l 1027 444 q 990 585 1024 542 q 889 628 956 628 m 390 141 q 473 156 435 141 q 547 208 511 172 q 526 318 531 256 l 412 318 q 279 226 279 318 q 307 163 279 185 q 390 141 335 141 m 532 856 l 699 1122 l 951 1122 l 750 856 l 532 856 z "},"b":{"ha":919,"x_min":90,"x_max":865,"o":"m 408 -15 q 242 -4 324 -15 q 90 29 159 7 l 90 1122 l 322 1122 l 322 688 l 333 688 q 426 750 372 728 q 548 772 481 772 q 709 731 638 772 q 823 606 781 690 q 865 397 865 522 q 750 90 865 195 q 408 -15 634 -15 m 428 160 q 584 213 533 160 q 635 380 635 266 q 590 538 635 491 q 465 585 546 585 q 387 573 424 585 q 322 535 350 560 l 322 173 q 428 160 369 160 z "},"c":{"ha":726,"x_min":53,"x_max":688,"o":"m 479 -15 q 163 85 272 -15 q 53 378 53 184 q 167 672 53 573 q 500 772 281 772 q 688 752 606 772 l 688 572 q 526 589 601 589 q 347 539 403 589 q 290 379 290 488 q 344 219 290 270 q 508 169 399 169 q 590 175 549 169 q 688 195 631 181 l 688 15 q 479 -15 593 -15 z "},"ć":{"ha":726,"x_min":53,"x_max":715,"o":"m 479 -15 q 163 85 272 -15 q 53 378 53 184 q 167 672 53 573 q 500 772 281 772 q 688 752 606 772 l 688 572 q 526 589 601 589 q 347 539 403 589 q 290 379 290 488 q 344 219 290 270 q 508 169 399 169 q 590 175 549 169 q 688 195 631 181 l 688 15 q 479 -15 593 -15 m 296 856 l 463 1122 l 715 1122 l 514 856 l 296 856 z "},"č":{"ha":726,"x_min":53,"x_max":688,"o":"m 479 -15 q 163 85 272 -15 q 53 378 53 184 q 167 672 53 573 q 500 772 281 772 q 688 752 606 772 l 688 572 q 526 589 601 589 q 347 539 403 589 q 290 379 290 488 q 344 219 290 270 q 508 169 399 169 q 590 175 549 169 q 688 195 631 181 l 688 15 q 479 -15 593 -15 m 506 1122 l 676 1122 l 497 856 l 313 856 l 133 1122 l 303 1122 l 405 964 l 506 1122 z "},"ç":{"ha":726,"x_min":53,"x_max":688,"o":"m 526 589 q 347 539 403 589 q 290 379 290 488 q 344 219 290 270 q 508 169 399 169 q 590 175 549 169 q 688 195 631 181 l 688 15 q 479 -15 593 -15 l 478 -15 l 478 -60 q 566 -101 536 -69 q 595 -183 595 -133 q 549 -274 595 -242 q 415 -307 503 -307 q 283 -284 340 -307 l 283 -198 q 343 -215 310 -209 q 406 -221 376 -221 q 459 -209 441 -221 q 476 -172 476 -198 q 459 -135 476 -147 q 406 -123 441 -123 l 370 -123 l 370 -7 q 134 114 215 17 q 53 378 53 211 q 167 672 53 573 q 500 772 281 772 q 688 752 606 772 l 688 572 q 526 589 601 589 z "},"ḉ":{"ha":726,"x_min":53,"x_max":715,"o":"m 715 1122 l 514 856 l 296 856 l 463 1122 l 715 1122 m 53 378 q 167 672 53 573 q 500 772 281 772 q 688 752 606 772 l 688 572 q 526 589 601 589 q 347 539 403 589 q 290 379 290 488 q 344 219 290 270 q 508 169 399 169 q 590 175 549 169 q 688 195 631 181 l 688 15 q 479 -15 593 -15 l 478 -15 l 478 -60 q 566 -101 536 -69 q 595 -183 595 -133 q 549 -274 595 -242 q 415 -307 503 -307 q 283 -284 340 -307 l 283 -198 q 343 -215 310 -209 q 406 -221 376 -221 q 459 -209 441 -221 q 476 -172 476 -198 q 459 -135 476 -147 q 406 -123 441 -123 l 370 -123 l 370 -7 q 134 114 215 17 q 53 378 53 211 z "},"ĉ":{"ha":726,"x_min":53,"x_max":688,"o":"m 479 -15 q 163 85 272 -15 q 53 378 53 184 q 167 672 53 573 q 500 772 281 772 q 688 752 606 772 l 688 572 q 526 589 601 589 q 347 539 403 589 q 290 379 290 488 q 344 219 290 270 q 508 169 399 169 q 590 175 549 169 q 688 195 631 181 l 688 15 q 479 -15 593 -15 m 675 856 l 506 856 l 405 1015 l 304 856 l 135 856 l 313 1122 l 497 1122 l 675 856 z "},"ċ":{"ha":726,"x_min":53,"x_max":688,"o":"m 479 -15 q 163 85 272 -15 q 53 378 53 184 q 167 672 53 573 q 500 772 281 772 q 688 752 606 772 l 688 572 q 526 589 601 589 q 347 539 403 589 q 290 379 290 488 q 344 219 290 270 q 508 169 399 169 q 590 175 549 169 q 688 195 631 181 l 688 15 q 479 -15 593 -15 m 405 870 q 298 900 333 870 q 263 985 263 929 q 298 1072 263 1042 q 405 1101 333 1101 q 512 1072 476 1101 q 547 985 547 1042 q 512 900 547 929 q 405 870 476 870 z "},"d":{"ha":919,"x_min":53,"x_max":829,"o":"m 390 -13 q 218 26 294 -13 q 98 150 142 66 q 53 364 53 235 q 104 587 53 495 q 250 726 154 678 q 483 773 347 773 q 597 766 531 773 l 597 1122 l 829 1122 l 829 0 l 635 0 l 622 78 l 611 78 q 515 11 572 35 q 390 -13 458 -13 m 453 174 q 532 188 494 174 q 597 230 570 201 l 597 588 q 493 598 547 598 q 335 545 387 598 q 284 381 284 493 q 328 222 284 269 q 453 174 372 174 z "},"ð":{"ha":902,"x_min":53,"x_max":851,"o":"m 681 906 q 806 670 760 794 q 851 426 851 546 q 747 95 851 205 q 451 -15 643 -15 q 240 31 329 -15 q 102 164 150 76 q 53 379 53 253 q 100 593 53 506 q 230 723 146 679 q 428 766 315 766 q 536 749 487 766 q 458 869 505 808 l 137 817 l 114 944 l 356 983 q 181 1122 274 1062 l 467 1122 q 585 1021 526 1081 l 804 1057 l 826 930 l 681 906 m 451 162 q 576 214 534 162 q 618 378 618 265 q 576 545 618 494 q 451 596 535 596 q 326 545 368 596 q 284 380 284 494 q 326 213 284 265 q 451 162 368 162 z "},"ď":{"ha":919,"x_min":53,"x_max":1055,"o":"m 390 -13 q 218 26 294 -13 q 98 150 142 66 q 53 364 53 235 q 104 587 53 495 q 250 726 154 678 q 483 773 347 773 q 597 766 531 773 l 597 1122 l 829 1122 l 829 0 l 635 0 l 622 78 l 611 78 q 515 11 572 35 q 390 -13 458 -13 m 453 174 q 532 188 494 174 q 597 230 570 201 l 597 588 q 493 598 547 598 q 335 545 387 598 q 284 381 284 493 q 328 222 284 269 q 453 174 372 174 m 881 819 q 898 966 893 894 q 902 1122 902 1038 l 1055 1122 q 1042 962 1055 1041 q 1005 819 1028 883 l 881 819 z "},"đ":{"ha":919,"x_min":53,"x_max":915,"o":"m 915 872 l 829 872 l 829 0 l 635 0 l 622 78 l 611 78 q 515 11 572 35 q 390 -13 458 -13 q 218 26 294 -13 q 98 150 142 66 q 53 364 53 235 q 104 587 53 495 q 250 726 154 678 q 483 773 347 773 q 597 766 531 773 l 597 872 l 331 872 l 331 1010 l 597 1010 l 597 1122 l 829 1122 l 829 1010 l 915 1010 l 915 872 m 597 588 q 493 598 547 598 q 335 545 387 598 q 284 381 284 493 q 328 222 284 269 q 453 174 372 174 q 532 188 494 174 q 597 230 570 201 l 597 588 z "},"ḍ":{"ha":919,"x_min":53,"x_max":829,"o":"m 390 -13 q 218 26 294 -13 q 98 150 142 66 q 53 364 53 235 q 104 587 53 495 q 250 726 154 678 q 483 773 347 773 q 597 766 531 773 l 597 1122 l 829 1122 l 829 0 l 635 0 l 622 78 l 611 78 q 515 11 572 35 q 390 -13 458 -13 m 453 174 q 532 188 494 174 q 597 230 570 201 l 597 588 q 493 598 547 598 q 335 545 387 598 q 284 381 284 493 q 328 222 284 269 q 453 174 372 174 m 466 -307 q 374 -278 406 -307 q 342 -199 342 -249 q 374 -118 342 -147 q 466 -89 406 -89 q 558 -118 526 -89 q 590 -199 590 -147 q 558 -278 590 -249 q 466 -307 526 -307 z "},"ḏ":{"ha":919,"x_min":53,"x_max":829,"o":"m 390 -13 q 218 26 294 -13 q 98 150 142 66 q 53 364 53 235 q 104 587 53 495 q 250 726 154 678 q 483 773 347 773 q 597 766 531 773 l 597 1122 l 829 1122 l 829 0 l 635 0 l 622 78 l 611 78 q 515 11 572 35 q 390 -13 458 -13 m 453 174 q 532 188 494 174 q 597 230 570 201 l 597 588 q 493 598 547 598 q 335 545 387 598 q 284 381 284 493 q 328 222 284 269 q 453 174 372 174 m 216 -262 l 216 -131 l 716 -131 l 716 -262 l 216 -262 z "},"ǳ":{"ha":1688,"x_min":53,"x_max":1646,"o":"m 390 -13 q 218 26 294 -13 q 98 150 142 66 q 53 364 53 235 q 104 587 53 495 q 250 726 154 678 q 483 773 347 773 q 597 766 531 773 l 597 1122 l 829 1122 l 829 0 l 635 0 l 622 78 l 611 78 q 515 11 572 35 q 390 -13 458 -13 m 453 174 q 532 188 494 174 q 597 230 570 201 l 597 588 q 493 598 547 598 q 335 545 387 598 q 284 381 284 493 q 328 222 284 269 q 453 174 372 174 m 1272 183 l 1646 183 l 1646 0 l 972 0 l 972 149 l 1338 577 l 979 577 l 979 760 l 1638 760 l 1638 611 l 1272 183 z "},"ǆ":{"ha":1688,"x_min":53,"x_max":1646,"o":"m 390 -13 q 218 26 294 -13 q 98 150 142 66 q 53 364 53 235 q 104 587 53 495 q 250 726 154 678 q 483 773 347 773 q 597 766 531 773 l 597 1122 l 829 1122 l 829 0 l 635 0 l 622 78 l 611 78 q 515 11 572 35 q 390 -13 458 -13 m 453 174 q 532 188 494 174 q 597 230 570 201 l 597 588 q 493 598 547 598 q 335 545 387 598 q 284 381 284 493 q 328 222 284 269 q 453 174 372 174 m 1272 183 l 1646 183 l 1646 0 l 972 0 l 972 149 l 1338 577 l 979 577 l 979 760 l 1638 760 l 1638 611 l 1272 183 m 1410 1122 l 1581 1122 l 1401 856 l 1217 856 l 1038 1122 l 1208 1122 l 1309 964 l 1410 1122 z "},"e":{"ha":825,"x_min":53,"x_max":781,"o":"m 781 315 l 283 315 q 312 220 288 255 q 389 170 336 186 q 533 155 441 155 q 735 178 626 155 l 735 11 q 498 -15 617 -15 q 247 27 345 -15 q 101 155 149 69 q 53 378 53 242 q 97 592 53 503 q 225 726 141 680 q 428 772 309 772 q 691 668 601 772 q 781 372 781 565 l 781 315 m 426 628 q 320 585 356 628 q 283 444 285 542 l 566 444 q 529 585 563 542 q 426 628 494 628 z "},"é":{"ha":825,"x_min":53,"x_max":781,"o":"m 781 315 l 283 315 q 312 220 288 255 q 389 170 336 186 q 533 155 441 155 q 735 178 626 155 l 735 11 q 498 -15 617 -15 q 247 27 345 -15 q 101 155 149 69 q 53 378 53 242 q 97 592 53 503 q 225 726 141 680 q 428 772 309 772 q 691 668 601 772 q 781 372 781 565 l 781 315 m 426 628 q 320 585 356 628 q 283 444 285 542 l 566 444 q 529 585 563 542 q 426 628 494 628 m 316 856 l 483 1122 l 735 1122 l 534 856 l 316 856 z "},"ĕ":{"ha":825,"x_min":53,"x_max":781,"o":"m 781 315 l 283 315 q 312 220 288 255 q 389 170 336 186 q 533 155 441 155 q 735 178 626 155 l 735 11 q 498 -15 617 -15 q 247 27 345 -15 q 101 155 149 69 q 53 378 53 242 q 97 592 53 503 q 225 726 141 680 q 428 772 309 772 q 691 668 601 772 q 781 372 781 565 l 781 315 m 426 628 q 320 585 356 628 q 283 444 285 542 l 566 444 q 529 585 563 542 q 426 628 494 628 m 426 862 q 231 926 301 862 q 155 1107 161 990 l 294 1107 q 332 1010 300 1042 q 426 977 364 977 q 518 1010 487 977 q 556 1107 550 1042 l 695 1107 q 619 926 689 990 q 426 862 550 862 z "},"ě":{"ha":825,"x_min":53,"x_max":781,"o":"m 781 315 l 283 315 q 312 220 288 255 q 389 170 336 186 q 533 155 441 155 q 735 178 626 155 l 735 11 q 498 -15 617 -15 q 247 27 345 -15 q 101 155 149 69 q 53 378 53 242 q 97 592 53 503 q 225 726 141 680 q 428 772 309 772 q 691 668 601 772 q 781 372 781 565 l 781 315 m 426 628 q 320 585 356 628 q 283 444 285 542 l 566 444 q 529 585 563 542 q 426 628 494 628 m 526 1122 l 697 1122 l 517 856 l 333 856 l 153 1122 l 324 1122 l 425 964 l 526 1122 z "},"ḝ":{"ha":825,"x_min":53,"x_max":781,"o":"m 426 862 q 231 926 301 862 q 155 1107 161 990 l 294 1107 q 332 1010 300 1042 q 426 977 364 977 q 518 1010 487 977 q 556 1107 550 1042 l 695 1107 q 619 926 689 990 q 426 862 550 862 m 781 315 l 283 315 q 312 220 288 255 q 389 170 336 186 q 533 155 441 155 q 735 178 626 155 l 735 11 q 498 -15 617 -15 l 485 -15 l 485 -60 q 573 -101 544 -69 q 603 -183 603 -133 q 557 -274 603 -242 q 423 -307 510 -307 q 290 -284 348 -307 l 290 -198 q 351 -215 317 -209 q 413 -221 384 -221 q 466 -209 449 -221 q 484 -172 484 -198 q 466 -135 484 -147 q 413 -123 449 -123 l 378 -123 l 378 -7 q 133 109 212 15 q 53 378 53 203 q 97 592 53 503 q 225 726 141 680 q 428 772 309 772 q 691 668 601 772 q 781 372 781 565 l 781 315 m 426 628 q 320 585 356 628 q 283 444 285 542 l 566 444 q 529 585 563 542 q 426 628 494 628 z "},"ê":{"ha":825,"x_min":53,"x_max":781,"o":"m 781 315 l 283 315 q 312 220 288 255 q 389 170 336 186 q 533 155 441 155 q 735 178 626 155 l 735 11 q 498 -15 617 -15 q 247 27 345 -15 q 101 155 149 69 q 53 378 53 242 q 97 592 53 503 q 225 726 141 680 q 428 772 309 772 q 691 668 601 772 q 781 372 781 565 l 781 315 m 426 628 q 320 585 356 628 q 283 444 285 542 l 566 444 q 529 585 563 542 q 426 628 494 628 m 695 856 l 526 856 l 425 1015 l 324 856 l 155 856 l 333 1122 l 517 1122 l 695 856 z "},"ế":{"ha":825,"x_min":53,"x_max":919,"o":"m 781 315 l 283 315 q 312 220 288 255 q 389 170 336 186 q 533 155 441 155 q 735 178 626 155 l 735 11 q 498 -15 617 -15 q 247 27 345 -15 q 101 155 149 69 q 53 378 53 242 q 97 592 53 503 q 225 726 141 680 q 428 772 309 772 q 691 668 601 772 q 781 372 781 565 l 781 315 m 426 628 q 320 585 356 628 q 283 444 285 542 l 566 444 q 529 585 563 542 q 426 628 494 628 m 721 1297 l 919 1297 l 751 1109 l 588 1109 l 721 1297 m 333 1122 l 517 1122 l 695 856 l 526 856 l 425 1015 l 324 856 l 155 856 l 333 1122 z "},"ệ":{"ha":825,"x_min":53,"x_max":781,"o":"m 781 315 l 283 315 q 312 220 288 255 q 389 170 336 186 q 533 155 441 155 q 735 178 626 155 l 735 11 q 498 -15 617 -15 q 247 27 345 -15 q 101 155 149 69 q 53 378 53 242 q 97 592 53 503 q 225 726 141 680 q 428 772 309 772 q 691 668 601 772 q 781 372 781 565 l 781 315 m 426 628 q 320 585 356 628 q 283 444 285 542 l 566 444 q 529 585 563 542 q 426 628 494 628 m 425 -307 q 333 -278 365 -307 q 301 -199 301 -249 q 333 -118 301 -147 q 425 -89 365 -89 q 517 -118 485 -89 q 549 -199 549 -147 q 517 -278 549 -249 q 425 -307 485 -307 m 695 856 l 526 856 l 425 1015 l 324 856 l 155 856 l 333 1122 l 517 1122 l 695 856 z "},"ề":{"ha":825,"x_min":53,"x_max":781,"o":"m 781 315 l 283 315 q 312 220 288 255 q 389 170 336 186 q 533 155 441 155 q 735 178 626 155 l 735 11 q 498 -15 617 -15 q 247 27 345 -15 q 101 155 149 69 q 53 378 53 242 q 97 592 53 503 q 225 726 141 680 q 428 772 309 772 q 691 668 601 772 q 781 372 781 565 l 781 315 m 426 628 q 320 585 356 628 q 283 444 285 542 l 566 444 q 529 585 563 542 q 426 628 494 628 m 774 1109 l 610 1109 l 442 1297 l 640 1297 l 774 1109 m 333 1122 l 517 1122 l 695 856 l 526 856 l 425 1015 l 324 856 l 155 856 l 333 1122 z "},"ể":{"ha":825,"x_min":53,"x_max":806,"o":"m 781 315 l 283 315 q 312 220 288 255 q 389 170 336 186 q 533 155 441 155 q 735 178 626 155 l 735 11 q 498 -15 617 -15 q 247 27 345 -15 q 101 155 149 69 q 53 378 53 242 q 97 592 53 503 q 225 726 141 680 q 428 772 309 772 q 691 668 601 772 q 781 372 781 565 l 781 315 m 426 628 q 320 585 356 628 q 283 444 285 542 l 566 444 q 529 585 563 542 q 426 628 494 628 m 639 1310 q 765 1289 725 1310 q 806 1226 806 1269 q 790 1190 806 1203 q 746 1162 775 1176 q 707 1138 720 1149 q 690 1109 693 1126 l 586 1109 q 607 1156 588 1140 q 659 1185 626 1172 q 685 1199 677 1194 q 694 1213 694 1205 q 677 1231 694 1225 q 622 1238 660 1238 q 495 1222 553 1238 l 495 1292 q 562 1305 522 1300 q 639 1310 603 1310 m 333 1122 l 517 1122 l 695 856 l 526 856 l 425 1015 l 324 856 l 155 856 l 333 1122 z "},"ễ":{"ha":825,"x_min":53,"x_max":781,"o":"m 781 315 l 283 315 q 312 220 288 255 q 389 170 336 186 q 533 155 441 155 q 735 178 626 155 l 735 11 q 498 -15 617 -15 q 247 27 345 -15 q 101 155 149 69 q 53 378 53 242 q 97 592 53 503 q 225 726 141 680 q 428 772 309 772 q 691 668 601 772 q 781 372 781 565 l 781 315 m 426 628 q 320 585 356 628 q 283 444 285 542 l 566 444 q 529 585 563 542 q 426 628 494 628 m 547 1125 q 485 1131 514 1125 q 414 1149 456 1137 q 350 1166 374 1160 q 298 1172 325 1172 q 223 1161 256 1172 q 156 1129 190 1151 l 156 1240 q 220 1274 185 1263 q 303 1285 255 1285 q 366 1278 336 1285 q 436 1260 396 1272 q 500 1243 476 1249 q 552 1238 525 1238 q 627 1248 594 1238 q 694 1280 660 1258 l 694 1169 q 630 1135 665 1146 q 547 1125 595 1125 m 719 858 l 538 858 l 425 997 l 313 858 l 131 858 l 327 1085 l 523 1085 l 719 858 z "},"ȅ":{"ha":825,"x_min":53,"x_max":781,"o":"m 781 315 l 283 315 q 312 220 288 255 q 389 170 336 186 q 533 155 441 155 q 735 178 626 155 l 735 11 q 498 -15 617 -15 q 247 27 345 -15 q 101 155 149 69 q 53 378 53 242 q 97 592 53 503 q 225 726 141 680 q 428 772 309 772 q 691 668 601 772 q 781 372 781 565 l 781 315 m 426 628 q 320 585 356 628 q 283 444 285 542 l 566 444 q 529 585 563 542 q 426 628 494 628 m 197 856 l 77 1122 l 258 1122 l 365 856 l 197 856 m 485 856 l 366 1122 l 546 1122 l 653 856 l 485 856 z "},"ë":{"ha":825,"x_min":53,"x_max":781,"o":"m 781 315 l 283 315 q 312 220 288 255 q 389 170 336 186 q 533 155 441 155 q 735 178 626 155 l 735 11 q 498 -15 617 -15 q 247 27 345 -15 q 101 155 149 69 q 53 378 53 242 q 97 592 53 503 q 225 726 141 680 q 428 772 309 772 q 691 668 601 772 q 781 372 781 565 l 781 315 m 426 628 q 320 585 356 628 q 283 444 285 542 l 566 444 q 529 585 563 542 q 426 628 494 628 m 247 873 q 154 902 185 873 q 123 985 123 932 q 154 1069 123 1040 q 247 1099 185 1099 q 339 1069 308 1099 q 370 985 370 1040 q 339 902 370 932 q 247 873 308 873 m 603 873 q 511 902 542 873 q 480 985 480 932 q 511 1069 480 1040 q 603 1099 542 1099 q 696 1069 665 1099 q 727 985 727 1040 q 696 902 727 932 q 603 873 665 873 z "},"ė":{"ha":825,"x_min":53,"x_max":781,"o":"m 781 315 l 283 315 q 312 220 288 255 q 389 170 336 186 q 533 155 441 155 q 735 178 626 155 l 735 11 q 498 -15 617 -15 q 247 27 345 -15 q 101 155 149 69 q 53 378 53 242 q 97 592 53 503 q 225 726 141 680 q 428 772 309 772 q 691 668 601 772 q 781 372 781 565 l 781 315 m 426 628 q 320 585 356 628 q 283 444 285 542 l 566 444 q 529 585 563 542 q 426 628 494 628 m 425 870 q 318 900 353 870 q 283 985 283 929 q 318 1072 283 1042 q 425 1101 353 1101 q 532 1072 497 1101 q 567 985 567 1042 q 532 900 567 929 q 425 870 497 870 z "},"ẹ":{"ha":825,"x_min":53,"x_max":781,"o":"m 781 315 l 283 315 q 312 220 288 255 q 389 170 336 186 q 533 155 441 155 q 735 178 626 155 l 735 11 q 498 -15 617 -15 q 247 27 345 -15 q 101 155 149 69 q 53 378 53 242 q 97 592 53 503 q 225 726 141 680 q 428 772 309 772 q 691 668 601 772 q 781 372 781 565 l 781 315 m 426 628 q 320 585 356 628 q 283 444 285 542 l 566 444 q 529 585 563 542 q 426 628 494 628 m 425 -307 q 333 -278 365 -307 q 301 -199 301 -249 q 333 -118 301 -147 q 425 -89 365 -89 q 517 -118 485 -89 q 549 -199 549 -147 q 517 -278 549 -249 q 425 -307 485 -307 z "},"è":{"ha":825,"x_min":53,"x_max":781,"o":"m 781 315 l 283 315 q 312 220 288 255 q 389 170 336 186 q 533 155 441 155 q 735 178 626 155 l 735 11 q 498 -15 617 -15 q 247 27 345 -15 q 101 155 149 69 q 53 378 53 242 q 97 592 53 503 q 225 726 141 680 q 428 772 309 772 q 691 668 601 772 q 781 372 781 565 l 781 315 m 426 628 q 320 585 356 628 q 283 444 285 542 l 566 444 q 529 585 563 542 q 426 628 494 628 m 316 856 l 115 1122 l 367 1122 l 534 856 l 316 856 z "},"ẻ":{"ha":825,"x_min":53,"x_max":781,"o":"m 781 315 l 283 315 q 312 220 288 255 q 389 170 336 186 q 533 155 441 155 q 735 178 626 155 l 735 11 q 498 -15 617 -15 q 247 27 345 -15 q 101 155 149 69 q 53 378 53 242 q 97 592 53 503 q 225 726 141 680 q 428 772 309 772 q 691 668 601 772 q 781 372 781 565 l 781 315 m 426 628 q 320 585 356 628 q 283 444 285 542 l 566 444 q 529 585 563 542 q 426 628 494 628 m 367 856 q 380 904 369 884 q 404 937 390 924 q 440 965 418 949 q 469 988 460 978 q 478 1010 478 998 q 462 1036 478 1028 q 406 1044 445 1044 q 286 1027 347 1044 l 286 1113 q 351 1126 313 1122 q 422 1131 389 1131 q 555 1105 512 1131 q 597 1024 597 1078 q 589 983 597 1000 q 569 954 581 965 q 537 928 557 943 q 498 895 511 910 q 483 856 485 880 l 367 856 z "},"ȇ":{"ha":825,"x_min":53,"x_max":781,"o":"m 781 315 l 283 315 q 312 220 288 255 q 389 170 336 186 q 533 155 441 155 q 735 178 626 155 l 735 11 q 498 -15 617 -15 q 247 27 345 -15 q 101 155 149 69 q 53 378 53 242 q 97 592 53 503 q 225 726 141 680 q 428 772 309 772 q 691 668 601 772 q 781 372 781 565 l 781 315 m 426 628 q 320 585 356 628 q 283 444 285 542 l 566 444 q 529 585 563 542 q 426 628 494 628 m 155 876 q 230 1057 161 993 q 424 1121 299 1121 q 619 1057 549 1121 q 695 876 689 992 l 556 876 q 518 973 550 940 q 424 1006 486 1006 q 331 973 363 1006 q 294 876 300 940 l 155 876 z "},"ē":{"ha":825,"x_min":53,"x_max":781,"o":"m 781 315 l 283 315 q 312 220 288 255 q 389 170 336 186 q 533 155 441 155 q 735 178 626 155 l 735 11 q 498 -15 617 -15 q 247 27 345 -15 q 101 155 149 69 q 53 378 53 242 q 97 592 53 503 q 225 726 141 680 q 428 772 309 772 q 691 668 601 772 q 781 372 781 565 l 781 315 m 426 628 q 320 585 356 628 q 283 444 285 542 l 566 444 q 529 585 563 542 q 426 628 494 628 m 168 920 l 168 1053 l 682 1053 l 682 920 l 168 920 z "},"ḗ":{"ha":825,"x_min":53,"x_max":781,"o":"m 781 315 l 283 315 q 312 220 288 255 q 389 170 336 186 q 533 155 441 155 q 735 178 626 155 l 735 11 q 498 -15 617 -15 q 247 27 345 -15 q 101 155 149 69 q 53 378 53 242 q 97 592 53 503 q 225 726 141 680 q 428 772 309 772 q 691 668 601 772 q 781 372 781 565 l 781 315 m 426 628 q 320 585 356 628 q 283 444 285 542 l 566 444 q 529 585 563 542 q 426 628 494 628 m 168 920 l 168 1053 l 682 1053 l 682 920 l 168 920 m 318 1150 l 452 1360 l 697 1360 l 528 1150 l 318 1150 z "},"ḕ":{"ha":825,"x_min":53,"x_max":781,"o":"m 781 315 l 283 315 q 312 220 288 255 q 389 170 336 186 q 533 155 441 155 q 735 178 626 155 l 735 11 q 498 -15 617 -15 q 247 27 345 -15 q 101 155 149 69 q 53 378 53 242 q 97 592 53 503 q 225 726 141 680 q 428 772 309 772 q 691 668 601 772 q 781 372 781 565 l 781 315 m 426 628 q 320 585 356 628 q 283 444 285 542 l 566 444 q 529 585 563 542 q 426 628 494 628 m 168 920 l 168 1053 l 682 1053 l 682 920 l 168 920 m 320 1150 l 151 1360 l 397 1360 l 530 1150 l 320 1150 z "},"ę":{"ha":825,"x_min":53,"x_max":781,"o":"m 781 315 l 283 315 q 312 220 288 255 q 389 170 336 186 q 533 155 441 155 q 735 178 626 155 l 735 11 q 597 -60 637 -21 q 558 -146 558 -100 q 580 -198 558 -178 q 645 -217 603 -217 q 735 -195 690 -217 l 735 -283 q 613 -307 679 -307 q 473 -268 522 -307 q 425 -162 425 -230 q 509 -15 425 -71 l 498 -15 q 247 27 345 -15 q 101 155 149 69 q 53 378 53 242 q 97 592 53 503 q 225 726 141 680 q 428 772 309 772 q 691 668 601 772 q 781 372 781 565 l 781 315 m 426 624 q 320 580 356 624 q 283 439 285 537 l 566 439 q 529 580 563 537 q 426 624 494 624 z "},"ẽ":{"ha":825,"x_min":53,"x_max":781,"o":"m 781 315 l 283 315 q 312 220 288 255 q 389 170 336 186 q 533 155 441 155 q 735 178 626 155 l 735 11 q 498 -15 617 -15 q 247 27 345 -15 q 101 155 149 69 q 53 378 53 242 q 97 592 53 503 q 225 726 141 680 q 428 772 309 772 q 691 668 601 772 q 781 372 781 565 l 781 315 m 426 628 q 320 585 356 628 q 283 444 285 542 l 566 444 q 529 585 563 542 q 426 628 494 628 m 538 892 q 480 900 508 892 q 414 926 452 909 q 354 949 376 942 q 307 956 331 956 q 234 942 267 956 q 168 897 202 928 l 168 1037 q 232 1078 197 1065 q 312 1091 267 1091 q 370 1082 342 1091 q 436 1057 398 1074 q 496 1034 474 1041 q 543 1026 519 1026 q 616 1040 583 1026 q 682 1085 648 1054 l 682 946 q 618 905 653 918 q 538 892 583 892 z "},"ə":{"ha":825,"x_min":44,"x_max":772,"o":"m 327 774 q 578 733 480 774 q 724 605 676 691 q 772 381 772 518 q 728 168 772 256 q 600 34 684 80 q 397 -12 516 -12 q 134 91 224 -12 q 44 388 44 194 l 44 444 l 542 444 q 513 539 538 505 q 436 589 489 574 q 292 605 384 605 q 90 582 199 605 l 90 749 q 327 774 208 774 m 399 131 q 505 175 469 131 q 542 316 540 218 l 259 316 q 296 175 262 218 q 399 131 331 131 z "},"f":{"ha":598,"x_min":24,"x_max":631,"o":"m 549 955 q 425 921 465 955 q 386 815 386 887 l 386 760 l 597 760 l 597 577 l 386 577 l 386 0 l 155 0 l 155 577 l 24 577 l 24 760 l 155 760 l 155 806 q 197 983 155 909 q 319 1097 239 1057 q 513 1136 399 1136 q 631 1128 571 1136 l 631 949 q 549 955 587 955 z "},"g":{"ha":919,"x_min":53,"x_max":829,"o":"m 387 -319 q 106 -285 237 -319 l 106 -107 q 244 -135 176 -126 q 369 -144 313 -144 q 501 -126 451 -144 q 574 -69 551 -108 q 597 33 597 -30 l 597 81 l 586 81 q 493 19 547 41 q 371 -2 438 -2 q 211 39 283 -2 q 96 162 139 79 q 53 364 53 244 q 169 666 53 561 q 511 772 285 772 q 678 760 592 772 q 829 728 763 749 l 829 76 q 781 -149 829 -62 q 636 -278 733 -237 q 387 -319 539 -319 m 454 183 q 531 196 494 183 q 597 234 569 209 l 597 585 q 491 598 546 598 q 336 545 388 598 q 284 383 284 492 q 328 229 284 275 q 454 183 373 183 z "},"ǵ":{"ha":919,"x_min":53,"x_max":829,"o":"m 387 -319 q 106 -285 237 -319 l 106 -107 q 244 -135 176 -126 q 369 -144 313 -144 q 501 -126 451 -144 q 574 -69 551 -108 q 597 33 597 -30 l 597 81 l 586 81 q 493 19 547 41 q 371 -2 438 -2 q 211 39 283 -2 q 96 162 139 79 q 53 364 53 244 q 169 666 53 561 q 511 772 285 772 q 678 760 592 772 q 829 728 763 749 l 829 76 q 781 -149 829 -62 q 636 -278 733 -237 q 387 -319 539 -319 m 454 183 q 531 196 494 183 q 597 234 569 209 l 597 585 q 491 598 546 598 q 336 545 388 598 q 284 383 284 492 q 328 229 284 275 q 454 183 373 183 m 369 856 l 536 1122 l 788 1122 l 588 856 l 369 856 z "},"ğ":{"ha":919,"x_min":53,"x_max":829,"o":"m 387 -319 q 106 -285 237 -319 l 106 -107 q 244 -135 176 -126 q 369 -144 313 -144 q 501 -126 451 -144 q 574 -69 551 -108 q 597 33 597 -30 l 597 81 l 586 81 q 493 19 547 41 q 371 -2 438 -2 q 211 39 283 -2 q 96 162 139 79 q 53 364 53 244 q 169 666 53 561 q 511 772 285 772 q 678 760 592 772 q 829 728 763 749 l 829 76 q 781 -149 829 -62 q 636 -278 733 -237 q 387 -319 539 -319 m 454 183 q 531 196 494 183 q 597 234 569 209 l 597 585 q 491 598 546 598 q 336 545 388 598 q 284 383 284 492 q 328 229 284 275 q 454 183 373 183 m 479 862 q 284 926 354 862 q 208 1107 215 990 l 348 1107 q 385 1010 353 1042 q 479 977 417 977 q 572 1010 540 977 q 609 1107 603 1042 l 749 1107 q 673 926 742 990 q 479 862 603 862 z "},"ǧ":{"ha":919,"x_min":53,"x_max":829,"o":"m 387 -319 q 106 -285 237 -319 l 106 -107 q 244 -135 176 -126 q 369 -144 313 -144 q 501 -126 451 -144 q 574 -69 551 -108 q 597 33 597 -30 l 597 81 l 586 81 q 493 19 547 41 q 371 -2 438 -2 q 211 39 283 -2 q 96 162 139 79 q 53 364 53 244 q 169 666 53 561 q 511 772 285 772 q 678 760 592 772 q 829 728 763 749 l 829 76 q 781 -149 829 -62 q 636 -278 733 -237 q 387 -319 539 -319 m 454 183 q 531 196 494 183 q 597 234 569 209 l 597 585 q 491 598 546 598 q 336 545 388 598 q 284 383 284 492 q 328 229 284 275 q 454 183 373 183 m 580 1122 l 750 1122 l 571 856 l 386 856 l 207 1122 l 377 1122 l 478 964 l 580 1122 z "},"ĝ":{"ha":919,"x_min":53,"x_max":829,"o":"m 387 -319 q 106 -285 237 -319 l 106 -107 q 244 -135 176 -126 q 369 -144 313 -144 q 501 -126 451 -144 q 574 -69 551 -108 q 597 33 597 -30 l 597 81 l 586 81 q 493 19 547 41 q 371 -2 438 -2 q 211 39 283 -2 q 96 162 139 79 q 53 364 53 244 q 169 666 53 561 q 511 772 285 772 q 678 760 592 772 q 829 728 763 749 l 829 76 q 781 -149 829 -62 q 636 -278 733 -237 q 387 -319 539 -319 m 454 183 q 531 196 494 183 q 597 234 569 209 l 597 585 q 491 598 546 598 q 336 545 388 598 q 284 383 284 492 q 328 229 284 275 q 454 183 373 183 m 749 856 l 579 856 l 478 1015 l 378 856 l 208 856 l 386 1122 l 571 1122 l 749 856 z "},"ģ":{"ha":919,"x_min":53,"x_max":829,"o":"m 387 -319 q 106 -285 237 -319 l 106 -107 q 244 -135 176 -126 q 369 -144 313 -144 q 501 -126 451 -144 q 574 -69 551 -108 q 597 33 597 -30 l 597 81 l 586 81 q 493 19 547 41 q 371 -2 438 -2 q 211 39 283 -2 q 96 162 139 79 q 53 364 53 244 q 169 666 53 561 q 511 772 285 772 q 678 760 592 772 q 829 728 763 749 l 829 76 q 781 -149 829 -62 q 636 -278 733 -237 q 387 -319 539 -319 m 454 183 q 531 196 494 183 q 597 234 569 209 l 597 585 q 491 598 546 598 q 336 545 388 598 q 284 383 284 492 q 328 229 284 275 q 454 183 373 183 m 507 1028 q 608 951 608 1021 q 576 893 608 914 q 479 873 544 873 q 349 977 349 873 q 364 1056 349 1015 q 404 1129 379 1098 l 546 1129 q 507 1028 515 1069 z "},"ġ":{"ha":919,"x_min":53,"x_max":829,"o":"m 387 -319 q 106 -285 237 -319 l 106 -107 q 244 -135 176 -126 q 369 -144 313 -144 q 501 -126 451 -144 q 574 -69 551 -108 q 597 33 597 -30 l 597 81 l 586 81 q 493 19 547 41 q 371 -2 438 -2 q 211 39 283 -2 q 96 162 139 79 q 53 364 53 244 q 169 666 53 561 q 511 772 285 772 q 678 760 592 772 q 829 728 763 749 l 829 76 q 781 -149 829 -62 q 636 -278 733 -237 q 387 -319 539 -319 m 454 183 q 531 196 494 183 q 597 234 569 209 l 597 585 q 491 598 546 598 q 336 545 388 598 q 284 383 284 492 q 328 229 284 275 q 454 183 373 183 m 478 870 q 372 900 407 870 q 336 985 336 929 q 372 1072 336 1042 q 478 1101 407 1101 q 585 1072 550 1101 q 621 985 621 1042 q 585 900 621 929 q 478 870 550 870 z "},"ḡ":{"ha":919,"x_min":53,"x_max":829,"o":"m 387 -319 q 106 -285 237 -319 l 106 -107 q 244 -135 176 -126 q 369 -144 313 -144 q 501 -126 451 -144 q 574 -69 551 -108 q 597 33 597 -30 l 597 81 l 586 81 q 493 19 547 41 q 371 -2 438 -2 q 211 39 283 -2 q 96 162 139 79 q 53 364 53 244 q 169 666 53 561 q 511 772 285 772 q 678 760 592 772 q 829 728 763 749 l 829 76 q 781 -149 829 -62 q 636 -278 733 -237 q 387 -319 539 -319 m 454 183 q 531 196 494 183 q 597 234 569 209 l 597 585 q 491 598 546 598 q 336 545 388 598 q 284 383 284 492 q 328 229 284 275 q 454 183 373 183 m 222 920 l 222 1053 l 735 1053 l 735 920 l 222 920 z "},"h":{"ha":910,"x_min":90,"x_max":828,"o":"m 90 1122 l 322 1122 l 322 685 l 333 685 q 433 750 376 728 q 556 772 490 772 q 753 695 679 772 q 828 458 828 618 l 828 0 l 596 0 l 596 444 q 566 545 596 515 q 477 576 535 576 q 391 559 433 576 q 322 510 349 542 l 322 0 l 90 0 l 90 1122 z "},"ħ":{"ha":910,"x_min":3,"x_max":828,"o":"m 556 772 q 753 695 679 772 q 828 458 828 618 l 828 0 l 596 0 l 596 444 q 566 545 596 515 q 477 576 535 576 q 391 559 433 576 q 322 510 349 542 l 322 0 l 90 0 l 90 869 l 3 869 l 3 1008 l 90 1008 l 90 1122 l 322 1122 l 322 1008 l 588 1008 l 588 869 l 322 869 l 322 685 l 333 685 q 433 750 376 728 q 556 772 490 772 z "},"ḫ":{"ha":910,"x_min":90,"x_max":828,"o":"m 90 1122 l 322 1122 l 322 685 l 333 685 q 433 750 376 728 q 556 772 490 772 q 753 695 679 772 q 828 458 828 618 l 828 0 l 596 0 l 596 444 q 566 545 596 515 q 477 576 535 576 q 391 559 433 576 q 322 510 349 542 l 322 0 l 90 0 l 90 1122 m 460 -317 q 316 -291 376 -317 q 223 -216 256 -265 q 189 -101 191 -167 l 328 -101 q 460 -202 335 -202 q 590 -101 584 -202 l 729 -101 q 695 -217 727 -168 q 603 -291 663 -265 q 460 -317 544 -317 z "},"ĥ":{"ha":910,"x_min":90,"x_max":828,"o":"m 90 1122 l 322 1122 l 322 685 l 333 685 q 433 750 376 728 q 556 772 490 772 q 753 695 679 772 q 828 458 828 618 l 828 0 l 596 0 l 596 444 q 566 545 596 515 q 477 576 535 576 q 391 559 433 576 q 322 510 349 542 l 322 0 l 90 0 l 90 1122 m 758 1174 l 574 1174 l 459 1299 l 344 1174 l 160 1174 l 361 1385 l 557 1385 l 758 1174 z "},"ḥ":{"ha":910,"x_min":90,"x_max":828,"o":"m 90 1122 l 322 1122 l 322 685 l 333 685 q 433 750 376 728 q 556 772 490 772 q 753 695 679 772 q 828 458 828 618 l 828 0 l 596 0 l 596 444 q 566 545 596 515 q 477 576 535 576 q 391 559 433 576 q 322 510 349 542 l 322 0 l 90 0 l 90 1122 m 459 -307 q 367 -278 399 -307 q 335 -199 335 -249 q 367 -118 335 -147 q 459 -89 399 -89 q 551 -118 519 -89 q 583 -199 583 -147 q 551 -278 583 -249 q 459 -307 519 -307 z "},"i":{"ha":411,"x_min":63,"x_max":348,"o":"m 90 0 l 90 760 l 322 760 l 322 0 l 90 0 m 206 870 q 99 900 134 870 q 63 985 63 929 q 99 1072 63 1042 q 206 1101 134 1101 q 313 1072 277 1101 q 348 985 348 1042 q 313 900 348 929 q 206 870 277 870 z "},"ı":{"ha":411,"x_min":90,"x_max":322,"o":"m 90 0 l 90 760 l 322 760 l 322 0 l 90 0 z "},"í":{"ha":411,"x_min":90,"x_max":515,"o":"m 90 0 l 90 760 l 322 760 l 322 0 l 90 0 m 97 856 l 263 1122 l 515 1122 l 315 856 l 97 856 z "},"ĭ":{"ha":411,"x_min":-65,"x_max":476,"o":"m 90 0 l 90 760 l 322 760 l 322 0 l 90 0 m 206 862 q 11 926 81 862 q -65 1107 -58 990 l 75 1107 q 113 1010 81 1042 q 206 977 144 977 q 299 1010 267 977 q 336 1107 331 1042 l 476 1107 q 400 926 469 990 q 206 862 331 862 z "},"î":{"ha":411,"x_min":-65,"x_max":476,"o":"m 90 0 l 90 760 l 322 760 l 322 0 l 90 0 m 476 856 l 306 856 l 206 1015 l 105 856 l -65 856 l 113 1122 l 298 1122 l 476 856 z "},"ȉ":{"ha":411,"x_min":-142,"x_max":433,"o":"m 90 0 l 90 760 l 322 760 l 322 0 l 90 0 m -22 856 l -142 1122 l 38 1122 l 145 856 l -22 856 m 266 856 l 147 1122 l 326 1122 l 433 856 l 266 856 z "},"ï":{"ha":411,"x_min":-97,"x_max":508,"o":"m 90 0 l 90 760 l 322 760 l 322 0 l 90 0 m 27 873 q -65 902 -34 873 q -97 985 -97 932 q -65 1069 -97 1040 q 27 1099 -34 1099 q 119 1069 88 1099 q 151 985 151 1040 q 119 902 151 932 q 27 873 88 873 m 384 873 q 292 902 323 873 q 260 985 260 932 q 292 1069 260 1040 q 384 1099 323 1099 q 476 1069 445 1099 q 508 985 508 1040 q 476 902 508 932 q 384 873 445 873 z "},"ḯ":{"ha":411,"x_min":-97,"x_max":597,"o":"m 90 0 l 90 760 l 322 760 l 322 0 l 90 0 m 27 873 q -65 902 -34 873 q -97 985 -97 932 q -65 1069 -97 1040 q 27 1099 -34 1099 q 119 1069 88 1099 q 151 985 151 1040 q 119 902 151 932 q 27 873 88 873 m 384 873 q 292 902 323 873 q 260 985 260 932 q 292 1069 260 1040 q 384 1099 323 1099 q 476 1069 445 1099 q 508 985 508 1040 q 476 902 508 932 q 384 873 445 873 m 217 1451 l 351 1662 l 597 1662 l 428 1451 l 217 1451 z "},"ị":{"ha":411,"x_min":63,"x_max":348,"o":"m 90 0 l 90 760 l 322 760 l 322 0 l 90 0 m 206 870 q 99 900 134 870 q 63 985 63 929 q 99 1072 63 1042 q 206 1101 134 1101 q 313 1072 277 1101 q 348 985 348 1042 q 313 900 348 929 q 206 870 277 870 m 206 -307 q 114 -278 145 -307 q 82 -199 82 -249 q 114 -118 82 -147 q 206 -89 145 -89 q 298 -118 266 -89 q 329 -199 329 -147 q 298 -278 329 -249 q 206 -307 266 -307 z "},"ì":{"ha":411,"x_min":-104,"x_max":322,"o":"m 90 0 l 90 760 l 322 760 l 322 0 l 90 0 m 97 856 l -104 1122 l 148 1122 l 315 856 l 97 856 z "},"ỉ":{"ha":411,"x_min":67,"x_max":378,"o":"m 90 0 l 90 760 l 322 760 l 322 0 l 90 0 m 148 856 q 160 904 149 884 q 185 937 171 924 q 220 965 199 949 q 250 988 240 978 q 259 1010 259 998 q 242 1036 259 1028 q 187 1044 226 1044 q 67 1027 128 1044 l 67 1113 q 131 1126 93 1122 q 202 1131 169 1131 q 335 1105 292 1131 q 378 1024 378 1078 q 369 983 378 1000 q 349 954 361 965 q 317 928 338 943 q 278 895 292 910 q 263 856 265 880 l 148 856 z "},"ȋ":{"ha":411,"x_min":-65,"x_max":476,"o":"m 90 0 l 90 760 l 322 760 l 322 0 l 90 0 m -65 876 q 11 1057 -58 993 q 205 1121 80 1121 q 400 1057 330 1121 q 476 876 469 992 l 336 876 q 299 973 331 940 q 205 1006 267 1006 q 112 973 143 1006 q 75 876 81 940 l -65 876 z "},"ī":{"ha":411,"x_min":-51,"x_max":463,"o":"m 90 0 l 90 760 l 322 760 l 322 0 l 90 0 m -51 920 l -51 1053 l 463 1053 l 463 920 l -51 920 z "},"į":{"ha":411,"x_min":42,"x_max":352,"o":"m 206 870 q 99 900 134 870 q 63 985 63 929 q 99 1072 63 1042 q 206 1101 134 1101 q 313 1072 277 1101 q 348 985 348 1042 q 313 900 348 929 q 206 870 277 870 m 263 -217 q 352 -195 306 -217 l 352 -283 q 230 -307 296 -307 q 91 -268 139 -307 q 42 -162 42 -230 q 67 -73 42 -114 q 147 0 92 -33 l 90 0 l 90 760 l 322 760 l 322 0 q 207 -68 240 -33 q 174 -147 174 -103 q 197 -198 174 -179 q 263 -217 220 -217 z "},"ĩ":{"ha":411,"x_min":-51,"x_max":463,"o":"m 90 0 l 90 760 l 322 760 l 322 0 l 90 0 m 319 892 q 260 900 288 892 q 194 926 233 909 q 134 949 157 942 q 88 956 112 956 q 15 942 47 956 q -51 897 -17 928 l -51 1037 q 12 1078 -23 1065 q 92 1091 47 1091 q 151 1082 123 1091 q 217 1057 178 1074 q 277 1034 254 1041 q 324 1026 299 1026 q 396 1040 364 1026 q 463 1085 428 1054 l 463 946 q 399 905 434 918 q 319 892 364 892 z "},"j":{"ha":411,"x_min":-22,"x_max":344,"o":"m -22 -229 q 65 -71 40 -151 q 90 122 90 9 l 90 760 l 322 760 l 322 131 q 276 -111 322 -3 q 126 -327 231 -219 l -22 -229 m 201 872 q 94 901 130 872 q 59 987 59 931 q 94 1073 59 1044 q 201 1103 130 1103 q 308 1073 273 1103 q 344 987 344 1044 q 308 901 344 931 q 201 872 273 872 z "},"ȷ":{"ha":411,"x_min":-22,"x_max":322,"o":"m -22 -229 q 65 -71 40 -151 q 90 122 90 9 l 90 760 l 322 760 l 322 131 q 276 -111 322 -3 q 126 -327 231 -219 l -22 -229 z "},"ĵ":{"ha":411,"x_min":-69,"x_max":472,"o":"m -22 -229 q 65 -71 40 -151 q 90 122 90 9 l 90 760 l 322 760 l 322 131 q 276 -111 322 -3 q 126 -327 231 -219 l -22 -229 m 472 858 l 302 858 l 201 1016 l 101 858 l -69 858 l 109 1124 l 294 1124 l 472 858 z "},"k":{"ha":878,"x_min":90,"x_max":901,"o":"m 647 0 l 429 297 l 322 297 l 322 0 l 90 0 l 90 1122 l 322 1122 l 322 483 l 428 483 l 627 760 l 876 760 l 619 395 l 901 0 l 647 0 z "},"ķ":{"ha":878,"x_min":90,"x_max":901,"o":"m 647 0 l 429 297 l 322 297 l 322 0 l 90 0 l 90 1122 l 322 1122 l 322 483 l 428 483 l 627 760 l 876 760 l 619 395 l 901 0 l 647 0 m 458 -89 q 589 -193 589 -89 q 574 -273 589 -231 q 533 -346 558 -315 l 392 -346 q 431 -244 423 -287 q 329 -167 329 -237 q 361 -109 329 -130 q 458 -89 393 -89 z "},"ĸ":{"ha":878,"x_min":90,"x_max":901,"o":"m 647 0 l 429 297 l 322 297 l 322 0 l 90 0 l 90 760 l 322 760 l 322 483 l 428 483 l 627 760 l 876 760 l 619 395 l 901 0 l 647 0 z "},"l":{"ha":411,"x_min":90,"x_max":322,"o":"m 90 0 l 90 1122 l 322 1122 l 322 0 l 90 0 z "},"ĺ":{"ha":411,"x_min":90,"x_max":478,"o":"m 90 0 l 90 1122 l 322 1122 l 322 0 l 90 0 m 99 1174 l 233 1385 l 478 1385 l 309 1174 l 99 1174 z "},"ľ":{"ha":411,"x_min":90,"x_max":547,"o":"m 90 0 l 90 1122 l 322 1122 l 322 0 l 90 0 m 374 819 q 390 966 385 894 q 394 1122 394 1038 l 547 1122 q 534 962 547 1041 q 497 819 521 883 l 374 819 z "},"ļ":{"ha":411,"x_min":75,"x_max":335,"o":"m 90 0 l 90 1122 l 322 1122 l 322 0 l 90 0 m 204 -89 q 335 -193 335 -89 q 319 -273 335 -231 q 279 -346 304 -315 l 138 -346 q 176 -244 169 -287 q 75 -167 75 -237 q 107 -109 75 -130 q 204 -89 139 -89 z "},"ŀ":{"ha":626,"x_min":90,"x_max":657,"o":"m 90 0 l 90 1122 l 322 1122 l 322 0 l 90 0 m 515 435 q 408 465 444 435 q 373 551 373 494 q 408 637 373 608 q 515 667 444 667 q 657 551 657 667 q 622 465 657 494 q 515 435 587 435 z "},"ḷ":{"ha":411,"x_min":81,"x_max":328,"o":"m 90 0 l 90 1122 l 322 1122 l 322 0 l 90 0 m 205 -307 q 113 -278 144 -307 q 81 -199 81 -249 q 113 -118 81 -147 q 205 -89 144 -89 q 297 -118 265 -89 q 328 -199 328 -147 q 297 -278 328 -249 q 205 -307 265 -307 z "},"ǉ":{"ha":822,"x_min":90,"x_max":755,"o":"m 90 0 l 90 1122 l 322 1122 l 322 0 l 90 0 m 390 -229 q 476 -71 451 -151 q 501 122 501 9 l 501 760 l 733 760 l 733 131 q 688 -111 733 -3 q 537 -327 642 -219 l 390 -229 m 613 872 q 506 901 541 872 q 470 987 470 931 q 506 1073 470 1044 q 613 1103 541 1103 q 719 1073 684 1103 q 755 987 755 1044 q 719 901 755 931 q 613 872 684 872 z "},"ḻ":{"ha":411,"x_min":-45,"x_max":455,"o":"m 90 0 l 90 1122 l 322 1122 l 322 0 l 90 0 m -45 -262 l -45 -131 l 455 -131 l 455 -262 l -45 -262 z "},"ł":{"ha":411,"x_min":-38,"x_max":450,"o":"m 450 549 l 322 478 l 322 0 l 90 0 l 90 353 l 26 318 l -38 443 l 90 513 l 90 1122 l 322 1122 l 322 639 l 385 674 l 450 549 z "},"m":{"ha":1336,"x_min":90,"x_max":1253,"o":"m 981 772 q 1180 695 1107 772 q 1253 457 1253 619 l 1253 0 l 1022 0 l 1022 444 q 993 545 1022 515 q 914 576 965 576 q 843 562 876 576 q 786 522 810 549 q 789 462 789 497 l 789 0 l 562 0 l 562 444 q 536 546 562 516 q 458 576 510 576 q 382 558 418 576 q 322 508 345 541 l 322 0 l 90 0 l 90 760 l 280 760 l 295 684 l 306 684 q 405 749 348 727 q 531 772 463 772 q 651 747 598 772 q 737 673 703 723 q 852 748 790 724 q 981 772 915 772 z "},"ṃ":{"ha":1336,"x_min":90,"x_max":1253,"o":"m 981 772 q 1180 695 1107 772 q 1253 457 1253 619 l 1253 0 l 1022 0 l 1022 444 q 993 545 1022 515 q 914 576 965 576 q 843 562 876 576 q 786 522 810 549 q 789 462 789 497 l 789 0 l 562 0 l 562 444 q 536 546 562 516 q 458 576 510 576 q 382 558 418 576 q 322 508 345 541 l 322 0 l 90 0 l 90 760 l 280 760 l 295 684 l 306 684 q 405 749 348 727 q 531 772 463 772 q 651 747 598 772 q 737 673 703 723 q 852 748 790 724 q 981 772 915 772 m 676 -307 q 584 -278 615 -307 q 552 -199 552 -249 q 584 -118 552 -147 q 676 -89 615 -89 q 768 -118 736 -89 q 799 -199 799 -147 q 768 -278 799 -249 q 676 -307 736 -307 z "},"n":{"ha":910,"x_min":90,"x_max":828,"o":"m 90 760 l 280 760 l 295 685 l 306 685 q 413 749 351 726 q 544 772 474 772 q 752 695 676 772 q 828 457 828 619 l 828 0 l 596 0 l 596 444 q 566 545 596 515 q 477 576 536 576 q 391 559 433 576 q 322 510 349 542 l 322 0 l 90 0 l 90 760 z "},"ń":{"ha":910,"x_min":90,"x_max":828,"o":"m 90 760 l 280 760 l 295 685 l 306 685 q 413 749 351 726 q 544 772 474 772 q 752 695 676 772 q 828 457 828 619 l 828 0 l 596 0 l 596 444 q 566 545 596 515 q 477 576 536 576 q 391 559 433 576 q 322 510 349 542 l 322 0 l 90 0 l 90 760 m 350 856 l 517 1122 l 769 1122 l 568 856 l 350 856 z "},"ŉ":{"ha":910,"x_min":8,"x_max":828,"o":"m 90 760 l 280 760 l 295 685 l 306 685 q 413 749 351 726 q 544 772 474 772 q 752 695 676 772 q 828 457 828 619 l 828 0 l 596 0 l 596 444 q 566 545 596 515 q 477 576 536 576 q 391 559 433 576 q 322 510 349 542 l 322 0 l 90 0 l 90 760 m 137 1129 q 267 1026 267 1129 q 252 947 267 988 q 213 873 238 905 l 71 873 q 109 974 102 933 q 8 1051 8 982 q 137 1129 8 1129 z "},"ň":{"ha":910,"x_min":90,"x_max":828,"o":"m 90 760 l 280 760 l 295 685 l 306 685 q 413 749 351 726 q 544 772 474 772 q 752 695 676 772 q 828 457 828 619 l 828 0 l 596 0 l 596 444 q 566 545 596 515 q 477 576 536 576 q 391 559 433 576 q 322 510 349 542 l 322 0 l 90 0 l 90 760 m 560 1122 l 731 1122 l 551 856 l 367 856 l 188 1122 l 358 1122 l 459 964 l 560 1122 z "},"ņ":{"ha":910,"x_min":90,"x_max":828,"o":"m 90 760 l 280 760 l 295 685 l 306 685 q 413 749 351 726 q 544 772 474 772 q 752 695 676 772 q 828 457 828 619 l 828 0 l 596 0 l 596 444 q 566 545 596 515 q 477 576 536 576 q 391 559 433 576 q 322 510 349 542 l 322 0 l 90 0 l 90 760 m 458 -89 q 589 -193 589 -89 q 574 -273 589 -231 q 533 -346 558 -315 l 392 -346 q 431 -244 423 -287 q 329 -167 329 -237 q 361 -109 329 -130 q 458 -89 393 -89 z "},"ṅ":{"ha":910,"x_min":90,"x_max":828,"o":"m 90 760 l 280 760 l 295 685 l 306 685 q 413 749 351 726 q 544 772 474 772 q 752 695 676 772 q 828 457 828 619 l 828 0 l 596 0 l 596 444 q 566 545 596 515 q 477 576 536 576 q 391 559 433 576 q 322 510 349 542 l 322 0 l 90 0 l 90 760 m 459 870 q 352 900 388 870 q 317 985 317 929 q 352 1072 317 1042 q 459 1101 388 1101 q 566 1072 531 1101 q 601 985 601 1042 q 566 900 601 929 q 459 870 531 870 z "},"ṇ":{"ha":910,"x_min":90,"x_max":828,"o":"m 90 760 l 280 760 l 295 685 l 306 685 q 413 749 351 726 q 544 772 474 772 q 752 695 676 772 q 828 457 828 619 l 828 0 l 596 0 l 596 444 q 566 545 596 515 q 477 576 536 576 q 391 559 433 576 q 322 510 349 542 l 322 0 l 90 0 l 90 760 m 459 -307 q 367 -278 399 -307 q 335 -199 335 -249 q 367 -118 335 -147 q 459 -89 399 -89 q 551 -118 519 -89 q 583 -199 583 -147 q 551 -278 583 -249 q 459 -307 519 -307 z "},"ŋ":{"ha":910,"x_min":90,"x_max":828,"o":"m 485 -229 q 570 -71 545 -151 q 596 122 596 9 l 596 445 q 566 547 596 517 q 477 576 535 576 q 391 559 433 576 q 322 510 349 542 l 322 0 l 90 0 l 90 760 l 280 760 l 295 685 l 306 685 q 413 749 351 727 q 545 772 474 772 q 752 695 676 772 q 828 458 828 619 l 828 123 q 781 -114 826 -8 q 631 -327 736 -220 l 485 -229 z "},"ǌ":{"ha":1322,"x_min":90,"x_max":1254,"o":"m 90 760 l 280 760 l 295 685 l 306 685 q 413 749 351 726 q 544 772 474 772 q 752 695 676 772 q 828 457 828 619 l 828 0 l 596 0 l 596 444 q 566 545 596 515 q 477 576 536 576 q 391 559 433 576 q 322 510 349 542 l 322 0 l 90 0 l 90 760 m 889 -229 q 975 -71 950 -151 q 1000 122 1000 9 l 1000 760 l 1232 760 l 1232 131 q 1187 -111 1232 -3 q 1036 -327 1142 -219 l 889 -229 m 1112 872 q 1005 901 1040 872 q 969 987 969 931 q 1005 1073 969 1044 q 1112 1103 1040 1103 q 1219 1073 1183 1103 q 1254 987 1254 1044 q 1219 901 1254 931 q 1112 872 1183 872 z "},"ṉ":{"ha":910,"x_min":90,"x_max":828,"o":"m 90 760 l 280 760 l 295 685 l 306 685 q 413 749 351 726 q 544 772 474 772 q 752 695 676 772 q 828 457 828 619 l 828 0 l 596 0 l 596 444 q 566 545 596 515 q 477 576 536 576 q 391 559 433 576 q 322 510 349 542 l 322 0 l 90 0 l 90 760 m 209 -262 l 209 -131 l 709 -131 l 709 -262 l 209 -262 z "},"ñ":{"ha":910,"x_min":90,"x_max":828,"o":"m 90 760 l 280 760 l 295 685 l 306 685 q 413 749 351 726 q 544 772 474 772 q 752 695 676 772 q 828 457 828 619 l 828 0 l 596 0 l 596 444 q 566 545 596 515 q 477 576 536 576 q 391 559 433 576 q 322 510 349 542 l 322 0 l 90 0 l 90 760 m 572 892 q 514 900 542 892 q 448 926 486 909 q 388 949 410 942 q 341 956 365 956 q 268 942 301 956 q 202 897 236 928 l 202 1037 q 266 1078 231 1065 q 346 1091 301 1091 q 404 1082 376 1091 q 470 1057 432 1074 q 530 1034 508 1041 q 577 1026 553 1026 q 650 1040 617 1026 q 716 1085 682 1054 l 716 946 q 652 905 688 918 q 572 892 617 892 z "},"o":{"ha":902,"x_min":53,"x_max":849,"o":"m 451 -15 q 240 30 330 -15 q 102 164 151 75 q 53 379 53 252 q 101 595 53 507 q 237 727 148 683 q 451 772 326 772 q 666 727 577 772 q 802 595 755 683 q 849 379 849 507 q 800 164 849 253 q 662 31 751 76 q 451 -15 573 -15 m 451 163 q 576 213 534 163 q 618 378 618 264 q 576 545 618 494 q 451 595 534 595 q 326 545 369 595 q 284 380 284 495 q 326 213 284 264 q 451 163 368 163 z "},"ó":{"ha":902,"x_min":53,"x_max":849,"o":"m 451 -15 q 240 30 330 -15 q 102 164 151 75 q 53 379 53 252 q 101 595 53 507 q 237 727 148 683 q 451 772 326 772 q 666 727 577 772 q 802 595 755 683 q 849 379 849 507 q 800 164 849 253 q 662 31 751 76 q 451 -15 573 -15 m 451 163 q 576 213 534 163 q 618 378 618 264 q 576 545 618 494 q 451 595 534 595 q 326 545 369 595 q 284 380 284 495 q 326 213 284 264 q 451 163 368 163 m 342 856 l 509 1122 l 761 1122 l 560 856 l 342 856 z "},"ŏ":{"ha":902,"x_min":53,"x_max":849,"o":"m 451 -15 q 240 30 330 -15 q 102 164 151 75 q 53 379 53 252 q 101 595 53 507 q 237 727 148 683 q 451 772 326 772 q 666 727 577 772 q 802 595 755 683 q 849 379 849 507 q 800 164 849 253 q 662 31 751 76 q 451 -15 573 -15 m 451 163 q 576 213 534 163 q 618 378 618 264 q 576 545 618 494 q 451 595 534 595 q 326 545 369 595 q 284 380 284 495 q 326 213 284 264 q 451 163 368 163 m 452 862 q 257 926 327 862 q 181 1107 188 990 l 321 1107 q 358 1010 326 1042 q 452 977 390 977 q 545 1010 513 977 q 582 1107 576 1042 l 722 1107 q 646 926 715 990 q 452 862 576 862 z "},"ô":{"ha":902,"x_min":53,"x_max":849,"o":"m 451 -15 q 240 30 330 -15 q 102 164 151 75 q 53 379 53 252 q 101 595 53 507 q 237 727 148 683 q 451 772 326 772 q 666 727 577 772 q 802 595 755 683 q 849 379 849 507 q 800 164 849 253 q 662 31 751 76 q 451 -15 573 -15 m 451 163 q 576 213 534 163 q 618 378 618 264 q 576 545 618 494 q 451 595 534 595 q 326 545 369 595 q 284 380 284 495 q 326 213 284 264 q 451 163 368 163 m 722 856 l 552 856 l 451 1015 l 351 856 l 181 856 l 359 1122 l 544 1122 l 722 856 z "},"ố":{"ha":902,"x_min":53,"x_max":946,"o":"m 451 -15 q 240 30 330 -15 q 102 164 151 75 q 53 379 53 252 q 101 595 53 507 q 237 727 148 683 q 451 772 326 772 q 666 727 577 772 q 802 595 755 683 q 849 379 849 507 q 800 164 849 253 q 662 31 751 76 q 451 -15 573 -15 m 451 163 q 576 213 534 163 q 618 378 618 264 q 576 545 618 494 q 451 595 534 595 q 326 545 369 595 q 284 380 284 495 q 326 213 284 264 q 451 163 368 163 m 747 1297 l 946 1297 l 777 1109 l 614 1109 l 747 1297 m 359 1122 l 544 1122 l 722 856 l 552 856 l 451 1015 l 351 856 l 181 856 l 359 1122 z "},"ộ":{"ha":902,"x_min":53,"x_max":849,"o":"m 451 -15 q 240 30 330 -15 q 102 164 151 75 q 53 379 53 252 q 101 595 53 507 q 237 727 148 683 q 451 772 326 772 q 666 727 577 772 q 802 595 755 683 q 849 379 849 507 q 800 164 849 253 q 662 31 751 76 q 451 -15 573 -15 m 451 163 q 576 213 534 163 q 618 378 618 264 q 576 545 618 494 q 451 595 534 595 q 326 545 369 595 q 284 380 284 495 q 326 213 284 264 q 451 163 368 163 m 451 -307 q 359 -278 391 -307 q 328 -199 328 -249 q 359 -118 328 -147 q 451 -89 391 -89 q 543 -118 512 -89 q 575 -199 575 -147 q 543 -278 575 -249 q 451 -307 512 -307 m 722 856 l 552 856 l 451 1015 l 351 856 l 181 856 l 359 1122 l 544 1122 l 722 856 z "},"ồ":{"ha":902,"x_min":53,"x_max":849,"o":"m 451 -15 q 240 30 330 -15 q 102 164 151 75 q 53 379 53 252 q 101 595 53 507 q 237 727 148 683 q 451 772 326 772 q 666 727 577 772 q 802 595 755 683 q 849 379 849 507 q 800 164 849 253 q 662 31 751 76 q 451 -15 573 -15 m 451 163 q 576 213 534 163 q 618 378 618 264 q 576 545 618 494 q 451 595 534 595 q 326 545 369 595 q 284 380 284 495 q 326 213 284 264 q 451 163 368 163 m 800 1109 l 636 1109 l 468 1297 l 666 1297 l 800 1109 m 359 1122 l 544 1122 l 722 856 l 552 856 l 451 1015 l 351 856 l 181 856 l 359 1122 z "},"ổ":{"ha":902,"x_min":53,"x_max":849,"o":"m 451 -15 q 240 30 330 -15 q 102 164 151 75 q 53 379 53 252 q 101 595 53 507 q 237 727 148 683 q 451 772 326 772 q 666 727 577 772 q 802 595 755 683 q 849 379 849 507 q 800 164 849 253 q 662 31 751 76 q 451 -15 573 -15 m 451 163 q 576 213 534 163 q 618 378 618 264 q 576 545 618 494 q 451 595 534 595 q 326 545 369 595 q 284 380 284 495 q 326 213 284 264 q 451 163 368 163 m 665 1310 q 792 1289 751 1310 q 832 1226 832 1269 q 817 1190 832 1203 q 772 1162 801 1176 q 733 1138 747 1149 q 717 1109 719 1126 l 613 1109 q 634 1156 615 1140 q 685 1185 653 1172 q 712 1199 703 1194 q 720 1213 720 1205 q 703 1231 720 1225 q 649 1238 686 1238 q 522 1222 580 1238 l 522 1292 q 589 1305 548 1300 q 665 1310 629 1310 m 359 1122 l 544 1122 l 722 856 l 552 856 l 451 1015 l 351 856 l 181 856 l 359 1122 z "},"ỗ":{"ha":902,"x_min":53,"x_max":849,"o":"m 451 -15 q 240 30 330 -15 q 102 164 151 75 q 53 379 53 252 q 101 595 53 507 q 237 727 148 683 q 451 772 326 772 q 666 727 577 772 q 802 595 755 683 q 849 379 849 507 q 800 164 849 253 q 662 31 751 76 q 451 -15 573 -15 m 451 163 q 576 213 534 163 q 618 378 618 264 q 576 545 618 494 q 451 595 534 595 q 326 545 369 595 q 284 380 284 495 q 326 213 284 264 q 451 163 368 163 m 574 1125 q 511 1131 540 1125 q 440 1149 483 1137 q 376 1166 401 1160 q 324 1172 351 1172 q 249 1161 282 1172 q 182 1129 216 1151 l 182 1240 q 246 1274 211 1263 q 329 1285 281 1285 q 392 1278 363 1285 q 463 1260 422 1272 q 527 1243 502 1249 q 578 1238 551 1238 q 654 1248 621 1238 q 721 1280 687 1258 l 721 1169 q 657 1135 692 1146 q 574 1125 622 1125 m 746 858 l 564 858 l 451 997 l 339 858 l 157 858 l 353 1085 l 549 1085 l 746 858 z "},"ȍ":{"ha":902,"x_min":53,"x_max":849,"o":"m 451 -15 q 240 30 330 -15 q 102 164 151 75 q 53 379 53 252 q 101 595 53 507 q 237 727 148 683 q 451 772 326 772 q 666 727 577 772 q 802 595 755 683 q 849 379 849 507 q 800 164 849 253 q 662 31 751 76 q 451 -15 573 -15 m 451 163 q 576 213 534 163 q 618 378 618 264 q 576 545 618 494 q 451 595 534 595 q 326 545 369 595 q 284 380 284 495 q 326 213 284 264 q 451 163 368 163 m 224 856 l 103 1122 l 284 1122 l 391 856 l 224 856 m 512 856 l 392 1122 l 572 1122 l 679 856 l 512 856 z "},"ö":{"ha":902,"x_min":53,"x_max":849,"o":"m 451 -15 q 240 30 330 -15 q 102 164 151 75 q 53 379 53 252 q 101 595 53 507 q 237 727 148 683 q 451 772 326 772 q 666 727 577 772 q 802 595 755 683 q 849 379 849 507 q 800 164 849 253 q 662 31 751 76 q 451 -15 573 -15 m 451 163 q 576 213 534 163 q 618 378 618 264 q 576 545 618 494 q 451 595 534 595 q 326 545 369 595 q 284 380 284 495 q 326 213 284 264 q 451 163 368 163 m 273 873 q 181 902 212 873 q 149 985 149 932 q 181 1069 149 1040 q 273 1099 212 1099 q 365 1069 334 1099 q 397 985 397 1040 q 365 902 397 932 q 273 873 334 873 m 630 873 q 538 902 569 873 q 506 985 506 932 q 538 1069 506 1040 q 630 1099 569 1099 q 722 1069 691 1099 q 753 985 753 1040 q 722 902 753 932 q 630 873 691 873 z "},"ȫ":{"ha":902,"x_min":53,"x_max":849,"o":"m 451 -15 q 240 30 330 -15 q 102 164 151 75 q 53 379 53 252 q 101 595 53 507 q 237 727 148 683 q 451 772 326 772 q 666 727 577 772 q 802 595 755 683 q 849 379 849 507 q 800 164 849 253 q 662 31 751 76 q 451 -15 573 -15 m 451 163 q 576 213 534 163 q 618 378 618 264 q 576 545 618 494 q 451 595 534 595 q 326 545 369 595 q 284 380 284 495 q 326 213 284 264 q 451 163 368 163 m 273 873 q 181 902 212 873 q 149 985 149 932 q 181 1069 149 1040 q 273 1099 212 1099 q 365 1069 334 1099 q 397 985 397 1040 q 365 902 397 932 q 273 873 334 873 m 630 873 q 538 902 569 873 q 506 985 506 932 q 538 1069 506 1040 q 630 1099 569 1099 q 722 1069 691 1099 q 753 985 753 1040 q 722 902 753 932 q 630 873 691 873 m 194 1177 l 194 1310 l 708 1310 l 708 1177 l 194 1177 z "},"ȱ":{"ha":902,"x_min":53,"x_max":849,"o":"m 451 -15 q 240 30 330 -15 q 102 164 151 75 q 53 379 53 252 q 101 595 53 507 q 237 727 148 683 q 451 772 326 772 q 666 727 577 772 q 802 595 755 683 q 849 379 849 507 q 800 164 849 253 q 662 31 751 76 q 451 -15 573 -15 m 451 163 q 576 213 534 163 q 618 378 618 264 q 576 545 618 494 q 451 595 534 595 q 326 545 369 595 q 284 380 284 495 q 326 213 284 264 q 451 163 368 163 m 451 870 q 344 900 380 870 q 309 985 309 929 q 344 1072 309 1042 q 451 1101 380 1101 q 558 1072 523 1101 q 594 985 594 1042 q 558 900 594 929 q 451 870 523 870 m 194 1179 l 194 1312 l 708 1312 l 708 1179 l 194 1179 z "},"ọ":{"ha":902,"x_min":53,"x_max":849,"o":"m 451 -15 q 240 30 330 -15 q 102 164 151 75 q 53 379 53 252 q 101 595 53 507 q 237 727 148 683 q 451 772 326 772 q 666 727 577 772 q 802 595 755 683 q 849 379 849 507 q 800 164 849 253 q 662 31 751 76 q 451 -15 573 -15 m 451 163 q 576 213 534 163 q 618 378 618 264 q 576 545 618 494 q 451 595 534 595 q 326 545 369 595 q 284 380 284 495 q 326 213 284 264 q 451 163 368 163 m 451 -307 q 359 -278 391 -307 q 328 -199 328 -249 q 359 -118 328 -147 q 451 -89 391 -89 q 543 -118 512 -89 q 575 -199 575 -147 q 543 -278 575 -249 q 451 -307 512 -307 z "},"ò":{"ha":902,"x_min":53,"x_max":849,"o":"m 451 -15 q 240 30 330 -15 q 102 164 151 75 q 53 379 53 252 q 101 595 53 507 q 237 727 148 683 q 451 772 326 772 q 666 727 577 772 q 802 595 755 683 q 849 379 849 507 q 800 164 849 253 q 662 31 751 76 q 451 -15 573 -15 m 451 163 q 576 213 534 163 q 618 378 618 264 q 576 545 618 494 q 451 595 534 595 q 326 545 369 595 q 284 380 284 495 q 326 213 284 264 q 451 163 368 163 m 342 856 l 142 1122 l 394 1122 l 560 856 l 342 856 z "},"ỏ":{"ha":902,"x_min":53,"x_max":849,"o":"m 451 -15 q 240 30 330 -15 q 102 164 151 75 q 53 379 53 252 q 101 595 53 507 q 237 727 148 683 q 451 772 326 772 q 666 727 577 772 q 802 595 755 683 q 849 379 849 507 q 800 164 849 253 q 662 31 751 76 q 451 -15 573 -15 m 451 163 q 576 213 534 163 q 618 378 618 264 q 576 545 618 494 q 451 595 534 595 q 326 545 369 595 q 284 380 284 495 q 326 213 284 264 q 451 163 368 163 m 394 856 q 406 904 395 884 q 431 937 417 924 q 466 965 444 949 q 495 988 486 978 q 505 1010 505 998 q 488 1036 505 1028 q 433 1044 472 1044 q 313 1027 374 1044 l 313 1113 q 377 1126 339 1122 q 448 1131 415 1131 q 581 1105 538 1131 q 624 1024 624 1078 q 615 983 624 1000 q 595 954 607 965 q 563 928 583 943 q 524 895 538 910 q 509 856 511 880 l 394 856 z "},"ơ":{"ha":902,"x_min":53,"x_max":884,"o":"m 747 668 q 849 379 849 569 q 800 164 849 253 q 662 31 751 76 q 451 -15 573 -15 q 240 30 330 -15 q 102 164 151 75 q 53 379 53 252 q 159 672 53 572 q 459 772 264 772 q 551 767 492 772 q 604 764 592 764 q 705 789 671 764 q 738 872 738 815 q 726 969 738 913 l 871 969 q 884 865 884 919 q 848 737 884 786 q 747 668 813 688 m 451 163 q 576 213 534 163 q 618 378 618 264 q 576 545 618 494 q 451 595 534 595 q 326 545 369 595 q 284 380 284 495 q 326 213 284 264 q 451 163 368 163 z "},"ớ":{"ha":902,"x_min":53,"x_max":884,"o":"m 753 1122 l 556 856 l 342 856 l 506 1122 l 753 1122 m 747 668 q 849 379 849 569 q 800 164 849 253 q 662 31 751 76 q 451 -15 573 -15 q 240 30 330 -15 q 102 164 151 75 q 53 379 53 252 q 159 672 53 572 q 459 772 264 772 q 551 767 492 772 q 604 764 592 764 q 705 789 671 764 q 738 872 738 815 q 726 969 738 913 l 871 969 q 884 865 884 919 q 848 737 884 786 q 747 668 813 688 m 451 163 q 576 213 534 163 q 618 378 618 264 q 576 545 618 494 q 451 595 534 595 q 326 545 369 595 q 284 380 284 495 q 326 213 284 264 q 451 163 368 163 z "},"ợ":{"ha":902,"x_min":53,"x_max":884,"o":"m 747 668 q 849 379 849 569 q 800 164 849 253 q 662 31 751 76 q 451 -15 573 -15 q 240 30 330 -15 q 102 164 151 75 q 53 379 53 252 q 159 672 53 572 q 459 772 264 772 q 551 767 492 772 q 604 764 592 764 q 705 789 671 764 q 738 872 738 815 q 726 969 738 913 l 871 969 q 884 865 884 919 q 848 737 884 786 q 747 668 813 688 m 451 163 q 576 213 534 163 q 618 378 618 264 q 576 545 618 494 q 451 595 534 595 q 326 545 369 595 q 284 380 284 495 q 326 213 284 264 q 451 163 368 163 m 450 -307 q 358 -278 390 -307 q 326 -199 326 -249 q 358 -118 326 -147 q 450 -89 390 -89 q 542 -118 510 -89 q 574 -199 574 -147 q 542 -278 574 -249 q 450 -307 510 -307 z "},"ờ":{"ha":902,"x_min":53,"x_max":884,"o":"m 747 668 q 849 379 849 569 q 800 164 849 253 q 662 31 751 76 q 451 -15 573 -15 q 240 30 330 -15 q 102 164 151 75 q 53 379 53 252 q 159 672 53 572 q 459 772 264 772 q 551 767 492 772 q 604 764 592 764 q 705 789 671 764 q 738 872 738 815 q 726 969 738 913 l 871 969 q 884 865 884 919 q 848 737 884 786 q 747 668 813 688 m 451 163 q 576 213 534 163 q 618 378 618 264 q 576 545 618 494 q 451 595 534 595 q 326 545 369 595 q 284 380 284 495 q 326 213 284 264 q 451 163 368 163 m 340 856 l 139 1122 l 391 1122 l 558 856 l 340 856 z "},"ở":{"ha":902,"x_min":53,"x_max":884,"o":"m 747 668 q 849 379 849 569 q 800 164 849 253 q 662 31 751 76 q 451 -15 573 -15 q 240 30 330 -15 q 102 164 151 75 q 53 379 53 252 q 159 672 53 572 q 459 772 264 772 q 551 767 492 772 q 604 764 592 764 q 705 789 671 764 q 738 872 738 815 q 726 969 738 913 l 871 969 q 884 865 884 919 q 848 737 884 786 q 747 668 813 688 m 451 163 q 576 213 534 163 q 618 378 618 264 q 576 545 618 494 q 451 595 534 595 q 326 545 369 595 q 284 380 284 495 q 326 213 284 264 q 451 163 368 163 m 391 856 q 403 904 392 884 q 428 937 414 924 q 463 965 442 949 q 493 988 483 978 q 502 1010 502 998 q 485 1036 502 1028 q 430 1044 469 1044 q 310 1027 371 1044 l 310 1113 q 374 1126 336 1122 q 445 1131 413 1131 q 578 1105 535 1131 q 621 1024 621 1078 q 613 983 621 1000 q 592 954 604 965 q 560 928 581 943 q 522 895 535 910 q 506 856 508 880 l 391 856 z "},"ỡ":{"ha":902,"x_min":53,"x_max":884,"o":"m 553 892 q 497 900 524 892 q 434 926 470 909 q 379 949 402 941 q 333 956 356 956 q 264 942 295 956 q 199 897 233 928 l 199 1037 q 261 1078 228 1065 q 337 1091 295 1091 q 393 1082 367 1091 q 456 1057 419 1074 q 511 1034 488 1042 q 558 1026 534 1026 q 627 1040 595 1026 q 690 1085 658 1054 l 690 946 q 629 905 663 918 q 553 892 596 892 m 747 668 q 849 379 849 569 q 800 164 849 253 q 662 31 751 76 q 451 -15 573 -15 q 240 30 330 -15 q 102 164 151 75 q 53 379 53 252 q 159 672 53 572 q 459 772 264 772 q 551 767 492 772 q 604 764 592 764 q 705 789 671 764 q 738 872 738 815 q 726 969 738 913 l 871 969 q 884 865 884 919 q 848 737 884 786 q 747 668 813 688 m 451 163 q 576 213 534 163 q 618 378 618 264 q 576 545 618 494 q 451 595 534 595 q 326 545 369 595 q 284 380 284 495 q 326 213 284 264 q 451 163 368 163 z "},"ő":{"ha":902,"x_min":53,"x_max":849,"o":"m 451 -15 q 240 30 330 -15 q 102 164 151 75 q 53 379 53 252 q 101 595 53 507 q 237 727 148 683 q 451 772 326 772 q 666 727 577 772 q 802 595 755 683 q 849 379 849 507 q 800 164 849 253 q 662 31 751 76 q 451 -15 573 -15 m 451 163 q 576 213 534 163 q 618 378 618 264 q 576 545 618 494 q 451 595 534 595 q 326 545 369 595 q 284 380 284 495 q 326 213 284 264 q 451 163 368 163 m 224 856 l 331 1122 l 510 1122 l 391 856 l 224 856 m 512 856 l 619 1122 l 799 1122 l 678 856 l 512 856 z "},"ȏ":{"ha":902,"x_min":53,"x_max":849,"o":"m 451 -15 q 240 30 330 -15 q 102 164 151 75 q 53 379 53 252 q 101 595 53 507 q 237 727 148 683 q 451 772 326 772 q 666 727 577 772 q 802 595 755 683 q 849 379 849 507 q 800 164 849 253 q 662 31 751 76 q 451 -15 573 -15 m 451 163 q 576 213 534 163 q 618 378 618 264 q 576 545 618 494 q 451 595 534 595 q 326 545 369 595 q 284 380 284 495 q 326 213 284 264 q 451 163 368 163 m 181 876 q 257 1057 188 993 q 451 1121 326 1121 q 645 1057 576 1121 q 722 876 715 992 l 582 876 q 544 973 576 940 q 451 1006 513 1006 q 358 973 389 1006 q 321 876 326 940 l 181 876 z "},"ō":{"ha":902,"x_min":53,"x_max":849,"o":"m 451 -15 q 240 30 330 -15 q 102 164 151 75 q 53 379 53 252 q 101 595 53 507 q 237 727 148 683 q 451 772 326 772 q 666 727 577 772 q 802 595 755 683 q 849 379 849 507 q 800 164 849 253 q 662 31 751 76 q 451 -15 573 -15 m 451 163 q 576 213 534 163 q 618 378 618 264 q 576 545 618 494 q 451 595 534 595 q 326 545 369 595 q 284 380 284 495 q 326 213 284 264 q 451 163 368 163 m 194 920 l 194 1053 l 708 1053 l 708 920 l 194 920 z "},"ṓ":{"ha":902,"x_min":53,"x_max":849,"o":"m 451 -15 q 240 30 330 -15 q 102 164 151 75 q 53 379 53 252 q 101 595 53 507 q 237 727 148 683 q 451 772 326 772 q 666 727 577 772 q 802 595 755 683 q 849 379 849 507 q 800 164 849 253 q 662 31 751 76 q 451 -15 573 -15 m 451 163 q 576 213 534 163 q 618 378 618 264 q 576 545 618 494 q 451 595 534 595 q 326 545 369 595 q 284 380 284 495 q 326 213 284 264 q 451 163 368 163 m 194 920 l 194 1053 l 708 1053 l 708 920 l 194 920 m 344 1150 l 478 1360 l 724 1360 l 555 1150 l 344 1150 z "},"ṑ":{"ha":902,"x_min":53,"x_max":849,"o":"m 451 -15 q 240 30 330 -15 q 102 164 151 75 q 53 379 53 252 q 101 595 53 507 q 237 727 148 683 q 451 772 326 772 q 666 727 577 772 q 802 595 755 683 q 849 379 849 507 q 800 164 849 253 q 662 31 751 76 q 451 -15 573 -15 m 451 163 q 576 213 534 163 q 618 378 618 264 q 576 545 618 494 q 451 595 534 595 q 326 545 369 595 q 284 380 284 495 q 326 213 284 264 q 451 163 368 163 m 194 920 l 194 1053 l 708 1053 l 708 920 l 194 920 m 347 1150 l 178 1360 l 423 1360 l 556 1150 l 347 1150 z "},"ǫ":{"ha":902,"x_min":53,"x_max":849,"o":"m 609 8 q 472 -62 510 -24 q 434 -143 434 -99 q 457 -198 434 -178 q 522 -217 480 -217 q 608 -198 564 -217 l 613 -284 q 555 -301 584 -295 q 490 -307 526 -307 q 350 -268 399 -307 q 302 -162 302 -230 q 323 -79 302 -116 q 390 -12 344 -42 q 210 47 286 -1 q 94 178 135 94 q 53 379 53 263 q 101 595 53 507 q 237 727 148 683 q 451 772 326 772 q 666 727 577 772 q 802 595 755 683 q 849 379 849 507 q 786 140 849 234 q 609 8 723 47 m 284 380 q 326 213 284 264 q 451 163 368 163 q 576 213 534 163 q 618 378 618 264 q 576 545 618 494 q 451 595 534 595 q 326 545 369 595 q 284 380 284 495 z "},"ø":{"ha":902,"x_min":53,"x_max":849,"o":"m 743 673 q 822 550 795 624 q 849 379 849 476 q 800 164 849 253 q 662 31 751 76 q 451 -15 573 -15 q 253 24 339 -15 l 201 -44 l 113 25 l 160 87 q 81 210 108 137 q 53 379 53 284 q 101 595 53 507 q 237 727 148 683 q 451 772 326 772 q 649 735 565 772 l 702 804 l 790 735 l 743 673 m 451 597 q 324 547 367 597 q 281 380 281 497 q 299 257 281 306 l 540 578 q 451 597 505 597 m 451 160 q 579 211 536 160 q 622 378 622 262 q 603 502 622 454 l 361 179 q 451 160 398 160 z "},"ǿ":{"ha":902,"x_min":53,"x_max":849,"o":"m 743 673 q 822 550 795 624 q 849 379 849 476 q 800 164 849 253 q 662 31 751 76 q 451 -15 573 -15 q 253 24 339 -15 l 201 -44 l 113 25 l 160 87 q 81 210 108 137 q 53 379 53 284 q 101 595 53 507 q 237 727 148 683 q 451 772 326 772 q 649 735 565 772 l 702 804 l 790 735 l 743 673 m 451 597 q 324 547 367 597 q 281 380 281 497 q 299 257 281 306 l 540 578 q 451 597 505 597 m 451 160 q 579 211 536 160 q 622 378 622 262 q 603 502 622 454 l 361 179 q 451 160 398 160 m 339 856 l 506 1122 l 758 1122 l 557 856 l 339 856 z "},"õ":{"ha":902,"x_min":53,"x_max":849,"o":"m 451 -15 q 240 30 330 -15 q 102 164 151 75 q 53 379 53 252 q 101 595 53 507 q 237 727 148 683 q 451 772 326 772 q 666 727 577 772 q 802 595 755 683 q 849 379 849 507 q 800 164 849 253 q 662 31 751 76 q 451 -15 573 -15 m 451 163 q 576 213 534 163 q 618 378 618 264 q 576 545 618 494 q 451 595 534 595 q 326 545 369 595 q 284 380 284 495 q 326 213 284 264 q 451 163 368 163 m 565 892 q 506 900 534 892 q 440 926 478 909 q 380 949 403 942 q 333 956 358 956 q 261 942 293 956 q 194 897 228 928 l 194 1037 q 258 1078 223 1065 q 338 1091 293 1091 q 397 1082 369 1091 q 463 1057 424 1074 q 523 1034 500 1041 q 569 1026 545 1026 q 642 1040 610 1026 q 708 1085 674 1054 l 708 946 q 645 905 680 918 q 565 892 610 892 z "},"ṍ":{"ha":902,"x_min":53,"x_max":849,"o":"m 451 -15 q 240 30 330 -15 q 102 164 151 75 q 53 379 53 252 q 101 595 53 507 q 237 727 148 683 q 451 772 326 772 q 666 727 577 772 q 802 595 755 683 q 849 379 849 507 q 800 164 849 253 q 662 31 751 76 q 451 -15 573 -15 m 451 163 q 576 213 534 163 q 618 378 618 264 q 576 545 618 494 q 451 595 534 595 q 326 545 369 595 q 284 380 284 495 q 326 213 284 264 q 451 163 368 163 m 565 892 q 506 900 534 892 q 440 926 478 909 q 380 949 403 942 q 333 956 358 956 q 261 942 293 956 q 194 897 228 928 l 194 1037 q 258 1078 223 1065 q 338 1091 293 1091 q 397 1082 369 1091 q 463 1057 424 1074 q 523 1034 500 1041 q 569 1026 545 1026 q 642 1040 610 1026 q 708 1085 674 1054 l 708 946 q 645 905 680 918 q 565 892 610 892 m 463 1451 l 597 1662 l 842 1662 l 674 1451 l 463 1451 z "},"ṏ":{"ha":902,"x_min":53,"x_max":849,"o":"m 451 -15 q 240 30 330 -15 q 102 164 151 75 q 53 379 53 252 q 101 595 53 507 q 237 727 148 683 q 451 772 326 772 q 666 727 577 772 q 802 595 755 683 q 849 379 849 507 q 800 164 849 253 q 662 31 751 76 q 451 -15 573 -15 m 451 163 q 576 213 534 163 q 618 378 618 264 q 576 545 618 494 q 451 595 534 595 q 326 545 369 595 q 284 380 284 495 q 326 213 284 264 q 451 163 368 163 m 565 892 q 506 900 534 892 q 440 926 478 909 q 380 949 403 942 q 333 956 358 956 q 261 942 293 956 q 194 897 228 928 l 194 1037 q 258 1078 223 1065 q 338 1091 293 1091 q 397 1082 369 1091 q 463 1057 424 1074 q 523 1034 500 1041 q 569 1026 545 1026 q 642 1040 610 1026 q 708 1085 674 1054 l 708 946 q 645 905 680 918 q 565 892 610 892 m 273 1130 q 181 1159 212 1130 q 149 1242 149 1189 q 181 1326 149 1297 q 273 1356 212 1356 q 365 1326 334 1356 q 397 1242 397 1297 q 365 1159 397 1189 q 273 1130 334 1130 m 630 1130 q 538 1159 569 1130 q 506 1242 506 1189 q 538 1326 506 1297 q 630 1356 569 1356 q 722 1326 691 1356 q 753 1242 753 1297 q 722 1159 753 1189 q 630 1130 691 1130 z "},"ȭ":{"ha":902,"x_min":53,"x_max":849,"o":"m 451 -15 q 240 30 330 -15 q 102 164 151 75 q 53 379 53 252 q 101 595 53 507 q 237 727 148 683 q 451 772 326 772 q 666 727 577 772 q 802 595 755 683 q 849 379 849 507 q 800 164 849 253 q 662 31 751 76 q 451 -15 573 -15 m 451 163 q 576 213 534 163 q 618 378 618 264 q 576 545 618 494 q 451 595 534 595 q 326 545 369 595 q 284 380 284 495 q 326 213 284 264 q 451 163 368 163 m 565 892 q 506 900 534 892 q 440 926 478 909 q 380 949 403 942 q 333 956 358 956 q 261 942 293 956 q 194 897 228 928 l 194 1037 q 258 1078 223 1065 q 338 1091 293 1091 q 397 1082 369 1091 q 463 1057 424 1074 q 523 1034 500 1041 q 569 1026 545 1026 q 642 1040 610 1026 q 708 1085 674 1054 l 708 946 q 645 905 680 918 q 565 892 610 892 m 194 1177 l 194 1310 l 708 1310 l 708 1177 l 194 1177 z "},"œ":{"ha":1384,"x_min":53,"x_max":1340,"o":"m 1340 315 l 847 315 q 875 221 851 256 q 951 170 899 186 q 1092 155 1003 155 q 1294 178 1185 155 l 1294 11 q 1058 -15 1176 -15 q 854 14 938 -15 q 721 98 771 42 q 603 14 674 43 q 440 -15 533 -15 q 236 30 324 -15 q 101 164 149 75 q 53 379 53 252 q 100 595 53 507 q 233 727 147 683 q 440 772 320 772 q 731 651 638 772 q 845 741 776 710 q 999 772 913 772 q 1184 726 1108 772 q 1300 590 1260 680 q 1340 372 1340 501 l 1340 315 m 986 628 q 884 585 919 628 q 847 444 849 541 l 1124 444 q 1088 585 1122 542 q 986 628 1053 628 m 450 163 q 574 213 532 163 q 616 378 616 264 q 574 545 616 494 q 450 595 532 595 q 326 545 368 595 q 284 380 284 494 q 326 213 284 264 q 450 163 368 163 z "},"p":{"ha":919,"x_min":90,"x_max":865,"o":"m 90 760 l 284 760 l 297 681 l 308 681 q 403 747 347 723 q 529 772 460 772 q 701 732 625 772 q 821 609 776 693 q 865 395 865 524 q 815 172 865 264 q 668 33 765 80 q 436 -15 572 -15 q 322 -7 383 -15 l 322 -306 l 90 -306 l 90 760 m 426 160 q 583 213 532 160 q 635 378 635 266 q 590 538 635 490 q 465 585 546 585 q 386 571 424 585 q 322 528 349 557 l 322 171 q 426 160 374 160 z "},"þ":{"ha":919,"x_min":90,"x_max":865,"o":"m 90 1122 l 322 1122 l 322 688 l 333 688 q 426 750 372 728 q 548 772 480 772 q 709 731 638 772 q 823 606 781 690 q 865 395 865 522 q 815 172 865 264 q 668 33 765 80 q 436 -15 572 -15 q 322 -7 383 -15 l 322 -306 l 90 -306 l 90 1122 m 426 160 q 583 213 532 160 q 635 378 635 266 q 590 538 635 490 q 465 585 546 585 q 386 572 424 585 q 322 530 348 558 l 322 171 q 426 160 374 160 z "},"q":{"ha":919,"x_min":53,"x_max":829,"o":"m 597 69 l 586 69 q 493 7 547 29 q 371 -15 438 -15 q 210 26 281 -15 q 96 151 138 67 q 53 360 53 235 q 169 667 53 563 q 511 772 284 772 q 678 760 592 772 q 829 728 763 749 l 829 -306 l 597 -306 l 597 69 m 454 172 q 531 185 494 172 q 597 222 569 197 l 597 585 q 490 598 546 598 q 336 544 388 598 q 284 378 284 491 q 328 219 284 267 q 454 172 373 172 z "},"r":{"ha":594,"x_min":90,"x_max":585,"o":"m 90 760 l 279 760 l 297 666 l 308 666 q 397 744 342 717 q 519 770 452 770 q 585 765 549 770 l 585 558 q 506 564 556 564 q 402 545 453 564 q 322 491 351 526 l 322 0 l 90 0 l 90 760 z "},"ŕ":{"ha":594,"x_min":90,"x_max":645,"o":"m 90 760 l 279 760 l 297 666 l 308 666 q 397 744 342 717 q 519 770 452 770 q 585 765 549 770 l 585 558 q 506 564 556 564 q 402 545 453 564 q 322 491 351 526 l 322 0 l 90 0 l 90 760 m 226 856 l 393 1122 l 645 1122 l 444 856 l 226 856 z "},"ř":{"ha":594,"x_min":64,"x_max":607,"o":"m 90 760 l 279 760 l 297 666 l 308 666 q 397 744 342 717 q 519 770 452 770 q 585 765 549 770 l 585 558 q 506 564 556 564 q 402 545 453 564 q 322 491 351 526 l 322 0 l 90 0 l 90 760 m 437 1122 l 607 1122 l 428 856 l 243 856 l 64 1122 l 234 1122 l 335 964 l 437 1122 z "},"ŗ":{"ha":594,"x_min":76,"x_max":585,"o":"m 90 760 l 279 760 l 297 666 l 308 666 q 397 744 342 717 q 519 770 452 770 q 585 765 549 770 l 585 558 q 506 564 556 564 q 402 545 453 564 q 322 491 351 526 l 322 0 l 90 0 l 90 760 m 205 -89 q 335 -193 335 -89 q 320 -273 335 -231 q 280 -346 305 -315 l 138 -346 q 177 -244 169 -287 q 76 -167 76 -237 q 108 -109 76 -130 q 205 -89 140 -89 z "},"ȑ":{"ha":594,"x_min":-12,"x_max":585,"o":"m 90 760 l 279 760 l 297 666 l 308 666 q 397 744 342 717 q 519 770 452 770 q 585 765 549 770 l 585 558 q 506 564 556 564 q 402 545 453 564 q 322 491 351 526 l 322 0 l 90 0 l 90 760 m 108 856 l -12 1122 l 168 1122 l 275 856 l 108 856 m 396 856 l 276 1122 l 456 1122 l 563 856 l 396 856 z "},"ṛ":{"ha":594,"x_min":82,"x_max":585,"o":"m 90 760 l 279 760 l 297 666 l 308 666 q 397 744 342 717 q 519 770 452 770 q 585 765 549 770 l 585 558 q 506 564 556 564 q 402 545 453 564 q 322 491 351 526 l 322 0 l 90 0 l 90 760 m 206 -307 q 114 -278 145 -307 q 82 -199 82 -249 q 114 -118 82 -147 q 206 -89 145 -89 q 298 -118 266 -89 q 329 -199 329 -147 q 298 -278 329 -249 q 206 -307 266 -307 z "},"ȓ":{"ha":594,"x_min":65,"x_max":606,"o":"m 90 760 l 279 760 l 297 666 l 308 666 q 397 744 342 717 q 519 770 452 770 q 585 765 549 770 l 585 558 q 506 564 556 564 q 402 545 453 564 q 322 491 351 526 l 322 0 l 90 0 l 90 760 m 65 876 q 141 1057 72 993 q 335 1121 210 1121 q 530 1057 460 1121 q 606 876 599 992 l 466 876 q 428 973 460 940 q 335 1006 397 1006 q 242 973 273 1006 q 205 876 210 940 l 65 876 z "},"ṟ":{"ha":594,"x_min":-44,"x_max":585,"o":"m 90 760 l 279 760 l 297 666 l 308 666 q 397 744 342 717 q 519 770 452 770 q 585 765 549 770 l 585 558 q 506 564 556 564 q 402 545 453 564 q 322 491 351 526 l 322 0 l 90 0 l 90 760 m -44 -262 l -44 -131 l 456 -131 l 456 -262 l -44 -262 z "},"s":{"ha":739,"x_min":50,"x_max":698,"o":"m 336 -15 q 194 -6 263 -15 q 68 20 126 3 l 68 182 q 197 156 128 165 q 333 147 265 147 q 446 165 412 147 q 480 221 480 184 q 464 264 480 249 q 408 285 448 278 l 272 307 q 102 380 154 326 q 50 526 50 434 q 146 706 50 641 q 434 772 242 772 q 552 765 493 772 q 656 745 610 758 l 656 583 q 552 604 609 597 q 438 611 494 611 q 306 590 343 611 q 268 535 268 569 q 284 495 268 510 q 340 473 300 480 l 476 451 q 643 382 589 433 q 698 231 698 331 q 656 99 698 154 q 533 15 614 44 q 336 -15 451 -15 z "},"ś":{"ha":739,"x_min":50,"x_max":698,"o":"m 336 -15 q 194 -6 263 -15 q 68 20 126 3 l 68 182 q 197 156 128 165 q 333 147 265 147 q 446 165 412 147 q 480 221 480 184 q 464 264 480 249 q 408 285 448 278 l 272 307 q 102 380 154 326 q 50 526 50 434 q 146 706 50 641 q 434 772 242 772 q 552 765 493 772 q 656 745 610 758 l 656 583 q 552 604 609 597 q 438 611 494 611 q 306 590 343 611 q 268 535 268 569 q 284 495 268 510 q 340 473 300 480 l 476 451 q 643 382 589 433 q 698 231 698 331 q 656 99 698 154 q 533 15 614 44 q 336 -15 451 -15 m 267 856 l 433 1122 l 685 1122 l 485 856 l 267 856 z "},"ṥ":{"ha":739,"x_min":50,"x_max":698,"o":"m 336 -15 q 194 -6 263 -15 q 68 20 126 3 l 68 182 q 197 156 128 165 q 333 147 265 147 q 446 165 412 147 q 480 221 480 184 q 464 264 480 249 q 408 285 448 278 l 272 307 q 102 380 154 326 q 50 526 50 434 q 146 706 50 641 q 434 772 242 772 q 552 765 493 772 q 656 745 610 758 l 656 583 q 552 604 609 597 q 438 611 494 611 q 306 590 343 611 q 268 535 268 569 q 284 495 268 510 q 340 473 300 480 l 476 451 q 643 382 589 433 q 698 231 698 331 q 656 99 698 154 q 533 15 614 44 q 336 -15 451 -15 m 255 1094 q 169 1116 197 1094 q 140 1177 140 1138 q 169 1238 140 1216 q 255 1260 197 1260 q 340 1238 312 1260 q 369 1177 369 1216 q 340 1116 369 1138 q 255 1094 312 1094 m 267 856 l 433 1122 l 685 1122 l 485 856 l 267 856 z "},"š":{"ha":739,"x_min":50,"x_max":698,"o":"m 336 -15 q 194 -6 263 -15 q 68 20 126 3 l 68 182 q 197 156 128 165 q 333 147 265 147 q 446 165 412 147 q 480 221 480 184 q 464 264 480 249 q 408 285 448 278 l 272 307 q 102 380 154 326 q 50 526 50 434 q 146 706 50 641 q 434 772 242 772 q 552 765 493 772 q 656 745 610 758 l 656 583 q 552 604 609 597 q 438 611 494 611 q 306 590 343 611 q 268 535 268 569 q 284 495 268 510 q 340 473 300 480 l 476 451 q 643 382 589 433 q 698 231 698 331 q 656 99 698 154 q 533 15 614 44 q 336 -15 451 -15 m 477 1122 l 647 1122 l 468 856 l 283 856 l 104 1122 l 274 1122 l 376 964 l 477 1122 z "},"ṧ":{"ha":739,"x_min":50,"x_max":698,"o":"m 336 -15 q 194 -6 263 -15 q 68 20 126 3 l 68 182 q 197 156 128 165 q 333 147 265 147 q 446 165 412 147 q 480 221 480 184 q 464 264 480 249 q 408 285 448 278 l 272 307 q 102 380 154 326 q 50 526 50 434 q 146 706 50 641 q 434 772 242 772 q 552 765 493 772 q 656 745 610 758 l 656 583 q 552 604 609 597 q 438 611 494 611 q 306 590 343 611 q 268 535 268 569 q 284 495 268 510 q 340 473 300 480 l 476 451 q 643 382 589 433 q 698 231 698 331 q 656 99 698 154 q 533 15 614 44 q 336 -15 451 -15 m 376 1141 q 290 1163 319 1141 q 261 1224 261 1185 q 290 1285 261 1263 q 376 1307 319 1307 q 461 1285 433 1307 q 490 1224 490 1263 q 461 1163 490 1185 q 376 1141 433 1141 m 477 1122 l 647 1122 l 468 856 l 283 856 l 104 1122 l 274 1122 l 376 964 l 477 1122 z "}}}
